<?xml version="1.0" encoding="utf-8" standalone="no"?>
<!DOCTYPE svg PUBLIC "-//W3C//DTD SVG 1.1//EN"
  "http://www.w3.org/Graphics/SVG/1.1/DTD/svg11.dtd">
<svg xmlns:xlink="http://www.w3.org/1999/xlink" width="417.074687pt" height="314.689344pt" viewBox="0 0 417.074687 314.689344" xmlns="http://www.w3.org/2000/svg" version="1.1">
 <metadata>
  <rdf:RDF xmlns:dc="http://purl.org/dc/elements/1.1/" xmlns:cc="http://creativecommons.org/ns#" xmlns:rdf="http://www.w3.org/1999/02/22-rdf-syntax-ns#">
   <cc:Work>
    <dc:type rdf:resource="http://purl.org/dc/dcmitype/StillImage"/>
    <dc:date>2026-07-17T15:22:36.854007</dc:date>
    <dc:format>image/svg+xml</dc:format>
    <dc:creator>
     <cc:Agent>
      <dc:title>Matplotlib v3.10.9, https://matplotlib.org/</dc:title>
     </cc:Agent>
    </dc:creator>
   </cc:Work>
  </rdf:RDF>
 </metadata>
 <defs>
  <style type="text/css">*{stroke-linejoin: round; stroke-linecap: butt}</style>
 </defs>
 <g id="figure_1">
  <g id="patch_1">
   <path d="M 0 314.689344 
L 417.074687 314.689344 
L 417.074687 0 
L 0 0 
z
" style="fill: #ffffff"/>
  </g>
  <g id="axes_1">
   <g id="patch_2">
    <path d="M 44.803125 277.111219 
L 401.923125 277.111219 
L 401.923125 10.999219 
L 44.803125 10.999219 
z
" style="fill: #ffffff"/>
   </g>
   <g id="matplotlib.axis_1">
    <g id="xtick_1">
     <g id="line2d_1">
      <defs>
       <path id="m9b7c094be8" d="M 0 0 
L 0 3.5 
" style="stroke: #000000; stroke-width: 0.8"/>
      </defs>
      <g>
       <use xlink:href="#m9b7c094be8" x="44.803125" y="277.111219" style="stroke: #000000; stroke-width: 0.8"/>
      </g>
     </g>
     <g id="text_1">
      <!-- 0.0 -->
      <g transform="translate(36.851563 291.709656) scale(0.1 -0.1)">
       <defs>
        <path id="DejaVuSans-30" d="M 2034 4250 
Q 1547 4250 1301 3770 
Q 1056 3291 1056 2328 
Q 1056 1369 1301 889 
Q 1547 409 2034 409 
Q 2525 409 2770 889 
Q 3016 1369 3016 2328 
Q 3016 3291 2770 3770 
Q 2525 4250 2034 4250 
z
M 2034 4750 
Q 2819 4750 3233 4129 
Q 3647 3509 3647 2328 
Q 3647 1150 3233 529 
Q 2819 -91 2034 -91 
Q 1250 -91 836 529 
Q 422 1150 422 2328 
Q 422 3509 836 4129 
Q 1250 4750 2034 4750 
z
" transform="scale(0.015625)"/>
        <path id="DejaVuSans-2e" d="M 684 794 
L 1344 794 
L 1344 0 
L 684 0 
L 684 794 
z
" transform="scale(0.015625)"/>
       </defs>
       <use xlink:href="#DejaVuSans-30"/>
       <use xlink:href="#DejaVuSans-2e" transform="translate(63.623047 0)"/>
       <use xlink:href="#DejaVuSans-30" transform="translate(95.410156 0)"/>
      </g>
     </g>
    </g>
    <g id="xtick_2">
     <g id="line2d_2">
      <g>
       <use xlink:href="#m9b7c094be8" x="116.227125" y="277.111219" style="stroke: #000000; stroke-width: 0.8"/>
      </g>
     </g>
     <g id="text_2">
      <!-- 0.2 -->
      <g transform="translate(108.275563 291.709656) scale(0.1 -0.1)">
       <defs>
        <path id="DejaVuSans-32" d="M 1228 531 
L 3431 531 
L 3431 0 
L 469 0 
L 469 531 
Q 828 903 1448 1529 
Q 2069 2156 2228 2338 
Q 2531 2678 2651 2914 
Q 2772 3150 2772 3378 
Q 2772 3750 2511 3984 
Q 2250 4219 1831 4219 
Q 1534 4219 1204 4116 
Q 875 4013 500 3803 
L 500 4441 
Q 881 4594 1212 4672 
Q 1544 4750 1819 4750 
Q 2544 4750 2975 4387 
Q 3406 4025 3406 3419 
Q 3406 3131 3298 2873 
Q 3191 2616 2906 2266 
Q 2828 2175 2409 1742 
Q 1991 1309 1228 531 
z
" transform="scale(0.015625)"/>
       </defs>
       <use xlink:href="#DejaVuSans-30"/>
       <use xlink:href="#DejaVuSans-2e" transform="translate(63.623047 0)"/>
       <use xlink:href="#DejaVuSans-32" transform="translate(95.410156 0)"/>
      </g>
     </g>
    </g>
    <g id="xtick_3">
     <g id="line2d_3">
      <g>
       <use xlink:href="#m9b7c094be8" x="187.651125" y="277.111219" style="stroke: #000000; stroke-width: 0.8"/>
      </g>
     </g>
     <g id="text_3">
      <!-- 0.4 -->
      <g transform="translate(179.699563 291.709656) scale(0.1 -0.1)">
       <defs>
        <path id="DejaVuSans-34" d="M 2419 4116 
L 825 1625 
L 2419 1625 
L 2419 4116 
z
M 2253 4666 
L 3047 4666 
L 3047 1625 
L 3713 1625 
L 3713 1100 
L 3047 1100 
L 3047 0 
L 2419 0 
L 2419 1100 
L 313 1100 
L 313 1709 
L 2253 4666 
z
" transform="scale(0.015625)"/>
       </defs>
       <use xlink:href="#DejaVuSans-30"/>
       <use xlink:href="#DejaVuSans-2e" transform="translate(63.623047 0)"/>
       <use xlink:href="#DejaVuSans-34" transform="translate(95.410156 0)"/>
      </g>
     </g>
    </g>
    <g id="xtick_4">
     <g id="line2d_4">
      <g>
       <use xlink:href="#m9b7c094be8" x="259.075125" y="277.111219" style="stroke: #000000; stroke-width: 0.8"/>
      </g>
     </g>
     <g id="text_4">
      <!-- 0.6 -->
      <g transform="translate(251.123563 291.709656) scale(0.1 -0.1)">
       <defs>
        <path id="DejaVuSans-36" d="M 2113 2584 
Q 1688 2584 1439 2293 
Q 1191 2003 1191 1497 
Q 1191 994 1439 701 
Q 1688 409 2113 409 
Q 2538 409 2786 701 
Q 3034 994 3034 1497 
Q 3034 2003 2786 2293 
Q 2538 2584 2113 2584 
z
M 3366 4563 
L 3366 3988 
Q 3128 4100 2886 4159 
Q 2644 4219 2406 4219 
Q 1781 4219 1451 3797 
Q 1122 3375 1075 2522 
Q 1259 2794 1537 2939 
Q 1816 3084 2150 3084 
Q 2853 3084 3261 2657 
Q 3669 2231 3669 1497 
Q 3669 778 3244 343 
Q 2819 -91 2113 -91 
Q 1303 -91 875 529 
Q 447 1150 447 2328 
Q 447 3434 972 4092 
Q 1497 4750 2381 4750 
Q 2619 4750 2861 4703 
Q 3103 4656 3366 4563 
z
" transform="scale(0.015625)"/>
       </defs>
       <use xlink:href="#DejaVuSans-30"/>
       <use xlink:href="#DejaVuSans-2e" transform="translate(63.623047 0)"/>
       <use xlink:href="#DejaVuSans-36" transform="translate(95.410156 0)"/>
      </g>
     </g>
    </g>
    <g id="xtick_5">
     <g id="line2d_5">
      <g>
       <use xlink:href="#m9b7c094be8" x="330.499125" y="277.111219" style="stroke: #000000; stroke-width: 0.8"/>
      </g>
     </g>
     <g id="text_5">
      <!-- 0.8 -->
      <g transform="translate(322.547563 291.709656) scale(0.1 -0.1)">
       <defs>
        <path id="DejaVuSans-38" d="M 2034 2216 
Q 1584 2216 1326 1975 
Q 1069 1734 1069 1313 
Q 1069 891 1326 650 
Q 1584 409 2034 409 
Q 2484 409 2743 651 
Q 3003 894 3003 1313 
Q 3003 1734 2745 1975 
Q 2488 2216 2034 2216 
z
M 1403 2484 
Q 997 2584 770 2862 
Q 544 3141 544 3541 
Q 544 4100 942 4425 
Q 1341 4750 2034 4750 
Q 2731 4750 3128 4425 
Q 3525 4100 3525 3541 
Q 3525 3141 3298 2862 
Q 3072 2584 2669 2484 
Q 3125 2378 3379 2068 
Q 3634 1759 3634 1313 
Q 3634 634 3220 271 
Q 2806 -91 2034 -91 
Q 1263 -91 848 271 
Q 434 634 434 1313 
Q 434 1759 690 2068 
Q 947 2378 1403 2484 
z
M 1172 3481 
Q 1172 3119 1398 2916 
Q 1625 2713 2034 2713 
Q 2441 2713 2670 2916 
Q 2900 3119 2900 3481 
Q 2900 3844 2670 4047 
Q 2441 4250 2034 4250 
Q 1625 4250 1398 4047 
Q 1172 3844 1172 3481 
z
" transform="scale(0.015625)"/>
       </defs>
       <use xlink:href="#DejaVuSans-30"/>
       <use xlink:href="#DejaVuSans-2e" transform="translate(63.623047 0)"/>
       <use xlink:href="#DejaVuSans-38" transform="translate(95.410156 0)"/>
      </g>
     </g>
    </g>
    <g id="xtick_6">
     <g id="line2d_6">
      <g>
       <use xlink:href="#m9b7c094be8" x="401.923125" y="277.111219" style="stroke: #000000; stroke-width: 0.8"/>
      </g>
     </g>
     <g id="text_6">
      <!-- 1.0 -->
      <g transform="translate(393.971563 291.709656) scale(0.1 -0.1)">
       <defs>
        <path id="DejaVuSans-31" d="M 794 531 
L 1825 531 
L 1825 4091 
L 703 3866 
L 703 4441 
L 1819 4666 
L 2450 4666 
L 2450 531 
L 3481 531 
L 3481 0 
L 794 0 
L 794 531 
z
" transform="scale(0.015625)"/>
       </defs>
       <use xlink:href="#DejaVuSans-31"/>
       <use xlink:href="#DejaVuSans-2e" transform="translate(63.623047 0)"/>
       <use xlink:href="#DejaVuSans-30" transform="translate(95.410156 0)"/>
      </g>
     </g>
    </g>
    <g id="text_7">
     <!-- $q$ (NA) -->
     <g transform="translate(207.513125 305.389344) scale(0.1 -0.1)">
      <defs>
       <path id="DejaVuSans-Oblique-71" d="M 2669 525 
Q 2438 222 2123 65 
Q 1809 -91 1428 -91 
Q 897 -91 595 267 
Q 294 625 294 1253 
Q 294 1759 480 2231 
Q 666 2703 1013 3078 
Q 1238 3322 1530 3453 
Q 1822 3584 2144 3584 
Q 2531 3584 2781 3431 
Q 3031 3278 3144 2969 
L 3244 3494 
L 3822 3494 
L 2888 -1319 
L 2309 -1319 
L 2669 525 
z
M 891 1338 
Q 891 875 1084 633 
Q 1278 391 1644 391 
Q 2188 391 2572 911 
Q 2956 1431 2956 2175 
Q 2956 2625 2757 2864 
Q 2559 3103 2188 3103 
Q 1916 3103 1684 2976 
Q 1453 2850 1281 2606 
Q 1100 2350 995 2006 
Q 891 1663 891 1338 
z
" transform="scale(0.015625)"/>
       <path id="DejaVuSans-20" transform="scale(0.015625)"/>
       <path id="DejaVuSans-28" d="M 1984 4856 
Q 1566 4138 1362 3434 
Q 1159 2731 1159 2009 
Q 1159 1288 1364 580 
Q 1569 -128 1984 -844 
L 1484 -844 
Q 1016 -109 783 600 
Q 550 1309 550 2009 
Q 550 2706 781 3412 
Q 1013 4119 1484 4856 
L 1984 4856 
z
" transform="scale(0.015625)"/>
       <path id="DejaVuSans-4e" d="M 628 4666 
L 1478 4666 
L 3547 763 
L 3547 4666 
L 4159 4666 
L 4159 0 
L 3309 0 
L 1241 3903 
L 1241 0 
L 628 0 
L 628 4666 
z
" transform="scale(0.015625)"/>
       <path id="DejaVuSans-41" d="M 2188 4044 
L 1331 1722 
L 3047 1722 
L 2188 4044 
z
M 1831 4666 
L 2547 4666 
L 4325 0 
L 3669 0 
L 3244 1197 
L 1141 1197 
L 716 0 
L 50 0 
L 1831 4666 
z
" transform="scale(0.015625)"/>
       <path id="DejaVuSans-29" d="M 513 4856 
L 1013 4856 
Q 1481 4119 1714 3412 
Q 1947 2706 1947 2009 
Q 1947 1309 1714 600 
Q 1481 -109 1013 -844 
L 513 -844 
Q 928 -128 1133 580 
Q 1338 1288 1338 2009 
Q 1338 2731 1133 3434 
Q 928 4138 513 4856 
z
" transform="scale(0.015625)"/>
      </defs>
      <use xlink:href="#DejaVuSans-Oblique-71" transform="translate(0 0.125)"/>
      <use xlink:href="#DejaVuSans-20" transform="translate(63.476562 0.125)"/>
      <use xlink:href="#DejaVuSans-28" transform="translate(95.263672 0.125)"/>
      <use xlink:href="#DejaVuSans-4e" transform="translate(134.277344 0.125)"/>
      <use xlink:href="#DejaVuSans-41" transform="translate(209.082031 0.125)"/>
      <use xlink:href="#DejaVuSans-29" transform="translate(277.490234 0.125)"/>
     </g>
    </g>
   </g>
   <g id="matplotlib.axis_2">
    <g id="ytick_1">
     <g id="line2d_7">
      <defs>
       <path id="m94ff36d130" d="M 0 0 
L -3.5 0 
" style="stroke: #000000; stroke-width: 0.8"/>
      </defs>
      <g>
       <use xlink:href="#m94ff36d130" x="44.803125" y="277.111219" style="stroke: #000000; stroke-width: 0.8"/>
      </g>
     </g>
     <g id="text_8">
      <!-- 0.0 -->
      <g transform="translate(21.9 280.910437) scale(0.1 -0.1)">
       <use xlink:href="#DejaVuSans-30"/>
       <use xlink:href="#DejaVuSans-2e" transform="translate(63.623047 0)"/>
       <use xlink:href="#DejaVuSans-30" transform="translate(95.410156 0)"/>
      </g>
     </g>
    </g>
    <g id="ytick_2">
     <g id="line2d_8">
      <g>
       <use xlink:href="#m94ff36d130" x="44.803125" y="223.888819" style="stroke: #000000; stroke-width: 0.8"/>
      </g>
     </g>
     <g id="text_9">
      <!-- 0.2 -->
      <g transform="translate(21.9 227.688037) scale(0.1 -0.1)">
       <use xlink:href="#DejaVuSans-30"/>
       <use xlink:href="#DejaVuSans-2e" transform="translate(63.623047 0)"/>
       <use xlink:href="#DejaVuSans-32" transform="translate(95.410156 0)"/>
      </g>
     </g>
    </g>
    <g id="ytick_3">
     <g id="line2d_9">
      <g>
       <use xlink:href="#m94ff36d130" x="44.803125" y="170.666419" style="stroke: #000000; stroke-width: 0.8"/>
      </g>
     </g>
     <g id="text_10">
      <!-- 0.4 -->
      <g transform="translate(21.9 174.465637) scale(0.1 -0.1)">
       <use xlink:href="#DejaVuSans-30"/>
       <use xlink:href="#DejaVuSans-2e" transform="translate(63.623047 0)"/>
       <use xlink:href="#DejaVuSans-34" transform="translate(95.410156 0)"/>
      </g>
     </g>
    </g>
    <g id="ytick_4">
     <g id="line2d_10">
      <g>
       <use xlink:href="#m94ff36d130" x="44.803125" y="117.444019" style="stroke: #000000; stroke-width: 0.8"/>
      </g>
     </g>
     <g id="text_11">
      <!-- 0.6 -->
      <g transform="translate(21.9 121.243237) scale(0.1 -0.1)">
       <use xlink:href="#DejaVuSans-30"/>
       <use xlink:href="#DejaVuSans-2e" transform="translate(63.623047 0)"/>
       <use xlink:href="#DejaVuSans-36" transform="translate(95.410156 0)"/>
      </g>
     </g>
    </g>
    <g id="ytick_5">
     <g id="line2d_11">
      <g>
       <use xlink:href="#m94ff36d130" x="44.803125" y="64.221619" style="stroke: #000000; stroke-width: 0.8"/>
      </g>
     </g>
     <g id="text_12">
      <!-- 0.8 -->
      <g transform="translate(21.9 68.020837) scale(0.1 -0.1)">
       <use xlink:href="#DejaVuSans-30"/>
       <use xlink:href="#DejaVuSans-2e" transform="translate(63.623047 0)"/>
       <use xlink:href="#DejaVuSans-38" transform="translate(95.410156 0)"/>
      </g>
     </g>
    </g>
    <g id="ytick_6">
     <g id="line2d_12">
      <g>
       <use xlink:href="#m94ff36d130" x="44.803125" y="10.999219" style="stroke: #000000; stroke-width: 0.8"/>
      </g>
     </g>
     <g id="text_13">
      <!-- 1.0 -->
      <g transform="translate(21.9 14.798437) scale(0.1 -0.1)">
       <use xlink:href="#DejaVuSans-31"/>
       <use xlink:href="#DejaVuSans-2e" transform="translate(63.623047 0)"/>
       <use xlink:href="#DejaVuSans-30" transform="translate(95.410156 0)"/>
      </g>
     </g>
    </g>
    <g id="text_14">
     <!-- $h_{cyt}$ (NA) -->
     <g transform="translate(14.8 165.405219) rotate(-90) scale(0.1 -0.1)">
      <defs>
       <path id="DejaVuSans-Oblique-68" d="M 3566 2113 
L 3156 0 
L 2578 0 
L 2988 2091 
Q 3016 2238 3031 2350 
Q 3047 2463 3047 2528 
Q 3047 2791 2881 2937 
Q 2716 3084 2419 3084 
Q 1956 3084 1617 2771 
Q 1278 2459 1178 1941 
L 800 0 
L 225 0 
L 1172 4863 
L 1747 4863 
L 1375 2950 
Q 1594 3244 1934 3414 
Q 2275 3584 2650 3584 
Q 3113 3584 3367 3334 
Q 3622 3084 3622 2631 
Q 3622 2519 3608 2391 
Q 3594 2263 3566 2113 
z
" transform="scale(0.015625)"/>
       <path id="DejaVuSans-Oblique-63" d="M 3431 3366 
L 3316 2797 
Q 3109 2947 2876 3022 
Q 2644 3097 2394 3097 
Q 2119 3097 1870 3000 
Q 1622 2903 1453 2725 
Q 1184 2453 1037 2087 
Q 891 1722 891 1331 
Q 891 859 1127 628 
Q 1363 397 1844 397 
Q 2081 397 2348 469 
Q 2616 541 2906 684 
L 2797 116 
Q 2547 13 2283 -39 
Q 2019 -91 1741 -91 
Q 1044 -91 669 257 
Q 294 606 294 1253 
Q 294 1797 489 2255 
Q 684 2713 1069 3078 
Q 1331 3328 1684 3456 
Q 2038 3584 2456 3584 
Q 2700 3584 2940 3529 
Q 3181 3475 3431 3366 
z
" transform="scale(0.015625)"/>
       <path id="DejaVuSans-Oblique-79" d="M 1588 -325 
Q 1188 -997 936 -1164 
Q 684 -1331 294 -1331 
L -159 -1331 
L -63 -850 
L 269 -850 
Q 509 -850 678 -719 
Q 847 -588 1056 -206 
L 1234 128 
L 459 3500 
L 1069 3500 
L 1650 819 
L 3256 3500 
L 3859 3500 
L 1588 -325 
z
" transform="scale(0.015625)"/>
       <path id="DejaVuSans-Oblique-74" d="M 2706 3500 
L 2619 3053 
L 1472 3053 
L 1100 1153 
Q 1081 1047 1072 975 
Q 1063 903 1063 863 
Q 1063 663 1183 572 
Q 1303 481 1569 481 
L 2150 481 
L 2053 0 
L 1503 0 
Q 991 0 739 200 
Q 488 400 488 806 
Q 488 878 497 964 
Q 506 1050 525 1153 
L 897 3053 
L 409 3053 
L 500 3500 
L 978 3500 
L 1172 4494 
L 1747 4494 
L 1556 3500 
L 2706 3500 
z
" transform="scale(0.015625)"/>
      </defs>
      <use xlink:href="#DejaVuSans-Oblique-68" transform="translate(0 0.015625)"/>
      <use xlink:href="#DejaVuSans-Oblique-63" transform="translate(63.378906 -16.390625) scale(0.7)"/>
      <use xlink:href="#DejaVuSans-Oblique-79" transform="translate(101.865234 -16.390625) scale(0.7)"/>
      <use xlink:href="#DejaVuSans-Oblique-74" transform="translate(143.291016 -16.390625) scale(0.7)"/>
      <use xlink:href="#DejaVuSans-20" transform="translate(173.47168 0.015625)"/>
      <use xlink:href="#DejaVuSans-28" transform="translate(205.258789 0.015625)"/>
      <use xlink:href="#DejaVuSans-4e" transform="translate(244.272461 0.015625)"/>
      <use xlink:href="#DejaVuSans-41" transform="translate(319.077148 0.015625)"/>
      <use xlink:href="#DejaVuSans-29" transform="translate(387.485352 0.015625)"/>
     </g>
    </g>
   </g>
   <g id="line2d_13">
    <path d="M 44.806696 277.081949 
L 48.413933 250.231978 
L 52.02117 227.894193 
L 55.628406 209.019339 
L 59.235643 192.860079 
L 62.842879 178.869688 
L 66.450116 166.638974 
L 70.057353 155.855589 
L 73.664589 146.276977 
L 77.271826 137.711918 
L 80.879063 130.007621 
L 84.486299 123.040539 
L 88.093536 116.709688 
L 91.700773 110.931724 
L 95.308009 105.63725 
L 98.915246 100.768016 
L 102.522483 96.274768 
L 106.129719 92.115578 
L 109.736956 88.254526 
L 113.344193 84.660664 
L 116.951429 81.307186 
L 120.558666 78.170754 
L 124.165903 75.230957 
L 127.773139 72.469865 
L 131.380376 69.871664 
L 134.987613 67.422352 
L 138.594849 65.109488 
L 142.202086 62.921979 
L 145.809323 60.849902 
L 149.416559 58.884356 
L 153.023796 57.017331 
L 156.631032 55.241601 
L 160.238269 53.550628 
L 163.845506 51.938487 
L 167.452742 50.39979 
L 171.059979 48.929631 
L 174.667216 47.523529 
L 178.274452 46.177387 
L 181.881689 44.88745 
L 185.488926 43.650271 
L 189.096162 42.462676 
L 192.703399 41.321745 
L 196.310636 40.224779 
L 199.917872 39.169285 
L 203.525109 38.152956 
L 207.132346 37.17365 
L 210.739582 36.229382 
L 214.346819 35.318303 
L 217.954056 34.438695 
L 221.561292 33.588954 
L 225.168529 32.767584 
L 228.775766 31.973189 
L 232.383002 31.204459 
L 235.990239 30.460173 
L 239.597476 29.739181 
L 243.204712 29.040408 
L 246.811949 28.362841 
L 250.419186 27.70553 
L 254.026422 27.06758 
L 257.633659 26.448147 
L 261.240895 25.846438 
L 264.848132 25.261702 
L 268.455369 24.693231 
L 272.062605 24.140356 
L 275.669842 23.602443 
L 279.277079 23.078894 
L 282.884315 22.56914 
L 286.491552 22.072643 
L 290.098789 21.588894 
L 293.706025 21.117406 
L 297.313262 20.65772 
L 300.920499 20.209399 
L 304.527735 19.772025 
L 308.134972 19.345203 
L 311.742209 18.928556 
L 315.349445 18.521723 
L 318.956682 18.124362 
L 322.563919 17.736147 
L 326.171155 17.356765 
L 329.778392 16.985917 
L 333.385629 16.62332 
L 336.992865 16.2687 
L 340.600102 15.921798 
L 344.207339 15.582364 
L 347.814575 15.25016 
L 351.421812 14.924957 
L 355.029048 14.606535 
L 358.636285 14.294686 
L 362.243522 13.989208 
L 365.850758 13.689907 
L 369.457995 13.396598 
L 373.065232 13.109103 
L 376.672468 12.82725 
L 380.279705 12.550876 
L 383.886942 12.279821 
L 387.494178 12.013935 
L 391.101415 11.753069 
L 394.708652 11.497085 
L 398.315888 11.245845 
L 401.923125 10.999219 
" clip-path="url(#p3b62396aaf)" style="fill: none; stroke-dasharray: 1.5,2.475; stroke-dashoffset: 0; stroke: #000000; stroke-width: 1.5"/>
   </g>
   <g id="line2d_14">
    <path d="M 44.806696 277.103236 
L 48.413933 269.199309 
L 52.02117 261.602323 
L 55.628406 254.294737 
L 59.235643 247.260324 
L 62.842879 240.484048 
L 66.450116 233.951956 
L 70.057353 227.651082 
L 73.664589 221.569363 
L 77.271826 215.695561 
L 80.879063 210.019193 
L 84.486299 204.530468 
L 88.093536 199.220235 
L 91.700773 194.079925 
L 95.308009 189.10151 
L 98.915246 184.277462 
L 102.522483 179.600709 
L 106.129719 175.064608 
L 109.736956 170.662906 
L 113.344193 166.389719 
L 116.951429 162.239498 
L 120.558666 158.207012 
L 124.165903 154.28732 
L 127.773139 150.475755 
L 131.380376 146.767904 
L 134.987613 143.159591 
L 138.594849 139.646861 
L 142.202086 136.225964 
L 145.809323 132.893348 
L 149.416559 129.645637 
L 153.023796 126.479628 
L 156.631032 123.392276 
L 160.238269 120.380686 
L 163.845506 117.442103 
L 167.452742 114.573904 
L 171.059979 111.77359 
L 174.667216 109.038779 
L 178.274452 106.3672 
L 181.881689 103.756685 
L 185.488926 101.205163 
L 189.096162 98.710657 
L 192.703399 96.271278 
L 196.310636 93.885218 
L 199.917872 91.550747 
L 203.525109 89.266211 
L 207.132346 87.030024 
L 210.739582 84.840667 
L 214.346819 82.696685 
L 217.954056 80.596682 
L 221.561292 78.539317 
L 225.168529 76.523306 
L 228.775766 74.547414 
L 232.383002 72.610455 
L 235.990239 70.71129 
L 239.597476 68.848824 
L 243.204712 67.022002 
L 246.811949 65.229811 
L 250.419186 63.471276 
L 254.026422 61.745457 
L 257.633659 60.051451 
L 261.240895 58.388384 
L 264.848132 56.755418 
L 268.455369 55.151743 
L 272.062605 53.576577 
L 275.669842 52.029167 
L 279.277079 50.508785 
L 282.884315 49.01473 
L 286.491552 47.546324 
L 290.098789 46.102911 
L 293.706025 44.68386 
L 297.313262 43.288558 
L 300.920499 41.916414 
L 304.527735 40.566857 
L 308.134972 39.239334 
L 311.742209 37.933308 
L 315.349445 36.648262 
L 318.956682 35.383695 
L 322.563919 34.139121 
L 326.171155 32.914069 
L 329.778392 31.708084 
L 333.385629 30.520725 
L 336.992865 29.351562 
L 340.600102 28.20018 
L 344.207339 27.066178 
L 347.814575 25.949165 
L 351.421812 24.848761 
L 355.029048 23.764599 
L 358.636285 22.696322 
L 362.243522 21.643584 
L 365.850758 20.606047 
L 369.457995 19.583385 
L 373.065232 18.575281 
L 376.672468 17.581425 
L 380.279705 16.601518 
L 383.886942 15.635268 
L 387.494178 14.682392 
L 391.101415 13.742613 
L 394.708652 12.815665 
L 398.315888 11.901284 
L 401.923125 10.999219 
" clip-path="url(#p3b62396aaf)" style="fill: none; stroke-dasharray: 3,3; stroke-dashoffset: 0; stroke: #000000; stroke-width: 1.5"/>
   </g>
   <g id="line2d_15">
    <path d="M 44.806696 277.108558 
L 48.413933 274.420585 
L 52.02117 271.732611 
L 55.628406 269.044638 
L 59.235643 266.356665 
L 62.842879 263.668692 
L 66.450116 260.980719 
L 70.057353 258.292746 
L 73.664589 255.604773 
L 77.271826 252.9168 
L 80.879063 250.228826 
L 84.486299 247.540853 
L 88.093536 244.85288 
L 91.700773 242.164907 
L 95.308009 239.476934 
L 98.915246 236.788961 
L 102.522483 234.100988 
L 106.129719 231.413015 
L 109.736956 228.725041 
L 113.344193 226.037068 
L 116.951429 223.349095 
L 120.558666 220.661122 
L 124.165903 217.973149 
L 127.773139 215.285176 
L 131.380376 212.597203 
L 134.987613 209.90923 
L 138.594849 207.221257 
L 142.202086 204.533283 
L 145.809323 201.84531 
L 149.416559 199.157337 
L 153.023796 196.469364 
L 156.631032 193.781391 
L 160.238269 191.093418 
L 163.845506 188.405445 
L 167.452742 185.717472 
L 171.059979 183.029498 
L 174.667216 180.341525 
L 178.274452 177.653552 
L 181.881689 174.965579 
L 185.488926 172.277606 
L 189.096162 169.589633 
L 192.703399 166.90166 
L 196.310636 164.213687 
L 199.917872 161.525713 
L 203.525109 158.83774 
L 207.132346 156.149767 
L 210.739582 153.461794 
L 214.346819 150.773821 
L 217.954056 148.085848 
L 221.561292 145.397875 
L 225.168529 142.709902 
L 228.775766 140.021929 
L 232.383002 137.333955 
L 235.990239 134.645982 
L 239.597476 131.958009 
L 243.204712 129.270036 
L 246.811949 126.582063 
L 250.419186 123.89409 
L 254.026422 121.206117 
L 257.633659 118.518144 
L 261.240895 115.83017 
L 264.848132 113.142197 
L 268.455369 110.454224 
L 272.062605 107.766251 
L 275.669842 105.078278 
L 279.277079 102.390305 
L 282.884315 99.702332 
L 286.491552 97.014359 
L 290.098789 94.326385 
L 293.706025 91.638412 
L 297.313262 88.950439 
L 300.920499 86.262466 
L 304.527735 83.574493 
L 308.134972 80.88652 
L 311.742209 78.198547 
L 315.349445 75.510574 
L 318.956682 72.822601 
L 322.563919 70.134627 
L 326.171155 67.446654 
L 329.778392 64.758681 
L 333.385629 62.070708 
L 336.992865 59.382735 
L 340.600102 56.694762 
L 344.207339 54.006789 
L 347.814575 51.318816 
L 351.421812 48.630842 
L 355.029048 45.942869 
L 358.636285 43.254896 
L 362.243522 40.566923 
L 365.850758 37.87895 
L 369.457995 35.190977 
L 373.065232 32.503004 
L 376.672468 29.815031 
L 380.279705 27.127057 
L 383.886942 24.439084 
L 387.494178 21.751111 
L 391.101415 19.063138 
L 394.708652 16.375165 
L 398.315888 13.687192 
L 401.923125 10.999219 
" clip-path="url(#p3b62396aaf)" style="fill: none; stroke-dasharray: 6,3; stroke-dashoffset: 0; stroke: #000000; stroke-width: 1.5"/>
   </g>
   <g id="line2d_16">
    <path d="M 44.806696 277.109888 
L 48.413933 275.759066 
L 52.02117 274.39446 
L 55.628406 273.015858 
L 59.235643 271.623043 
L 62.842879 270.215796 
L 66.450116 268.793889 
L 70.057353 267.357094 
L 73.664589 265.905175 
L 77.271826 264.437891 
L 80.879063 262.954998 
L 84.486299 261.456246 
L 88.093536 259.941378 
L 91.700773 258.410133 
L 95.308009 256.862244 
L 98.915246 255.297438 
L 102.522483 253.715437 
L 106.129719 252.115955 
L 109.736956 250.498701 
L 113.344193 248.863378 
L 116.951429 247.20968 
L 120.558666 245.537297 
L 124.165903 243.845909 
L 127.773139 242.135191 
L 131.380376 240.40481 
L 134.987613 238.654425 
L 138.594849 236.883686 
L 142.202086 235.092237 
L 145.809323 233.279713 
L 149.416559 231.445738 
L 153.023796 229.589931 
L 156.631032 227.711898 
L 160.238269 225.811239 
L 163.845506 223.887541 
L 167.452742 221.940384 
L 171.059979 219.969336 
L 174.667216 217.973954 
L 178.274452 215.953785 
L 181.881689 213.908363 
L 185.488926 211.837214 
L 189.096162 209.739847 
L 192.703399 207.615762 
L 196.310636 205.464446 
L 199.917872 203.285371 
L 203.525109 201.077997 
L 207.132346 198.841768 
L 210.739582 196.576115 
L 214.346819 194.280454 
L 217.954056 191.954184 
L 221.561292 189.59669 
L 225.168529 187.207337 
L 228.775766 184.785477 
L 232.383002 182.330441 
L 235.990239 179.841542 
L 239.597476 177.318075 
L 243.204712 174.759316 
L 246.811949 172.164518 
L 250.419186 169.532914 
L 254.026422 166.863717 
L 257.633659 164.156114 
L 261.240895 161.40927 
L 264.848132 158.622327 
L 268.455369 155.7944 
L 272.062605 152.924578 
L 275.669842 150.011923 
L 279.277079 147.055469 
L 282.884315 144.054221 
L 286.491552 141.007152 
L 290.098789 137.913206 
L 293.706025 134.771292 
L 297.313262 131.580286 
L 300.920499 128.339028 
L 304.527735 125.046323 
L 308.134972 121.700934 
L 311.742209 118.301588 
L 315.349445 114.846968 
L 318.956682 111.335716 
L 322.563919 107.766427 
L 326.171155 104.13765 
L 329.778392 100.447886 
L 333.385629 96.695585 
L 336.992865 92.879141 
L 340.600102 88.996898 
L 344.207339 85.047138 
L 347.814575 81.028084 
L 351.421812 76.937898 
L 355.029048 72.774673 
L 358.636285 68.536435 
L 362.243522 64.22114 
L 365.850758 59.826665 
L 369.457995 55.350812 
L 373.065232 50.791299 
L 376.672468 46.145758 
L 380.279705 41.411732 
L 383.886942 36.586667 
L 387.494178 31.667913 
L 391.101415 26.652714 
L 394.708652 21.538205 
L 398.315888 16.321406 
L 401.923125 10.999219 
" clip-path="url(#p3b62396aaf)" style="fill: none; stroke-dasharray: 9,3; stroke-dashoffset: 0; stroke: #000000; stroke-width: 1.5"/>
   </g>
   <g id="line2d_17">
    <path d="M 44.806696 277.110953 
L 48.413933 276.839684 
L 52.02117 276.563393 
L 55.628406 276.281937 
L 59.235643 275.99517 
L 62.842879 275.702941 
L 66.450116 275.405093 
L 70.057353 275.101461 
L 73.664589 274.791875 
L 77.271826 274.47616 
L 80.879063 274.154129 
L 84.486299 273.825593 
L 88.093536 273.490353 
L 91.700773 273.1482 
L 95.308009 272.798919 
L 98.915246 272.442284 
L 102.522483 272.078062 
L 106.129719 271.706007 
L 109.736956 271.325864 
L 113.344193 270.937366 
L 116.951429 270.540235 
L 120.558666 270.134179 
L 124.165903 269.718895 
L 127.773139 269.294065 
L 131.380376 268.859354 
L 134.987613 268.414415 
L 138.594849 267.958882 
L 142.202086 267.492373 
L 145.809323 267.014485 
L 149.416559 266.524798 
L 153.023796 266.022868 
L 156.631032 265.508231 
L 160.238269 264.980399 
L 163.845506 264.438857 
L 167.452742 263.883063 
L 171.059979 263.312449 
L 174.667216 262.726412 
L 178.274452 262.12432 
L 181.881689 261.505503 
L 185.488926 260.869254 
L 189.096162 260.214827 
L 192.703399 259.541431 
L 196.310636 258.84823 
L 199.917872 258.134335 
L 203.525109 257.398808 
L 207.132346 256.640649 
L 210.739582 255.858798 
L 214.346819 255.052126 
L 217.954056 254.219432 
L 221.561292 253.359437 
L 225.168529 252.470776 
L 228.775766 251.551991 
L 232.383002 250.601523 
L 235.990239 249.617706 
L 239.597476 248.598752 
L 243.204712 247.542746 
L 246.811949 246.447628 
L 250.419186 245.311185 
L 254.026422 244.131033 
L 257.633659 242.904601 
L 261.240895 241.629111 
L 264.848132 240.301561 
L 268.455369 238.918696 
L 272.062605 237.476987 
L 275.669842 235.972594 
L 279.277079 234.401339 
L 282.884315 232.758664 
L 286.491552 231.039586 
L 290.098789 229.238647 
L 293.706025 227.349858 
L 297.313262 225.366629 
L 300.920499 223.281697 
L 304.527735 221.087032 
L 308.134972 218.773736 
L 311.742209 216.331925 
L 315.349445 213.750582 
L 318.956682 211.017395 
L 322.563919 208.118562 
L 326.171155 205.038552 
L 329.778392 201.759832 
L 333.385629 198.262532 
L 336.992865 194.52404 
L 340.600102 190.518513 
L 344.207339 186.216283 
L 347.814575 181.583112 
L 351.421812 176.57929 
L 355.029048 171.158485 
L 358.636285 165.266307 
L 362.243522 158.83848 
L 365.850758 151.798481 
L 369.457995 144.054487 
L 373.065232 135.49534 
L 376.672468 125.985183 
L 380.279705 115.356191 
L 383.886942 103.398583 
L 387.494178 89.846641 
L 391.101415 74.358721 
L 394.708652 56.488065 
L 398.315888 35.638993 
L 401.923125 10.999219 
" clip-path="url(#p3b62396aaf)" style="fill: none; stroke: #000000; stroke-width: 1.5; stroke-linecap: square"/>
   </g>
   <g id="patch_3">
    <path d="M 44.803125 277.111219 
L 44.803125 10.999219 
" style="fill: none; stroke: #000000; stroke-width: 0.8; stroke-linejoin: miter; stroke-linecap: square"/>
   </g>
   <g id="patch_4">
    <path d="M 401.923125 277.111219 
L 401.923125 10.999219 
" style="fill: none; stroke: #000000; stroke-width: 0.8; stroke-linejoin: miter; stroke-linecap: square"/>
   </g>
   <g id="patch_5">
    <path d="M 44.803125 277.111219 
L 401.923125 277.111219 
" style="fill: none; stroke: #000000; stroke-width: 0.8; stroke-linejoin: miter; stroke-linecap: square"/>
   </g>
   <g id="patch_6">
    <path d="M 44.803125 10.999219 
L 401.923125 10.999219 
" style="fill: none; stroke: #000000; stroke-width: 0.8; stroke-linejoin: miter; stroke-linecap: square"/>
   </g>
   <g id="text_15">
    <!-- $a_q = 10$ -->
    <g transform="translate(80.327125 78.207186) scale(0.1 -0.1)">
     <defs>
      <path id="DejaVuSans-Oblique-61" d="M 3438 1997 
L 3047 0 
L 2472 0 
L 2578 531 
Q 2325 219 2001 64 
Q 1678 -91 1281 -91 
Q 834 -91 548 182 
Q 263 456 263 884 
Q 263 1497 752 1853 
Q 1241 2209 2100 2209 
L 2900 2209 
L 2931 2363 
Q 2938 2388 2941 2417 
Q 2944 2447 2944 2509 
Q 2944 2788 2717 2942 
Q 2491 3097 2081 3097 
Q 1800 3097 1504 3025 
Q 1209 2953 897 2809 
L 997 3341 
Q 1322 3463 1633 3523 
Q 1944 3584 2234 3584 
Q 2853 3584 3176 3315 
Q 3500 3047 3500 2534 
Q 3500 2431 3484 2292 
Q 3469 2153 3438 1997 
z
M 2816 1759 
L 2241 1759 
Q 1534 1759 1195 1570 
Q 856 1381 856 984 
Q 856 709 1029 553 
Q 1203 397 1509 397 
Q 1978 397 2328 733 
Q 2678 1069 2791 1631 
L 2816 1759 
z
" transform="scale(0.015625)"/>
      <path id="DejaVuSans-3d" d="M 678 2906 
L 4684 2906 
L 4684 2381 
L 678 2381 
L 678 2906 
z
M 678 1631 
L 4684 1631 
L 4684 1100 
L 678 1100 
L 678 1631 
z
" transform="scale(0.015625)"/>
     </defs>
     <use xlink:href="#DejaVuSans-Oblique-61" transform="translate(0 0.78125)"/>
     <use xlink:href="#DejaVuSans-Oblique-71" transform="translate(61.279297 -15.625) scale(0.7)"/>
     <use xlink:href="#DejaVuSans-3d" transform="translate(127.929688 0.78125)"/>
     <use xlink:href="#DejaVuSans-31" transform="translate(231.201172 0.78125)"/>
     <use xlink:href="#DejaVuSans-30" transform="translate(294.824219 0.78125)"/>
    </g>
   </g>
   <g id="text_16">
    <!-- $a_q = 2$ -->
    <g transform="translate(122.439125 123.379628) scale(0.1 -0.1)">
     <use xlink:href="#DejaVuSans-Oblique-61" transform="translate(0 0.78125)"/>
     <use xlink:href="#DejaVuSans-Oblique-71" transform="translate(61.279297 -15.625) scale(0.7)"/>
     <use xlink:href="#DejaVuSans-3d" transform="translate(127.929688 0.78125)"/>
     <use xlink:href="#DejaVuSans-32" transform="translate(231.201172 0.78125)"/>
    </g>
   </g>
   <g id="text_17">
    <!-- $a_q = 0$ -->
    <g transform="translate(158.151125 166.489633) scale(0.1 -0.1)">
     <use xlink:href="#DejaVuSans-Oblique-61" transform="translate(0 0.78125)"/>
     <use xlink:href="#DejaVuSans-Oblique-71" transform="translate(61.279297 -15.625) scale(0.7)"/>
     <use xlink:href="#DejaVuSans-3d" transform="translate(127.929688 0.78125)"/>
     <use xlink:href="#DejaVuSans-30" transform="translate(231.201172 0.78125)"/>
    </g>
   </g>
   <g id="text_18">
    <!-- $a_q = -0.5$ -->
    <g transform="translate(223.363125 197.09669) scale(0.1 -0.1)">
     <defs>
      <path id="DejaVuSans-2212" d="M 678 2272 
L 4684 2272 
L 4684 1741 
L 678 1741 
L 678 2272 
z
" transform="scale(0.015625)"/>
      <path id="DejaVuSans-35" d="M 691 4666 
L 3169 4666 
L 3169 4134 
L 1269 4134 
L 1269 2991 
Q 1406 3038 1543 3061 
Q 1681 3084 1819 3084 
Q 2600 3084 3056 2656 
Q 3513 2228 3513 1497 
Q 3513 744 3044 326 
Q 2575 -91 1722 -91 
Q 1428 -91 1123 -41 
Q 819 9 494 109 
L 494 744 
Q 775 591 1075 516 
Q 1375 441 1709 441 
Q 2250 441 2565 725 
Q 2881 1009 2881 1497 
Q 2881 1984 2565 2268 
Q 2250 2553 1709 2553 
Q 1456 2553 1204 2497 
Q 953 2441 691 2322 
L 691 4666 
z
" transform="scale(0.015625)"/>
     </defs>
     <use xlink:href="#DejaVuSans-Oblique-61" transform="translate(0 0.78125)"/>
     <use xlink:href="#DejaVuSans-Oblique-71" transform="translate(61.279297 -15.625) scale(0.7)"/>
     <use xlink:href="#DejaVuSans-3d" transform="translate(127.929688 0.78125)"/>
     <use xlink:href="#DejaVuSans-2212" transform="translate(231.201172 0.78125)"/>
     <use xlink:href="#DejaVuSans-30" transform="translate(314.990234 0.78125)"/>
     <use xlink:href="#DejaVuSans-2e" transform="translate(378.613281 0.78125)"/>
     <use xlink:href="#DejaVuSans-35" transform="translate(410.400391 0.78125)"/>
    </g>
   </g>
   <g id="text_19">
    <!-- $a_q = -0.9$ -->
    <g transform="translate(259.075125 250.404601) scale(0.1 -0.1)">
     <defs>
      <path id="DejaVuSans-39" d="M 703 97 
L 703 672 
Q 941 559 1184 500 
Q 1428 441 1663 441 
Q 2288 441 2617 861 
Q 2947 1281 2994 2138 
Q 2813 1869 2534 1725 
Q 2256 1581 1919 1581 
Q 1219 1581 811 2004 
Q 403 2428 403 3163 
Q 403 3881 828 4315 
Q 1253 4750 1959 4750 
Q 2769 4750 3195 4129 
Q 3622 3509 3622 2328 
Q 3622 1225 3098 567 
Q 2575 -91 1691 -91 
Q 1453 -91 1209 -44 
Q 966 3 703 97 
z
M 1959 2075 
Q 2384 2075 2632 2365 
Q 2881 2656 2881 3163 
Q 2881 3666 2632 3958 
Q 2384 4250 1959 4250 
Q 1534 4250 1286 3958 
Q 1038 3666 1038 3163 
Q 1038 2656 1286 2365 
Q 1534 2075 1959 2075 
z
" transform="scale(0.015625)"/>
     </defs>
     <use xlink:href="#DejaVuSans-Oblique-61" transform="translate(0 0.78125)"/>
     <use xlink:href="#DejaVuSans-Oblique-71" transform="translate(61.279297 -15.625) scale(0.7)"/>
     <use xlink:href="#DejaVuSans-3d" transform="translate(127.929688 0.78125)"/>
     <use xlink:href="#DejaVuSans-2212" transform="translate(231.201172 0.78125)"/>
     <use xlink:href="#DejaVuSans-30" transform="translate(314.990234 0.78125)"/>
     <use xlink:href="#DejaVuSans-2e" transform="translate(378.613281 0.78125)"/>
     <use xlink:href="#DejaVuSans-39" transform="translate(410.400391 0.78125)"/>
    </g>
   </g>
  </g>
 </g>
 <defs>
  <clipPath id="p3b62396aaf">
   <rect x="44.803125" y="10.999219" width="357.12" height="266.112"/>
  </clipPath>
 </defs>
</svg>
