<?xml version="1.0" encoding="utf-8" standalone="no"?>
<!DOCTYPE svg PUBLIC "-//W3C//DTD SVG 1.1//EN"
  "http://www.w3.org/Graphics/SVG/1.1/DTD/svg11.dtd">
<svg xmlns:xlink="http://www.w3.org/1999/xlink" width="576pt" height="288pt" viewBox="0 0 576 288" xmlns="http://www.w3.org/2000/svg" version="1.1">
 <metadata>
  <rdf:RDF xmlns:dc="http://purl.org/dc/elements/1.1/" xmlns:cc="http://creativecommons.org/ns#" xmlns:rdf="http://www.w3.org/1999/02/22-rdf-syntax-ns#">
   <cc:Work>
    <dc:type rdf:resource="http://purl.org/dc/dcmitype/StillImage"/>
    <dc:date>2026-07-20T10:18:44.067703</dc:date>
    <dc:format>image/svg+xml</dc:format>
    <dc:creator>
     <cc:Agent>
      <dc:title>Matplotlib v3.10.8, https://matplotlib.org/</dc:title>
     </cc:Agent>
    </dc:creator>
   </cc:Work>
  </rdf:RDF>
 </metadata>
 <defs>
  <style type="text/css">*{stroke-linejoin: round; stroke-linecap: butt}</style>
 </defs>
 <g id="figure_1">
  <g id="patch_1">
   <path d="M 0 288 
L 576 288 
L 576 0 
L 0 0 
z
" style="fill: #ffffff"/>
  </g>
  <g id="axes_1">
   <g id="patch_2">
    <path d="M 54.902 246.04 
L 191.088 246.04 
L 191.088 10.8 
L 54.902 10.8 
z
" style="fill: #ffffff"/>
   </g>
   <g id="matplotlib.axis_1">
    <g id="xtick_1">
     <g id="line2d_1">
      <defs>
       <path id="mb8a6b1d55f" d="M 0 0 
L 0 3.5 
" style="stroke: #000000; stroke-width: 0.8"/>
      </defs>
      <g>
       <use xlink:href="#mb8a6b1d55f" x="65.837529" y="246.04" style="stroke: #000000; stroke-width: 0.8"/>
      </g>
     </g>
     <g id="text_1">
      <!-- 0 -->
      <g transform="translate(62.656279 260.638438) scale(0.1 -0.1)">
       <defs>
        <path id="DejaVuSans-30" d="M 2034 4250 
Q 1547 4250 1301 3770 
Q 1056 3291 1056 2328 
Q 1056 1369 1301 889 
Q 1547 409 2034 409 
Q 2525 409 2770 889 
Q 3016 1369 3016 2328 
Q 3016 3291 2770 3770 
Q 2525 4250 2034 4250 
z
M 2034 4750 
Q 2819 4750 3233 4129 
Q 3647 3509 3647 2328 
Q 3647 1150 3233 529 
Q 2819 -91 2034 -91 
Q 1250 -91 836 529 
Q 422 1150 422 2328 
Q 422 3509 836 4129 
Q 1250 4750 2034 4750 
z
" transform="scale(0.015625)"/>
       </defs>
       <use xlink:href="#DejaVuSans-30"/>
      </g>
     </g>
    </g>
    <g id="xtick_2">
     <g id="line2d_2">
      <g>
       <use xlink:href="#mb8a6b1d55f" x="113.480666" y="246.04" style="stroke: #000000; stroke-width: 0.8"/>
      </g>
     </g>
     <g id="text_2">
      <!-- 10 -->
      <g transform="translate(107.118166 260.638438) scale(0.1 -0.1)">
       <defs>
        <path id="DejaVuSans-31" d="M 794 531 
L 1825 531 
L 1825 4091 
L 703 3866 
L 703 4441 
L 1819 4666 
L 2450 4666 
L 2450 531 
L 3481 531 
L 3481 0 
L 794 0 
L 794 531 
z
" transform="scale(0.015625)"/>
       </defs>
       <use xlink:href="#DejaVuSans-31"/>
       <use xlink:href="#DejaVuSans-30" transform="translate(63.623047 0)"/>
      </g>
     </g>
    </g>
    <g id="xtick_3">
     <g id="line2d_3">
      <g>
       <use xlink:href="#mb8a6b1d55f" x="161.123802" y="246.04" style="stroke: #000000; stroke-width: 0.8"/>
      </g>
     </g>
     <g id="text_3">
      <!-- 20 -->
      <g transform="translate(154.761302 260.638438) scale(0.1 -0.1)">
       <defs>
        <path id="DejaVuSans-32" d="M 1228 531 
L 3431 531 
L 3431 0 
L 469 0 
L 469 531 
Q 828 903 1448 1529 
Q 2069 2156 2228 2338 
Q 2531 2678 2651 2914 
Q 2772 3150 2772 3378 
Q 2772 3750 2511 3984 
Q 2250 4219 1831 4219 
Q 1534 4219 1204 4116 
Q 875 4013 500 3803 
L 500 4441 
Q 881 4594 1212 4672 
Q 1544 4750 1819 4750 
Q 2544 4750 2975 4387 
Q 3406 4025 3406 3419 
Q 3406 3131 3298 2873 
Q 3191 2616 2906 2266 
Q 2828 2175 2409 1742 
Q 1991 1309 1228 531 
z
" transform="scale(0.015625)"/>
       </defs>
       <use xlink:href="#DejaVuSans-32"/>
       <use xlink:href="#DejaVuSans-30" transform="translate(63.623047 0)"/>
      </g>
     </g>
    </g>
    <g id="text_4">
     <!--  Time s() -->
     <g transform="translate(101.077031 274.316562) scale(0.1 -0.1)">
      <defs>
       <path id="DejaVuSans-20" transform="scale(0.015625)"/>
       <path id="DejaVuSans-54" d="M -19 4666 
L 3928 4666 
L 3928 4134 
L 2272 4134 
L 2272 0 
L 1638 0 
L 1638 4134 
L -19 4134 
L -19 4666 
z
" transform="scale(0.015625)"/>
       <path id="DejaVuSans-69" d="M 603 3500 
L 1178 3500 
L 1178 0 
L 603 0 
L 603 3500 
z
M 603 4863 
L 1178 4863 
L 1178 4134 
L 603 4134 
L 603 4863 
z
" transform="scale(0.015625)"/>
       <path id="DejaVuSans-6d" d="M 3328 2828 
Q 3544 3216 3844 3400 
Q 4144 3584 4550 3584 
Q 5097 3584 5394 3201 
Q 5691 2819 5691 2113 
L 5691 0 
L 5113 0 
L 5113 2094 
Q 5113 2597 4934 2840 
Q 4756 3084 4391 3084 
Q 3944 3084 3684 2787 
Q 3425 2491 3425 1978 
L 3425 0 
L 2847 0 
L 2847 2094 
Q 2847 2600 2669 2842 
Q 2491 3084 2119 3084 
Q 1678 3084 1418 2786 
Q 1159 2488 1159 1978 
L 1159 0 
L 581 0 
L 581 3500 
L 1159 3500 
L 1159 2956 
Q 1356 3278 1631 3431 
Q 1906 3584 2284 3584 
Q 2666 3584 2933 3390 
Q 3200 3197 3328 2828 
z
" transform="scale(0.015625)"/>
       <path id="DejaVuSans-65" d="M 3597 1894 
L 3597 1613 
L 953 1613 
Q 991 1019 1311 708 
Q 1631 397 2203 397 
Q 2534 397 2845 478 
Q 3156 559 3463 722 
L 3463 178 
Q 3153 47 2828 -22 
Q 2503 -91 2169 -91 
Q 1331 -91 842 396 
Q 353 884 353 1716 
Q 353 2575 817 3079 
Q 1281 3584 2069 3584 
Q 2775 3584 3186 3129 
Q 3597 2675 3597 1894 
z
M 3022 2063 
Q 3016 2534 2758 2815 
Q 2500 3097 2075 3097 
Q 1594 3097 1305 2825 
Q 1016 2553 972 2059 
L 3022 2063 
z
" transform="scale(0.015625)"/>
       <path id="DejaVuSans-73" d="M 2834 3397 
L 2834 2853 
Q 2591 2978 2328 3040 
Q 2066 3103 1784 3103 
Q 1356 3103 1142 2972 
Q 928 2841 928 2578 
Q 928 2378 1081 2264 
Q 1234 2150 1697 2047 
L 1894 2003 
Q 2506 1872 2764 1633 
Q 3022 1394 3022 966 
Q 3022 478 2636 193 
Q 2250 -91 1575 -91 
Q 1294 -91 989 -36 
Q 684 19 347 128 
L 347 722 
Q 666 556 975 473 
Q 1284 391 1588 391 
Q 1994 391 2212 530 
Q 2431 669 2431 922 
Q 2431 1156 2273 1281 
Q 2116 1406 1581 1522 
L 1381 1569 
Q 847 1681 609 1914 
Q 372 2147 372 2553 
Q 372 3047 722 3315 
Q 1072 3584 1716 3584 
Q 2034 3584 2315 3537 
Q 2597 3491 2834 3397 
z
" transform="scale(0.015625)"/>
       <path id="DejaVuSans-28" d="M 1984 4856 
Q 1566 4138 1362 3434 
Q 1159 2731 1159 2009 
Q 1159 1288 1364 580 
Q 1569 -128 1984 -844 
L 1484 -844 
Q 1016 -109 783 600 
Q 550 1309 550 2009 
Q 550 2706 781 3412 
Q 1013 4119 1484 4856 
L 1984 4856 
z
" transform="scale(0.015625)"/>
       <path id="DejaVuSans-29" d="M 513 4856 
L 1013 4856 
Q 1481 4119 1714 3412 
Q 1947 2706 1947 2009 
Q 1947 1309 1714 600 
Q 1481 -109 1013 -844 
L 513 -844 
Q 928 -128 1133 580 
Q 1338 1288 1338 2009 
Q 1338 2731 1133 3434 
Q 928 4138 513 4856 
z
" transform="scale(0.015625)"/>
      </defs>
      <use xlink:href="#DejaVuSans-20"/>
      <use xlink:href="#DejaVuSans-54" transform="translate(31.787109 0)"/>
      <use xlink:href="#DejaVuSans-69" transform="translate(89.746094 0)"/>
      <use xlink:href="#DejaVuSans-6d" transform="translate(117.529297 0)"/>
      <use xlink:href="#DejaVuSans-65" transform="translate(214.941406 0)"/>
      <use xlink:href="#DejaVuSans-20" transform="translate(276.464844 0)"/>
      <use xlink:href="#DejaVuSans-73" transform="translate(308.251953 0)"/>
      <use xlink:href="#DejaVuSans-28" transform="translate(360.351562 0)"/>
      <use xlink:href="#DejaVuSans-29" transform="translate(399.365234 0)"/>
     </g>
    </g>
   </g>
   <g id="matplotlib.axis_2">
    <g id="ytick_1">
     <g id="line2d_4">
      <defs>
       <path id="mbb856b362f" d="M 0 0 
L -3.5 0 
" style="stroke: #000000; stroke-width: 0.8"/>
      </defs>
      <g>
       <use xlink:href="#mbb856b362f" x="54.902" y="235.307379" style="stroke: #000000; stroke-width: 0.8"/>
      </g>
     </g>
     <g id="text_5">
      <!-- 0 -->
      <g transform="translate(41.5395 239.106597) scale(0.1 -0.1)">
       <use xlink:href="#DejaVuSans-30"/>
      </g>
     </g>
    </g>
    <g id="ytick_2">
     <g id="line2d_5">
      <g>
       <use xlink:href="#mbb856b362f" x="54.902" y="187.846373" style="stroke: #000000; stroke-width: 0.8"/>
      </g>
     </g>
     <g id="text_6">
      <!-- 100 -->
      <g transform="translate(28.8145 191.645592) scale(0.1 -0.1)">
       <use xlink:href="#DejaVuSans-31"/>
       <use xlink:href="#DejaVuSans-30" transform="translate(63.623047 0)"/>
       <use xlink:href="#DejaVuSans-30" transform="translate(127.246094 0)"/>
      </g>
     </g>
    </g>
    <g id="ytick_3">
     <g id="line2d_6">
      <g>
       <use xlink:href="#mbb856b362f" x="54.902" y="140.385367" style="stroke: #000000; stroke-width: 0.8"/>
      </g>
     </g>
     <g id="text_7">
      <!-- 200 -->
      <g transform="translate(28.8145 144.184586) scale(0.1 -0.1)">
       <use xlink:href="#DejaVuSans-32"/>
       <use xlink:href="#DejaVuSans-30" transform="translate(63.623047 0)"/>
       <use xlink:href="#DejaVuSans-30" transform="translate(127.246094 0)"/>
      </g>
     </g>
    </g>
    <g id="ytick_4">
     <g id="line2d_7">
      <g>
       <use xlink:href="#mbb856b362f" x="54.902" y="92.924362" style="stroke: #000000; stroke-width: 0.8"/>
      </g>
     </g>
     <g id="text_8">
      <!-- 300 -->
      <g transform="translate(28.8145 96.723581) scale(0.1 -0.1)">
       <defs>
        <path id="DejaVuSans-33" d="M 2597 2516 
Q 3050 2419 3304 2112 
Q 3559 1806 3559 1356 
Q 3559 666 3084 287 
Q 2609 -91 1734 -91 
Q 1441 -91 1130 -33 
Q 819 25 488 141 
L 488 750 
Q 750 597 1062 519 
Q 1375 441 1716 441 
Q 2309 441 2620 675 
Q 2931 909 2931 1356 
Q 2931 1769 2642 2001 
Q 2353 2234 1838 2234 
L 1294 2234 
L 1294 2753 
L 1863 2753 
Q 2328 2753 2575 2939 
Q 2822 3125 2822 3475 
Q 2822 3834 2567 4026 
Q 2313 4219 1838 4219 
Q 1578 4219 1281 4162 
Q 984 4106 628 3988 
L 628 4550 
Q 988 4650 1302 4700 
Q 1616 4750 1894 4750 
Q 2613 4750 3031 4423 
Q 3450 4097 3450 3541 
Q 3450 3153 3228 2886 
Q 3006 2619 2597 2516 
z
" transform="scale(0.015625)"/>
       </defs>
       <use xlink:href="#DejaVuSans-33"/>
       <use xlink:href="#DejaVuSans-30" transform="translate(63.623047 0)"/>
       <use xlink:href="#DejaVuSans-30" transform="translate(127.246094 0)"/>
      </g>
     </g>
    </g>
    <g id="ytick_5">
     <g id="line2d_8">
      <g>
       <use xlink:href="#mbb856b362f" x="54.902" y="45.463356" style="stroke: #000000; stroke-width: 0.8"/>
      </g>
     </g>
     <g id="text_9">
      <!-- 400 -->
      <g transform="translate(28.8145 49.262575) scale(0.1 -0.1)">
       <defs>
        <path id="DejaVuSans-34" d="M 2419 4116 
L 825 1625 
L 2419 1625 
L 2419 4116 
z
M 2253 4666 
L 3047 4666 
L 3047 1625 
L 3713 1625 
L 3713 1100 
L 3047 1100 
L 3047 0 
L 2419 0 
L 2419 1100 
L 313 1100 
L 313 1709 
L 2253 4666 
z
" transform="scale(0.015625)"/>
       </defs>
       <use xlink:href="#DejaVuSans-34"/>
       <use xlink:href="#DejaVuSans-30" transform="translate(63.623047 0)"/>
       <use xlink:href="#DejaVuSans-30" transform="translate(127.246094 0)"/>
      </g>
     </g>
    </g>
    <g id="text_10">
     <!-- K+ flux (mol mol$^{-1}$  PSII s$^{-1}$ ) -->
     <g transform="translate(22.734813 201.27) rotate(-90) scale(0.1 -0.1)">
      <defs>
       <path id="DejaVuSans-4b" d="M 628 4666 
L 1259 4666 
L 1259 2694 
L 3353 4666 
L 4166 4666 
L 1850 2491 
L 4331 0 
L 3500 0 
L 1259 2247 
L 1259 0 
L 628 0 
L 628 4666 
z
" transform="scale(0.015625)"/>
       <path id="DejaVuSans-2b" d="M 2944 4013 
L 2944 2272 
L 4684 2272 
L 4684 1741 
L 2944 1741 
L 2944 0 
L 2419 0 
L 2419 1741 
L 678 1741 
L 678 2272 
L 2419 2272 
L 2419 4013 
L 2944 4013 
z
" transform="scale(0.015625)"/>
       <path id="DejaVuSans-66" d="M 2375 4863 
L 2375 4384 
L 1825 4384 
Q 1516 4384 1395 4259 
Q 1275 4134 1275 3809 
L 1275 3500 
L 2222 3500 
L 2222 3053 
L 1275 3053 
L 1275 0 
L 697 0 
L 697 3053 
L 147 3053 
L 147 3500 
L 697 3500 
L 697 3744 
Q 697 4328 969 4595 
Q 1241 4863 1831 4863 
L 2375 4863 
z
" transform="scale(0.015625)"/>
       <path id="DejaVuSans-6c" d="M 603 4863 
L 1178 4863 
L 1178 0 
L 603 0 
L 603 4863 
z
" transform="scale(0.015625)"/>
       <path id="DejaVuSans-75" d="M 544 1381 
L 544 3500 
L 1119 3500 
L 1119 1403 
Q 1119 906 1312 657 
Q 1506 409 1894 409 
Q 2359 409 2629 706 
Q 2900 1003 2900 1516 
L 2900 3500 
L 3475 3500 
L 3475 0 
L 2900 0 
L 2900 538 
Q 2691 219 2414 64 
Q 2138 -91 1772 -91 
Q 1169 -91 856 284 
Q 544 659 544 1381 
z
M 1991 3584 
L 1991 3584 
z
" transform="scale(0.015625)"/>
       <path id="DejaVuSans-78" d="M 3513 3500 
L 2247 1797 
L 3578 0 
L 2900 0 
L 1881 1375 
L 863 0 
L 184 0 
L 1544 1831 
L 300 3500 
L 978 3500 
L 1906 2253 
L 2834 3500 
L 3513 3500 
z
" transform="scale(0.015625)"/>
       <path id="DejaVuSans-6f" d="M 1959 3097 
Q 1497 3097 1228 2736 
Q 959 2375 959 1747 
Q 959 1119 1226 758 
Q 1494 397 1959 397 
Q 2419 397 2687 759 
Q 2956 1122 2956 1747 
Q 2956 2369 2687 2733 
Q 2419 3097 1959 3097 
z
M 1959 3584 
Q 2709 3584 3137 3096 
Q 3566 2609 3566 1747 
Q 3566 888 3137 398 
Q 2709 -91 1959 -91 
Q 1206 -91 779 398 
Q 353 888 353 1747 
Q 353 2609 779 3096 
Q 1206 3584 1959 3584 
z
" transform="scale(0.015625)"/>
       <path id="DejaVuSans-2212" d="M 678 2272 
L 4684 2272 
L 4684 1741 
L 678 1741 
L 678 2272 
z
" transform="scale(0.015625)"/>
       <path id="DejaVuSans-50" d="M 1259 4147 
L 1259 2394 
L 2053 2394 
Q 2494 2394 2734 2622 
Q 2975 2850 2975 3272 
Q 2975 3691 2734 3919 
Q 2494 4147 2053 4147 
L 1259 4147 
z
M 628 4666 
L 2053 4666 
Q 2838 4666 3239 4311 
Q 3641 3956 3641 3272 
Q 3641 2581 3239 2228 
Q 2838 1875 2053 1875 
L 1259 1875 
L 1259 0 
L 628 0 
L 628 4666 
z
" transform="scale(0.015625)"/>
       <path id="DejaVuSans-53" d="M 3425 4513 
L 3425 3897 
Q 3066 4069 2747 4153 
Q 2428 4238 2131 4238 
Q 1616 4238 1336 4038 
Q 1056 3838 1056 3469 
Q 1056 3159 1242 3001 
Q 1428 2844 1947 2747 
L 2328 2669 
Q 3034 2534 3370 2195 
Q 3706 1856 3706 1288 
Q 3706 609 3251 259 
Q 2797 -91 1919 -91 
Q 1588 -91 1214 -16 
Q 841 59 441 206 
L 441 856 
Q 825 641 1194 531 
Q 1563 422 1919 422 
Q 2459 422 2753 634 
Q 3047 847 3047 1241 
Q 3047 1584 2836 1778 
Q 2625 1972 2144 2069 
L 1759 2144 
Q 1053 2284 737 2584 
Q 422 2884 422 3419 
Q 422 4038 858 4394 
Q 1294 4750 2059 4750 
Q 2388 4750 2728 4690 
Q 3069 4631 3425 4513 
z
" transform="scale(0.015625)"/>
       <path id="DejaVuSans-49" d="M 628 4666 
L 1259 4666 
L 1259 0 
L 628 0 
L 628 4666 
z
" transform="scale(0.015625)"/>
      </defs>
      <use xlink:href="#DejaVuSans-4b" transform="translate(0 0.684375)"/>
      <use xlink:href="#DejaVuSans-2b" transform="translate(65.576172 0.684375)"/>
      <use xlink:href="#DejaVuSans-20" transform="translate(149.365234 0.684375)"/>
      <use xlink:href="#DejaVuSans-66" transform="translate(181.152344 0.684375)"/>
      <use xlink:href="#DejaVuSans-6c" transform="translate(216.357422 0.684375)"/>
      <use xlink:href="#DejaVuSans-75" transform="translate(244.140625 0.684375)"/>
      <use xlink:href="#DejaVuSans-78" transform="translate(307.519531 0.684375)"/>
      <use xlink:href="#DejaVuSans-20" transform="translate(366.699219 0.684375)"/>
      <use xlink:href="#DejaVuSans-28" transform="translate(398.486328 0.684375)"/>
      <use xlink:href="#DejaVuSans-6d" transform="translate(437.5 0.684375)"/>
      <use xlink:href="#DejaVuSans-6f" transform="translate(534.912109 0.684375)"/>
      <use xlink:href="#DejaVuSans-6c" transform="translate(596.09375 0.684375)"/>
      <use xlink:href="#DejaVuSans-20" transform="translate(623.876953 0.684375)"/>
      <use xlink:href="#DejaVuSans-6d" transform="translate(655.664062 0.684375)"/>
      <use xlink:href="#DejaVuSans-6f" transform="translate(753.076172 0.684375)"/>
      <use xlink:href="#DejaVuSans-6c" transform="translate(814.257812 0.684375)"/>
      <use xlink:href="#DejaVuSans-2212" transform="translate(842.998047 38.965625) scale(0.7)"/>
      <use xlink:href="#DejaVuSans-31" transform="translate(901.650391 38.965625) scale(0.7)"/>
      <use xlink:href="#DejaVuSans-20" transform="translate(948.920898 0.684375)"/>
      <use xlink:href="#DejaVuSans-20" transform="translate(980.708008 0.684375)"/>
      <use xlink:href="#DejaVuSans-50" transform="translate(1012.495117 0.684375)"/>
      <use xlink:href="#DejaVuSans-53" transform="translate(1072.797852 0.684375)"/>
      <use xlink:href="#DejaVuSans-49" transform="translate(1136.274414 0.684375)"/>
      <use xlink:href="#DejaVuSans-49" transform="translate(1165.766602 0.684375)"/>
      <use xlink:href="#DejaVuSans-20" transform="translate(1195.258789 0.684375)"/>
      <use xlink:href="#DejaVuSans-73" transform="translate(1227.045898 0.684375)"/>
      <use xlink:href="#DejaVuSans-2212" transform="translate(1280.102539 38.965625) scale(0.7)"/>
      <use xlink:href="#DejaVuSans-31" transform="translate(1338.754883 38.965625) scale(0.7)"/>
      <use xlink:href="#DejaVuSans-20" transform="translate(1386.025391 0.684375)"/>
      <use xlink:href="#DejaVuSans-29" transform="translate(1417.8125 0.684375)"/>
     </g>
    </g>
   </g>
   <g id="line2d_9">
    <path d="M 61.092273 235.307379 
L 184.897727 235.307379 
L 184.897727 235.307379 
" clip-path="url(#p76d4d397e4)" style="fill: none; stroke: #ff0000; stroke-width: 1.5; stroke-linecap: square"/>
   </g>
   <g id="line2d_10">
    <path d="M 61.092273 235.307373 
L 65.837529 235.307373 
L 65.980459 227.00733 
L 66.266317 225.317672 
L 66.409247 225.29969 
L 66.980964 225.690273 
L 68.267329 225.749739 
L 122.294646 227.148733 
L 183.897221 228.516652 
L 184.897727 228.537199 
L 184.897727 228.537199 
" clip-path="url(#p76d4d397e4)" style="fill: none; stroke: #ffa500; stroke-width: 1.5; stroke-linecap: square"/>
   </g>
   <g id="line2d_11">
    <path d="M 61.092273 235.307369 
L 65.837529 235.307369 
L 65.980459 171.259337 
L 66.266317 159.136083 
L 66.409247 159.267165 
L 66.838035 164.53175 
L 67.123894 165.170458 
L 69.553694 168.518453 
L 73.698647 173.914246 
L 77.986529 179.125552 
L 82.274411 183.988202 
L 86.705223 188.672464 
L 91.136035 193.033295 
L 95.566846 197.090254 
L 100.140587 200.977089 
L 104.714329 204.573735 
L 109.28807 207.89359 
L 114.00474 211.039169 
L 118.721411 213.912469 
L 123.438081 216.521867 
L 128.154752 218.874966 
L 132.871422 220.980082 
L 137.731022 222.900843 
L 142.590622 224.584866 
L 147.736081 226.130981 
L 153.167398 227.526397 
L 159.027504 228.795054 
L 165.316398 229.925167 
L 172.319939 230.951694 
L 180.038127 231.855638 
L 184.897727 232.325365 
L 184.897727 232.325365 
" clip-path="url(#p76d4d397e4)" style="fill: none; stroke: #008000; stroke-width: 1.5; stroke-linecap: square"/>
   </g>
   <g id="line2d_12">
    <path d="M 61.092273 235.307369 
L 65.837529 235.307369 
L 65.980459 50.234984 
L 66.266317 21.492727 
L 66.409247 22.986901 
L 66.695106 41.593879 
L 66.980964 45.352545 
L 70.268341 73.531678 
L 73.555717 99.967579 
L 76.557235 122.357903 
L 79.272894 140.930065 
L 81.702694 156.014661 
L 83.989564 168.790407 
L 86.133505 179.476786 
L 88.134517 188.324854 
L 89.992599 195.591259 
L 91.850682 201.981641 
L 93.708764 207.546172 
L 95.423917 212.001184 
L 97.13907 215.855398 
L 98.854223 219.163841 
L 100.569376 221.98264 
L 102.284529 224.367338 
L 103.999681 226.371451 
L 105.714834 228.045329 
L 107.572917 229.539725 
L 109.430999 230.753999 
L 111.432011 231.80186 
L 113.575952 232.681024 
L 116.005752 233.436273 
L 118.721411 234.048542 
L 122.008787 234.552181 
L 126.010811 234.928282 
L 131.299199 235.185684 
L 139.160316 235.322639 
L 156.168916 235.338873 
L 184.897727 235.31194 
L 184.897727 235.31194 
" clip-path="url(#p76d4d397e4)" style="fill: none; stroke: #0000ff; stroke-width: 1.5; stroke-linecap: square"/>
   </g>
   <g id="patch_3">
    <path d="M 54.902 246.04 
L 54.902 10.8 
" style="fill: none; stroke: #000000; stroke-width: 0.8; stroke-linejoin: miter; stroke-linecap: square"/>
   </g>
   <g id="patch_4">
    <path d="M 191.088 246.04 
L 191.088 10.8 
" style="fill: none; stroke: #000000; stroke-width: 0.8; stroke-linejoin: miter; stroke-linecap: square"/>
   </g>
   <g id="patch_5">
    <path d="M 54.902 246.04 
L 191.088 246.04 
" style="fill: none; stroke: #000000; stroke-width: 0.8; stroke-linejoin: miter; stroke-linecap: square"/>
   </g>
   <g id="patch_6">
    <path d="M 54.902 10.8 
L 191.088 10.8 
" style="fill: none; stroke: #000000; stroke-width: 0.8; stroke-linejoin: miter; stroke-linecap: square"/>
   </g>
  </g>
  <g id="axes_2">
   <g id="patch_7">
    <path d="M 241.958 246.04 
L 378.144 246.04 
L 378.144 10.8 
L 241.958 10.8 
z
" style="fill: #ffffff"/>
   </g>
   <g id="matplotlib.axis_3">
    <g id="xtick_4">
     <g id="line2d_13">
      <g>
       <use xlink:href="#mb8a6b1d55f" x="252.893529" y="246.04" style="stroke: #000000; stroke-width: 0.8"/>
      </g>
     </g>
     <g id="text_11">
      <!-- 0 -->
      <g transform="translate(249.712279 260.638438) scale(0.1 -0.1)">
       <use xlink:href="#DejaVuSans-30"/>
      </g>
     </g>
    </g>
    <g id="xtick_5">
     <g id="line2d_14">
      <g>
       <use xlink:href="#mb8a6b1d55f" x="300.536666" y="246.04" style="stroke: #000000; stroke-width: 0.8"/>
      </g>
     </g>
     <g id="text_12">
      <!-- 10 -->
      <g transform="translate(294.174166 260.638438) scale(0.1 -0.1)">
       <use xlink:href="#DejaVuSans-31"/>
       <use xlink:href="#DejaVuSans-30" transform="translate(63.623047 0)"/>
      </g>
     </g>
    </g>
    <g id="xtick_6">
     <g id="line2d_15">
      <g>
       <use xlink:href="#mb8a6b1d55f" x="348.179802" y="246.04" style="stroke: #000000; stroke-width: 0.8"/>
      </g>
     </g>
     <g id="text_13">
      <!-- 20 -->
      <g transform="translate(341.817302 260.638438) scale(0.1 -0.1)">
       <use xlink:href="#DejaVuSans-32"/>
       <use xlink:href="#DejaVuSans-30" transform="translate(63.623047 0)"/>
      </g>
     </g>
    </g>
    <g id="text_14">
     <!--  Time s() -->
     <g transform="translate(288.133031 274.316562) scale(0.1 -0.1)">
      <use xlink:href="#DejaVuSans-20"/>
      <use xlink:href="#DejaVuSans-54" transform="translate(31.787109 0)"/>
      <use xlink:href="#DejaVuSans-69" transform="translate(89.746094 0)"/>
      <use xlink:href="#DejaVuSans-6d" transform="translate(117.529297 0)"/>
      <use xlink:href="#DejaVuSans-65" transform="translate(214.941406 0)"/>
      <use xlink:href="#DejaVuSans-20" transform="translate(276.464844 0)"/>
      <use xlink:href="#DejaVuSans-73" transform="translate(308.251953 0)"/>
      <use xlink:href="#DejaVuSans-28" transform="translate(360.351562 0)"/>
      <use xlink:href="#DejaVuSans-29" transform="translate(399.365234 0)"/>
     </g>
    </g>
   </g>
   <g id="matplotlib.axis_4">
    <g id="ytick_6">
     <g id="line2d_16">
      <g>
       <use xlink:href="#mbb856b362f" x="241.958" y="233.658947" style="stroke: #000000; stroke-width: 0.8"/>
      </g>
     </g>
     <g id="text_15">
      <!-- 0 -->
      <g transform="translate(228.5955 237.458166) scale(0.1 -0.1)">
       <use xlink:href="#DejaVuSans-30"/>
      </g>
     </g>
    </g>
    <g id="ytick_7">
     <g id="line2d_17">
      <g>
       <use xlink:href="#mbb856b362f" x="241.958" y="184.134737" style="stroke: #000000; stroke-width: 0.8"/>
      </g>
     </g>
     <g id="text_16">
      <!-- 100 -->
      <g transform="translate(215.8705 187.933956) scale(0.1 -0.1)">
       <use xlink:href="#DejaVuSans-31"/>
       <use xlink:href="#DejaVuSans-30" transform="translate(63.623047 0)"/>
       <use xlink:href="#DejaVuSans-30" transform="translate(127.246094 0)"/>
      </g>
     </g>
    </g>
    <g id="ytick_8">
     <g id="line2d_18">
      <g>
       <use xlink:href="#mbb856b362f" x="241.958" y="134.610526" style="stroke: #000000; stroke-width: 0.8"/>
      </g>
     </g>
     <g id="text_17">
      <!-- 200 -->
      <g transform="translate(215.8705 138.409745) scale(0.1 -0.1)">
       <use xlink:href="#DejaVuSans-32"/>
       <use xlink:href="#DejaVuSans-30" transform="translate(63.623047 0)"/>
       <use xlink:href="#DejaVuSans-30" transform="translate(127.246094 0)"/>
      </g>
     </g>
    </g>
    <g id="ytick_9">
     <g id="line2d_19">
      <g>
       <use xlink:href="#mbb856b362f" x="241.958" y="85.086316" style="stroke: #000000; stroke-width: 0.8"/>
      </g>
     </g>
     <g id="text_18">
      <!-- 300 -->
      <g transform="translate(215.8705 88.885535) scale(0.1 -0.1)">
       <use xlink:href="#DejaVuSans-33"/>
       <use xlink:href="#DejaVuSans-30" transform="translate(63.623047 0)"/>
       <use xlink:href="#DejaVuSans-30" transform="translate(127.246094 0)"/>
      </g>
     </g>
    </g>
    <g id="ytick_10">
     <g id="line2d_20">
      <g>
       <use xlink:href="#mbb856b362f" x="241.958" y="35.562105" style="stroke: #000000; stroke-width: 0.8"/>
      </g>
     </g>
     <g id="text_19">
      <!-- 400 -->
      <g transform="translate(215.8705 39.361324) scale(0.1 -0.1)">
       <use xlink:href="#DejaVuSans-34"/>
       <use xlink:href="#DejaVuSans-30" transform="translate(63.623047 0)"/>
       <use xlink:href="#DejaVuSans-30" transform="translate(127.246094 0)"/>
      </g>
     </g>
    </g>
    <g id="text_20">
     <!-- proton deficit (fraction) -->
     <g transform="translate(209.790813 186.569219) rotate(-90) scale(0.1 -0.1)">
      <defs>
       <path id="DejaVuSans-70" d="M 1159 525 
L 1159 -1331 
L 581 -1331 
L 581 3500 
L 1159 3500 
L 1159 2969 
Q 1341 3281 1617 3432 
Q 1894 3584 2278 3584 
Q 2916 3584 3314 3078 
Q 3713 2572 3713 1747 
Q 3713 922 3314 415 
Q 2916 -91 2278 -91 
Q 1894 -91 1617 61 
Q 1341 213 1159 525 
z
M 3116 1747 
Q 3116 2381 2855 2742 
Q 2594 3103 2138 3103 
Q 1681 3103 1420 2742 
Q 1159 2381 1159 1747 
Q 1159 1113 1420 752 
Q 1681 391 2138 391 
Q 2594 391 2855 752 
Q 3116 1113 3116 1747 
z
" transform="scale(0.015625)"/>
       <path id="DejaVuSans-72" d="M 2631 2963 
Q 2534 3019 2420 3045 
Q 2306 3072 2169 3072 
Q 1681 3072 1420 2755 
Q 1159 2438 1159 1844 
L 1159 0 
L 581 0 
L 581 3500 
L 1159 3500 
L 1159 2956 
Q 1341 3275 1631 3429 
Q 1922 3584 2338 3584 
Q 2397 3584 2469 3576 
Q 2541 3569 2628 3553 
L 2631 2963 
z
" transform="scale(0.015625)"/>
       <path id="DejaVuSans-74" d="M 1172 4494 
L 1172 3500 
L 2356 3500 
L 2356 3053 
L 1172 3053 
L 1172 1153 
Q 1172 725 1289 603 
Q 1406 481 1766 481 
L 2356 481 
L 2356 0 
L 1766 0 
Q 1100 0 847 248 
Q 594 497 594 1153 
L 594 3053 
L 172 3053 
L 172 3500 
L 594 3500 
L 594 4494 
L 1172 4494 
z
" transform="scale(0.015625)"/>
       <path id="DejaVuSans-6e" d="M 3513 2113 
L 3513 0 
L 2938 0 
L 2938 2094 
Q 2938 2591 2744 2837 
Q 2550 3084 2163 3084 
Q 1697 3084 1428 2787 
Q 1159 2491 1159 1978 
L 1159 0 
L 581 0 
L 581 3500 
L 1159 3500 
L 1159 2956 
Q 1366 3272 1645 3428 
Q 1925 3584 2291 3584 
Q 2894 3584 3203 3211 
Q 3513 2838 3513 2113 
z
" transform="scale(0.015625)"/>
       <path id="DejaVuSans-64" d="M 2906 2969 
L 2906 4863 
L 3481 4863 
L 3481 0 
L 2906 0 
L 2906 525 
Q 2725 213 2448 61 
Q 2172 -91 1784 -91 
Q 1150 -91 751 415 
Q 353 922 353 1747 
Q 353 2572 751 3078 
Q 1150 3584 1784 3584 
Q 2172 3584 2448 3432 
Q 2725 3281 2906 2969 
z
M 947 1747 
Q 947 1113 1208 752 
Q 1469 391 1925 391 
Q 2381 391 2643 752 
Q 2906 1113 2906 1747 
Q 2906 2381 2643 2742 
Q 2381 3103 1925 3103 
Q 1469 3103 1208 2742 
Q 947 2381 947 1747 
z
" transform="scale(0.015625)"/>
       <path id="DejaVuSans-63" d="M 3122 3366 
L 3122 2828 
Q 2878 2963 2633 3030 
Q 2388 3097 2138 3097 
Q 1578 3097 1268 2742 
Q 959 2388 959 1747 
Q 959 1106 1268 751 
Q 1578 397 2138 397 
Q 2388 397 2633 464 
Q 2878 531 3122 666 
L 3122 134 
Q 2881 22 2623 -34 
Q 2366 -91 2075 -91 
Q 1284 -91 818 406 
Q 353 903 353 1747 
Q 353 2603 823 3093 
Q 1294 3584 2113 3584 
Q 2378 3584 2631 3529 
Q 2884 3475 3122 3366 
z
" transform="scale(0.015625)"/>
       <path id="DejaVuSans-61" d="M 2194 1759 
Q 1497 1759 1228 1600 
Q 959 1441 959 1056 
Q 959 750 1161 570 
Q 1363 391 1709 391 
Q 2188 391 2477 730 
Q 2766 1069 2766 1631 
L 2766 1759 
L 2194 1759 
z
M 3341 1997 
L 3341 0 
L 2766 0 
L 2766 531 
Q 2569 213 2275 61 
Q 1981 -91 1556 -91 
Q 1019 -91 701 211 
Q 384 513 384 1019 
Q 384 1609 779 1909 
Q 1175 2209 1959 2209 
L 2766 2209 
L 2766 2266 
Q 2766 2663 2505 2880 
Q 2244 3097 1772 3097 
Q 1472 3097 1187 3025 
Q 903 2953 641 2809 
L 641 3341 
Q 956 3463 1253 3523 
Q 1550 3584 1831 3584 
Q 2591 3584 2966 3190 
Q 3341 2797 3341 1997 
z
" transform="scale(0.015625)"/>
      </defs>
      <use xlink:href="#DejaVuSans-70"/>
      <use xlink:href="#DejaVuSans-72" transform="translate(63.476562 0)"/>
      <use xlink:href="#DejaVuSans-6f" transform="translate(102.339844 0)"/>
      <use xlink:href="#DejaVuSans-74" transform="translate(163.521484 0)"/>
      <use xlink:href="#DejaVuSans-6f" transform="translate(202.730469 0)"/>
      <use xlink:href="#DejaVuSans-6e" transform="translate(263.912109 0)"/>
      <use xlink:href="#DejaVuSans-20" transform="translate(327.291016 0)"/>
      <use xlink:href="#DejaVuSans-64" transform="translate(359.078125 0)"/>
      <use xlink:href="#DejaVuSans-65" transform="translate(422.554688 0)"/>
      <use xlink:href="#DejaVuSans-66" transform="translate(484.078125 0)"/>
      <use xlink:href="#DejaVuSans-69" transform="translate(519.283203 0)"/>
      <use xlink:href="#DejaVuSans-63" transform="translate(547.066406 0)"/>
      <use xlink:href="#DejaVuSans-69" transform="translate(602.046875 0)"/>
      <use xlink:href="#DejaVuSans-74" transform="translate(629.830078 0)"/>
      <use xlink:href="#DejaVuSans-20" transform="translate(669.039062 0)"/>
      <use xlink:href="#DejaVuSans-28" transform="translate(700.826172 0)"/>
      <use xlink:href="#DejaVuSans-66" transform="translate(739.839844 0)"/>
      <use xlink:href="#DejaVuSans-72" transform="translate(775.044922 0)"/>
      <use xlink:href="#DejaVuSans-61" transform="translate(816.158203 0)"/>
      <use xlink:href="#DejaVuSans-63" transform="translate(877.4375 0)"/>
      <use xlink:href="#DejaVuSans-74" transform="translate(932.417969 0)"/>
      <use xlink:href="#DejaVuSans-69" transform="translate(971.626953 0)"/>
      <use xlink:href="#DejaVuSans-6f" transform="translate(999.410156 0)"/>
      <use xlink:href="#DejaVuSans-6e" transform="translate(1060.591797 0)"/>
      <use xlink:href="#DejaVuSans-29" transform="translate(1123.970703 0)"/>
     </g>
    </g>
   </g>
   <g id="line2d_21">
    <path d="M 248.148273 233.658914 
L 252.893529 233.658914 
L 253.036459 239.525011 
L 253.179388 286.895543 
L 253.608176 249.288695 
L 253.894035 237.396277 
L 254.179894 234.257466 
L 254.465753 233.717931 
L 254.894541 233.625484 
L 259.611211 233.619691 
L 371.953727 233.619712 
L 371.953727 233.619712 
" clip-path="url(#p2236996d0a)" style="fill: none; stroke: #ff0000; stroke-width: 1.5; stroke-linecap: square"/>
   </g>
   <g id="line2d_22">
    <path d="M 248.148273 233.65893 
L 252.893529 233.65893 
L 253.036459 248.13332 
L 253.179388 277.461191 
L 253.608176 239.115766 
L 253.894035 226.616054 
L 254.179894 223.455458 
L 254.465753 222.98479 
L 255.03747 222.929938 
L 279.33547 223.661149 
L 333.219857 225.118237 
L 371.953727 226.046435 
L 371.953727 226.046435 
" clip-path="url(#p2236996d0a)" style="fill: none; stroke: #ffa500; stroke-width: 1.5; stroke-linecap: square"/>
   </g>
   <g id="line2d_23">
    <path d="M 248.148273 233.658903 
L 252.893529 233.658903 
L 253.036459 198.110173 
L 253.179388 212.559222 
L 253.465247 179.697943 
L 253.894035 156.485865 
L 254.036964 155.23628 
L 254.179894 155.14533 
L 254.751611 155.962917 
L 258.753635 161.982349 
L 262.898588 167.81383 
L 267.043541 173.265641 
L 271.331423 178.534011 
L 275.619305 183.449544 
L 279.907188 188.034049 
L 284.337999 192.443773 
L 288.768811 196.538592 
L 293.199623 200.334355 
L 297.630434 203.844645 
L 302.061246 207.08086 
L 306.634987 210.143894 
L 311.208728 212.933324 
L 315.782469 215.456758 
L 320.35621 217.722407 
L 324.929952 219.740637 
L 329.646622 221.577174 
L 334.506222 223.228886 
L 339.651681 224.737569 
L 345.082998 226.094137 
L 350.943104 227.324658 
L 357.374927 228.442149 
L 364.521398 229.450308 
L 371.953727 230.289931 
L 371.953727 230.289931 
" clip-path="url(#p2236996d0a)" style="fill: none; stroke: #008000; stroke-width: 1.5; stroke-linecap: square"/>
   </g>
   <g id="line2d_24">
    <path d="M 248.148273 233.658903 
L 252.893529 233.658903 
L 253.179388 72.760087 
L 253.465247 29.233102 
L 253.751106 19.137045 
L 253.894035 19.054625 
L 254.894541 28.692899 
L 258.467776 62.3461 
L 261.755153 91.213316 
L 264.613741 114.397658 
L 267.18647 133.489168 
L 269.473341 148.895265 
L 271.617282 161.923658 
L 273.618294 172.822863 
L 275.619305 182.513253 
L 277.477388 190.459061 
L 279.33547 197.436974 
L 281.050623 203.068902 
L 282.765776 207.978447 
L 284.480929 212.223915 
L 286.196082 215.866701 
L 287.911234 218.969248 
L 289.626387 221.593214 
L 291.34154 223.797887 
L 293.056693 225.638954 
L 294.771846 227.167639 
L 296.629928 228.524744 
L 298.63094 229.696403 
L 300.774881 230.679954 
L 303.061752 231.482443 
L 305.634481 232.149919 
L 308.635999 232.694951 
L 312.209234 233.11435 
L 316.782975 233.418963 
L 323.214799 233.606736 
L 334.363293 233.673945 
L 371.953727 233.636234 
L 371.953727 233.636234 
" clip-path="url(#p2236996d0a)" style="fill: none; stroke: #0000ff; stroke-width: 1.5; stroke-linecap: square"/>
   </g>
   <g id="patch_8">
    <path d="M 241.958 246.04 
L 241.958 10.8 
" style="fill: none; stroke: #000000; stroke-width: 0.8; stroke-linejoin: miter; stroke-linecap: square"/>
   </g>
   <g id="patch_9">
    <path d="M 378.144 246.04 
L 378.144 10.8 
" style="fill: none; stroke: #000000; stroke-width: 0.8; stroke-linejoin: miter; stroke-linecap: square"/>
   </g>
   <g id="patch_10">
    <path d="M 241.958 246.04 
L 378.144 246.04 
" style="fill: none; stroke: #000000; stroke-width: 0.8; stroke-linejoin: miter; stroke-linecap: square"/>
   </g>
   <g id="patch_11">
    <path d="M 241.958 10.8 
L 378.144 10.8 
" style="fill: none; stroke: #000000; stroke-width: 0.8; stroke-linejoin: miter; stroke-linecap: square"/>
   </g>
   <g id="legend_1">
    <g id="patch_12">
     <path d="M 292.440875 77.5125 
L 371.144 77.5125 
Q 373.144 77.5125 373.144 75.5125 
L 373.144 17.8 
Q 373.144 15.8 371.144 15.8 
L 292.440875 15.8 
Q 290.440875 15.8 290.440875 17.8 
L 290.440875 75.5125 
Q 290.440875 77.5125 292.440875 77.5125 
z
" style="fill: #ffffff; opacity: 0.8; stroke: #cccccc; stroke-linejoin: miter"/>
    </g>
    <g id="line2d_25">
     <path d="M 294.440875 23.898438 
L 304.440875 23.898438 
L 314.440875 23.898438 
" style="fill: none; stroke: #ff0000; stroke-width: 1.5; stroke-linecap: square"/>
    </g>
    <g id="text_21">
     <!-- P = 0X -->
     <g transform="translate(322.440875 27.398438) scale(0.1 -0.1)">
      <defs>
       <path id="DejaVuSans-3d" d="M 678 2906 
L 4684 2906 
L 4684 2381 
L 678 2381 
L 678 2906 
z
M 678 1631 
L 4684 1631 
L 4684 1100 
L 678 1100 
L 678 1631 
z
" transform="scale(0.015625)"/>
       <path id="DejaVuSans-58" d="M 403 4666 
L 1081 4666 
L 2241 2931 
L 3406 4666 
L 4084 4666 
L 2584 2425 
L 4184 0 
L 3506 0 
L 2194 1984 
L 872 0 
L 191 0 
L 1856 2491 
L 403 4666 
z
" transform="scale(0.015625)"/>
      </defs>
      <use xlink:href="#DejaVuSans-50"/>
      <use xlink:href="#DejaVuSans-20" transform="translate(60.302734 0)"/>
      <use xlink:href="#DejaVuSans-3d" transform="translate(92.089844 0)"/>
      <use xlink:href="#DejaVuSans-20" transform="translate(175.878906 0)"/>
      <use xlink:href="#DejaVuSans-30" transform="translate(207.666016 0)"/>
      <use xlink:href="#DejaVuSans-58" transform="translate(271.289062 0)"/>
     </g>
    </g>
    <g id="line2d_26">
     <path d="M 294.440875 38.576562 
L 304.440875 38.576562 
L 314.440875 38.576562 
" style="fill: none; stroke: #ffa500; stroke-width: 1.5; stroke-linecap: square"/>
    </g>
    <g id="text_22">
     <!-- P = 1X -->
     <g transform="translate(322.440875 42.076562) scale(0.1 -0.1)">
      <use xlink:href="#DejaVuSans-50"/>
      <use xlink:href="#DejaVuSans-20" transform="translate(60.302734 0)"/>
      <use xlink:href="#DejaVuSans-3d" transform="translate(92.089844 0)"/>
      <use xlink:href="#DejaVuSans-20" transform="translate(175.878906 0)"/>
      <use xlink:href="#DejaVuSans-31" transform="translate(207.666016 0)"/>
      <use xlink:href="#DejaVuSans-58" transform="translate(271.289062 0)"/>
     </g>
    </g>
    <g id="line2d_27">
     <path d="M 294.440875 53.254687 
L 304.440875 53.254687 
L 314.440875 53.254687 
" style="fill: none; stroke: #008000; stroke-width: 1.5; stroke-linecap: square"/>
    </g>
    <g id="text_23">
     <!-- P = 10X -->
     <g transform="translate(322.440875 56.754687) scale(0.1 -0.1)">
      <use xlink:href="#DejaVuSans-50"/>
      <use xlink:href="#DejaVuSans-20" transform="translate(60.302734 0)"/>
      <use xlink:href="#DejaVuSans-3d" transform="translate(92.089844 0)"/>
      <use xlink:href="#DejaVuSans-20" transform="translate(175.878906 0)"/>
      <use xlink:href="#DejaVuSans-31" transform="translate(207.666016 0)"/>
      <use xlink:href="#DejaVuSans-30" transform="translate(271.289062 0)"/>
      <use xlink:href="#DejaVuSans-58" transform="translate(334.912109 0)"/>
     </g>
    </g>
    <g id="line2d_28">
     <path d="M 294.440875 67.932813 
L 304.440875 67.932813 
L 314.440875 67.932813 
" style="fill: none; stroke: #0000ff; stroke-width: 1.5; stroke-linecap: square"/>
    </g>
    <g id="text_24">
     <!-- P = 100X -->
     <g transform="translate(322.440875 71.432813) scale(0.1 -0.1)">
      <use xlink:href="#DejaVuSans-50"/>
      <use xlink:href="#DejaVuSans-20" transform="translate(60.302734 0)"/>
      <use xlink:href="#DejaVuSans-3d" transform="translate(92.089844 0)"/>
      <use xlink:href="#DejaVuSans-20" transform="translate(175.878906 0)"/>
      <use xlink:href="#DejaVuSans-31" transform="translate(207.666016 0)"/>
      <use xlink:href="#DejaVuSans-30" transform="translate(271.289062 0)"/>
      <use xlink:href="#DejaVuSans-30" transform="translate(334.912109 0)"/>
      <use xlink:href="#DejaVuSans-58" transform="translate(398.535156 0)"/>
     </g>
    </g>
   </g>
  </g>
  <g id="axes_3">
   <g id="patch_13">
    <path d="M 429.014 246.04 
L 565.2 246.04 
L 565.2 10.8 
L 429.014 10.8 
z
" style="fill: #ffffff"/>
   </g>
   <g id="matplotlib.axis_5">
    <g id="xtick_7">
     <g id="line2d_29">
      <g>
       <use xlink:href="#mb8a6b1d55f" x="439.949529" y="246.04" style="stroke: #000000; stroke-width: 0.8"/>
      </g>
     </g>
     <g id="text_25">
      <!-- 0 -->
      <g transform="translate(436.768279 260.638438) scale(0.1 -0.1)">
       <use xlink:href="#DejaVuSans-30"/>
      </g>
     </g>
    </g>
    <g id="xtick_8">
     <g id="line2d_30">
      <g>
       <use xlink:href="#mb8a6b1d55f" x="487.592666" y="246.04" style="stroke: #000000; stroke-width: 0.8"/>
      </g>
     </g>
     <g id="text_26">
      <!-- 10 -->
      <g transform="translate(481.230166 260.638438) scale(0.1 -0.1)">
       <use xlink:href="#DejaVuSans-31"/>
       <use xlink:href="#DejaVuSans-30" transform="translate(63.623047 0)"/>
      </g>
     </g>
    </g>
    <g id="xtick_9">
     <g id="line2d_31">
      <g>
       <use xlink:href="#mb8a6b1d55f" x="535.235802" y="246.04" style="stroke: #000000; stroke-width: 0.8"/>
      </g>
     </g>
     <g id="text_27">
      <!-- 20 -->
      <g transform="translate(528.873302 260.638438) scale(0.1 -0.1)">
       <use xlink:href="#DejaVuSans-32"/>
       <use xlink:href="#DejaVuSans-30" transform="translate(63.623047 0)"/>
      </g>
     </g>
    </g>
    <g id="text_28">
     <!--  Time s() -->
     <g transform="translate(475.189031 274.316562) scale(0.1 -0.1)">
      <use xlink:href="#DejaVuSans-20"/>
      <use xlink:href="#DejaVuSans-54" transform="translate(31.787109 0)"/>
      <use xlink:href="#DejaVuSans-69" transform="translate(89.746094 0)"/>
      <use xlink:href="#DejaVuSans-6d" transform="translate(117.529297 0)"/>
      <use xlink:href="#DejaVuSans-65" transform="translate(214.941406 0)"/>
      <use xlink:href="#DejaVuSans-20" transform="translate(276.464844 0)"/>
      <use xlink:href="#DejaVuSans-73" transform="translate(308.251953 0)"/>
      <use xlink:href="#DejaVuSans-28" transform="translate(360.351562 0)"/>
      <use xlink:href="#DejaVuSans-29" transform="translate(399.365234 0)"/>
     </g>
    </g>
   </g>
   <g id="matplotlib.axis_6">
    <g id="ytick_11">
     <g id="line2d_32">
      <g>
       <use xlink:href="#mbb856b362f" x="429.014" y="233.959416" style="stroke: #000000; stroke-width: 0.8"/>
      </g>
     </g>
     <g id="text_29">
      <!-- 0 -->
      <g transform="translate(415.6515 237.758635) scale(0.1 -0.1)">
       <use xlink:href="#DejaVuSans-30"/>
      </g>
     </g>
    </g>
    <g id="ytick_12">
     <g id="line2d_33">
      <g>
       <use xlink:href="#mbb856b362f" x="429.014" y="203.885396" style="stroke: #000000; stroke-width: 0.8"/>
      </g>
     </g>
     <g id="text_30">
      <!-- 20 -->
      <g transform="translate(409.289 207.684614) scale(0.1 -0.1)">
       <use xlink:href="#DejaVuSans-32"/>
       <use xlink:href="#DejaVuSans-30" transform="translate(63.623047 0)"/>
      </g>
     </g>
    </g>
    <g id="ytick_13">
     <g id="line2d_34">
      <g>
       <use xlink:href="#mbb856b362f" x="429.014" y="173.811375" style="stroke: #000000; stroke-width: 0.8"/>
      </g>
     </g>
     <g id="text_31">
      <!-- 40 -->
      <g transform="translate(409.289 177.610594) scale(0.1 -0.1)">
       <use xlink:href="#DejaVuSans-34"/>
       <use xlink:href="#DejaVuSans-30" transform="translate(63.623047 0)"/>
      </g>
     </g>
    </g>
    <g id="ytick_14">
     <g id="line2d_35">
      <g>
       <use xlink:href="#mbb856b362f" x="429.014" y="143.737355" style="stroke: #000000; stroke-width: 0.8"/>
      </g>
     </g>
     <g id="text_32">
      <!-- 60 -->
      <g transform="translate(409.289 147.536574) scale(0.1 -0.1)">
       <defs>
        <path id="DejaVuSans-36" d="M 2113 2584 
Q 1688 2584 1439 2293 
Q 1191 2003 1191 1497 
Q 1191 994 1439 701 
Q 1688 409 2113 409 
Q 2538 409 2786 701 
Q 3034 994 3034 1497 
Q 3034 2003 2786 2293 
Q 2538 2584 2113 2584 
z
M 3366 4563 
L 3366 3988 
Q 3128 4100 2886 4159 
Q 2644 4219 2406 4219 
Q 1781 4219 1451 3797 
Q 1122 3375 1075 2522 
Q 1259 2794 1537 2939 
Q 1816 3084 2150 3084 
Q 2853 3084 3261 2657 
Q 3669 2231 3669 1497 
Q 3669 778 3244 343 
Q 2819 -91 2113 -91 
Q 1303 -91 875 529 
Q 447 1150 447 2328 
Q 447 3434 972 4092 
Q 1497 4750 2381 4750 
Q 2619 4750 2861 4703 
Q 3103 4656 3366 4563 
z
" transform="scale(0.015625)"/>
       </defs>
       <use xlink:href="#DejaVuSans-36"/>
       <use xlink:href="#DejaVuSans-30" transform="translate(63.623047 0)"/>
      </g>
     </g>
    </g>
    <g id="ytick_15">
     <g id="line2d_36">
      <g>
       <use xlink:href="#mbb856b362f" x="429.014" y="113.663335" style="stroke: #000000; stroke-width: 0.8"/>
      </g>
     </g>
     <g id="text_33">
      <!-- 80 -->
      <g transform="translate(409.289 117.462553) scale(0.1 -0.1)">
       <defs>
        <path id="DejaVuSans-38" d="M 2034 2216 
Q 1584 2216 1326 1975 
Q 1069 1734 1069 1313 
Q 1069 891 1326 650 
Q 1584 409 2034 409 
Q 2484 409 2743 651 
Q 3003 894 3003 1313 
Q 3003 1734 2745 1975 
Q 2488 2216 2034 2216 
z
M 1403 2484 
Q 997 2584 770 2862 
Q 544 3141 544 3541 
Q 544 4100 942 4425 
Q 1341 4750 2034 4750 
Q 2731 4750 3128 4425 
Q 3525 4100 3525 3541 
Q 3525 3141 3298 2862 
Q 3072 2584 2669 2484 
Q 3125 2378 3379 2068 
Q 3634 1759 3634 1313 
Q 3634 634 3220 271 
Q 2806 -91 2034 -91 
Q 1263 -91 848 271 
Q 434 634 434 1313 
Q 434 1759 690 2068 
Q 947 2378 1403 2484 
z
M 1172 3481 
Q 1172 3119 1398 2916 
Q 1625 2713 2034 2713 
Q 2441 2713 2670 2916 
Q 2900 3119 2900 3481 
Q 2900 3844 2670 4047 
Q 2441 4250 2034 4250 
Q 1625 4250 1398 4047 
Q 1172 3844 1172 3481 
z
" transform="scale(0.015625)"/>
       </defs>
       <use xlink:href="#DejaVuSans-38"/>
       <use xlink:href="#DejaVuSans-30" transform="translate(63.623047 0)"/>
      </g>
     </g>
    </g>
    <g id="ytick_16">
     <g id="line2d_37">
      <g>
       <use xlink:href="#mbb856b362f" x="429.014" y="83.589314" style="stroke: #000000; stroke-width: 0.8"/>
      </g>
     </g>
     <g id="text_34">
      <!-- 100 -->
      <g transform="translate(402.9265 87.388533) scale(0.1 -0.1)">
       <use xlink:href="#DejaVuSans-31"/>
       <use xlink:href="#DejaVuSans-30" transform="translate(63.623047 0)"/>
       <use xlink:href="#DejaVuSans-30" transform="translate(127.246094 0)"/>
      </g>
     </g>
    </g>
    <g id="ytick_17">
     <g id="line2d_38">
      <g>
       <use xlink:href="#mbb856b362f" x="429.014" y="53.515294" style="stroke: #000000; stroke-width: 0.8"/>
      </g>
     </g>
     <g id="text_35">
      <!-- 120 -->
      <g transform="translate(402.9265 57.314513) scale(0.1 -0.1)">
       <use xlink:href="#DejaVuSans-31"/>
       <use xlink:href="#DejaVuSans-32" transform="translate(63.623047 0)"/>
       <use xlink:href="#DejaVuSans-30" transform="translate(127.246094 0)"/>
      </g>
     </g>
    </g>
    <g id="ytick_18">
     <g id="line2d_39">
      <g>
       <use xlink:href="#mbb856b362f" x="429.014" y="23.441274" style="stroke: #000000; stroke-width: 0.8"/>
      </g>
     </g>
     <g id="text_36">
      <!-- 140 -->
      <g transform="translate(402.9265 27.240492) scale(0.1 -0.1)">
       <use xlink:href="#DejaVuSans-31"/>
       <use xlink:href="#DejaVuSans-34" transform="translate(63.623047 0)"/>
       <use xlink:href="#DejaVuSans-30" transform="translate(127.246094 0)"/>
      </g>
     </g>
    </g>
    <g id="text_37">
     <!-- ATP deficit (cummulative) -->
     <g transform="translate(396.846812 192.765313) rotate(-90) scale(0.1 -0.1)">
      <defs>
       <path id="DejaVuSans-41" d="M 2188 4044 
L 1331 1722 
L 3047 1722 
L 2188 4044 
z
M 1831 4666 
L 2547 4666 
L 4325 0 
L 3669 0 
L 3244 1197 
L 1141 1197 
L 716 0 
L 50 0 
L 1831 4666 
z
" transform="scale(0.015625)"/>
       <path id="DejaVuSans-76" d="M 191 3500 
L 800 3500 
L 1894 563 
L 2988 3500 
L 3597 3500 
L 2284 0 
L 1503 0 
L 191 3500 
z
" transform="scale(0.015625)"/>
      </defs>
      <use xlink:href="#DejaVuSans-41"/>
      <use xlink:href="#DejaVuSans-54" transform="translate(60.658203 0)"/>
      <use xlink:href="#DejaVuSans-50" transform="translate(121.742188 0)"/>
      <use xlink:href="#DejaVuSans-20" transform="translate(182.044922 0)"/>
      <use xlink:href="#DejaVuSans-64" transform="translate(213.832031 0)"/>
      <use xlink:href="#DejaVuSans-65" transform="translate(277.308594 0)"/>
      <use xlink:href="#DejaVuSans-66" transform="translate(338.832031 0)"/>
      <use xlink:href="#DejaVuSans-69" transform="translate(374.037109 0)"/>
      <use xlink:href="#DejaVuSans-63" transform="translate(401.820312 0)"/>
      <use xlink:href="#DejaVuSans-69" transform="translate(456.800781 0)"/>
      <use xlink:href="#DejaVuSans-74" transform="translate(484.583984 0)"/>
      <use xlink:href="#DejaVuSans-20" transform="translate(523.792969 0)"/>
      <use xlink:href="#DejaVuSans-28" transform="translate(555.580078 0)"/>
      <use xlink:href="#DejaVuSans-63" transform="translate(594.59375 0)"/>
      <use xlink:href="#DejaVuSans-75" transform="translate(649.574219 0)"/>
      <use xlink:href="#DejaVuSans-6d" transform="translate(712.953125 0)"/>
      <use xlink:href="#DejaVuSans-6d" transform="translate(810.365234 0)"/>
      <use xlink:href="#DejaVuSans-75" transform="translate(907.777344 0)"/>
      <use xlink:href="#DejaVuSans-6c" transform="translate(971.15625 0)"/>
      <use xlink:href="#DejaVuSans-61" transform="translate(998.939453 0)"/>
      <use xlink:href="#DejaVuSans-74" transform="translate(1060.21875 0)"/>
      <use xlink:href="#DejaVuSans-69" transform="translate(1099.427734 0)"/>
      <use xlink:href="#DejaVuSans-76" transform="translate(1127.210938 0)"/>
      <use xlink:href="#DejaVuSans-65" transform="translate(1186.390625 0)"/>
      <use xlink:href="#DejaVuSans-29" transform="translate(1247.914062 0)"/>
     </g>
    </g>
   </g>
   <g id="line2d_40">
    <path d="M 435.204273 233.958812 
L 440.092459 233.985519 
L 440.807106 235.253907 
L 441.235894 235.342082 
L 445.380847 235.338372 
L 559.009727 235.054176 
L 559.009727 235.054176 
" clip-path="url(#pd9a2d8108f)" style="fill: none; stroke: #ff0000; stroke-width: 1.5; stroke-linecap: square"/>
   </g>
   <g id="line2d_41">
    <path d="M 435.204273 233.959089 
L 440.092459 234.025006 
L 440.664176 234.90817 
L 440.950035 234.879699 
L 441.807611 234.330277 
L 453.670752 226.349674 
L 465.533893 218.639758 
L 477.539964 211.103344 
L 489.688964 203.740914 
L 501.980893 196.552924 
L 514.415751 189.539818 
L 526.99354 182.702036 
L 539.714257 176.040029 
L 552.577904 169.554261 
L 559.009727 166.40362 
L 559.009727 166.40362 
" clip-path="url(#pd9a2d8108f)" style="fill: none; stroke: #ffa500; stroke-width: 1.5; stroke-linecap: square"/>
   </g>
   <g id="line2d_42">
    <path d="M 435.204273 233.95852 
L 439.949529 233.958506 
L 440.235388 233.538599 
L 440.521247 232.811069 
L 441.092964 230.265062 
L 444.6662 212.947604 
L 448.096505 197.456624 
L 451.526811 183.017088 
L 454.814188 170.113064 
L 458.101564 158.075039 
L 461.388941 146.858226 
L 464.676317 136.420073 
L 467.963693 126.720026 
L 471.25107 117.719335 
L 474.538446 109.380872 
L 477.682893 101.991715 
L 480.82734 95.145731 
L 483.971787 88.813823 
L 487.116234 82.967768 
L 490.260681 77.580104 
L 493.405128 72.624036 
L 496.549575 68.073342 
L 499.694022 63.902312 
L 502.838469 60.085729 
L 506.125846 56.447837 
L 509.413222 53.142814 
L 512.700599 50.143975 
L 516.130904 47.313469 
L 519.70414 44.660002 
L 523.277375 42.278554 
L 526.99354 40.061151 
L 530.995563 37.937162 
L 535.140516 35.993089 
L 539.571328 34.167907 
L 544.145069 32.523363 
L 549.147598 30.965956 
L 554.435986 29.555111 
L 559.009727 28.502749 
L 559.009727 28.502749 
" clip-path="url(#pd9a2d8108f)" style="fill: none; stroke: #008000; stroke-width: 1.5; stroke-linecap: square"/>
   </g>
   <g id="line2d_43">
    <path d="M 435.204273 233.958482 
L 439.949529 233.958469 
L 440.092459 233.367537 
L 440.521247 228.627973 
L 443.951553 184.552869 
L 446.095494 160.515805 
L 448.096505 140.460007 
L 450.097517 122.596493 
L 451.9556 107.872457 
L 453.813682 94.839361 
L 455.671764 83.387196 
L 457.386917 74.117906 
L 459.10207 66.000002 
L 460.817223 58.935885 
L 462.532376 52.827993 
L 464.247529 47.580419 
L 465.819752 43.446547 
L 467.391976 39.889128 
L 468.964199 36.843408 
L 470.536423 34.248776 
L 472.108646 32.049115 
L 473.823799 30.039684 
L 475.538952 28.379037 
L 477.254105 27.013744 
L 479.112187 25.813725 
L 481.113199 24.7887 
L 483.25714 23.938208 
L 485.68694 23.216848 
L 488.545528 22.61616 
L 491.832905 22.161141 
L 495.977858 21.823018 
L 501.552105 21.606547 
L 510.556657 21.508649 
L 548.861739 21.505726 
L 559.009727 21.492727 
L 559.009727 21.492727 
" clip-path="url(#pd9a2d8108f)" style="fill: none; stroke: #0000ff; stroke-width: 1.5; stroke-linecap: square"/>
   </g>
   <g id="patch_14">
    <path d="M 429.014 246.04 
L 429.014 10.8 
" style="fill: none; stroke: #000000; stroke-width: 0.8; stroke-linejoin: miter; stroke-linecap: square"/>
   </g>
   <g id="patch_15">
    <path d="M 565.2 246.04 
L 565.2 10.8 
" style="fill: none; stroke: #000000; stroke-width: 0.8; stroke-linejoin: miter; stroke-linecap: square"/>
   </g>
   <g id="patch_16">
    <path d="M 429.014 246.04 
L 565.2 246.04 
" style="fill: none; stroke: #000000; stroke-width: 0.8; stroke-linejoin: miter; stroke-linecap: square"/>
   </g>
   <g id="patch_17">
    <path d="M 429.014 10.8 
L 565.2 10.8 
" style="fill: none; stroke: #000000; stroke-width: 0.8; stroke-linejoin: miter; stroke-linecap: square"/>
   </g>
  </g>
 </g>
 <defs>
  <clipPath id="p76d4d397e4">
   <rect x="54.902" y="10.8" width="136.186" height="235.24"/>
  </clipPath>
  <clipPath id="p2236996d0a">
   <rect x="241.958" y="10.8" width="136.186" height="235.24"/>
  </clipPath>
  <clipPath id="pd9a2d8108f">
   <rect x="429.014" y="10.8" width="136.186" height="235.24"/>
  </clipPath>
 </defs>
</svg>
