<?xml version="1.0" encoding="utf-8" standalone="no"?>
<!DOCTYPE svg PUBLIC "-//W3C//DTD SVG 1.1//EN"
  "http://www.w3.org/Graphics/SVG/1.1/DTD/svg11.dtd">
<svg xmlns:xlink="http://www.w3.org/1999/xlink" width="854.86775pt" height="423.43625pt" viewBox="0 0 854.86775 423.43625" xmlns="http://www.w3.org/2000/svg" version="1.1">
 <metadata>
  <rdf:RDF xmlns:dc="http://purl.org/dc/elements/1.1/" xmlns:cc="http://creativecommons.org/ns#" xmlns:rdf="http://www.w3.org/1999/02/22-rdf-syntax-ns#">
   <cc:Work>
    <dc:type rdf:resource="http://purl.org/dc/dcmitype/StillImage"/>
    <dc:date>2026-07-01T16:02:53.459023</dc:date>
    <dc:format>image/svg+xml</dc:format>
    <dc:creator>
     <cc:Agent>
      <dc:title>Matplotlib v3.10.9, https://matplotlib.org/</dc:title>
     </cc:Agent>
    </dc:creator>
   </cc:Work>
  </rdf:RDF>
 </metadata>
 <defs>
  <style type="text/css">*{stroke-linejoin: round; stroke-linecap: butt}</style>
 </defs>
 <g id="figure_1">
  <g id="patch_1">
   <path d="M 0 423.43625 
L 854.86775 423.43625 
L 854.86775 0 
L 0 0 
z
" style="fill: #ffffff"/>
  </g>
  <g id="axes_1">
   <g id="patch_2">
    <path d="M 150.43125 188.958125 
L 308.05525 188.958125 
L 308.05525 22.318125 
L 150.43125 22.318125 
z
" style="fill: #ffffff"/>
   </g>
   <g id="patch_3">
    <path d="M 150.43125 188.958125 
L 157.937155 188.958125 
L 157.937155 180.626125 
L 150.43125 180.626125 
z
" clip-path="url(#p6d5a681096)" style="stroke: #000000; stroke-linejoin: miter"/>
   </g>
   <g id="patch_4">
    <path d="M 157.937155 188.958125 
L 195.466679 188.958125 
L 195.466679 180.626125 
L 157.937155 180.626125 
z
" clip-path="url(#p6d5a681096)" style="fill: #ffffff; stroke: #000000; stroke-linejoin: miter"/>
   </g>
   <g id="patch_5">
    <path d="M 195.466679 188.958125 
L 270.525726 188.958125 
L 270.525726 180.626125 
L 195.466679 180.626125 
z
" clip-path="url(#p6d5a681096)" style="stroke: #000000; stroke-linejoin: miter"/>
   </g>
   <g id="patch_6">
    <path d="M 270.525726 188.958125 
L 308.05525 188.958125 
L 308.05525 180.626125 
L 270.525726 180.626125 
z
" clip-path="url(#p6d5a681096)" style="fill: #ffffff; stroke: #000000; stroke-linejoin: miter"/>
   </g>
   <g id="matplotlib.axis_1">
    <g id="xtick_1">
     <g id="line2d_1">
      <defs>
       <path id="mbf3d224379" d="M 0 0 
L 0 3.5 
" style="stroke: #000000; stroke-width: 0.8"/>
      </defs>
      <g>
       <use xlink:href="#mbf3d224379" x="157.937155" y="188.958125" style="stroke: #000000; stroke-width: 0.8"/>
      </g>
     </g>
     <g id="text_1">
      <!-- 0 -->
      <g transform="translate(154.755905 203.556563) scale(0.1 -0.1)">
       <defs>
        <path id="DejaVuSans-30" d="M 2034 4250 
Q 1547 4250 1301 3770 
Q 1056 3291 1056 2328 
Q 1056 1369 1301 889 
Q 1547 409 2034 409 
Q 2525 409 2770 889 
Q 3016 1369 3016 2328 
Q 3016 3291 2770 3770 
Q 2525 4250 2034 4250 
z
M 2034 4750 
Q 2819 4750 3233 4129 
Q 3647 3509 3647 2328 
Q 3647 1150 3233 529 
Q 2819 -91 2034 -91 
Q 1250 -91 836 529 
Q 422 1150 422 2328 
Q 422 3509 836 4129 
Q 1250 4750 2034 4750 
z
" transform="scale(0.015625)"/>
       </defs>
       <use xlink:href="#DejaVuSans-30"/>
      </g>
     </g>
    </g>
    <g id="xtick_2">
     <g id="line2d_2">
      <g>
       <use xlink:href="#mbf3d224379" x="232.996202" y="188.958125" style="stroke: #000000; stroke-width: 0.8"/>
      </g>
     </g>
     <g id="text_2">
      <!-- 10 -->
      <g transform="translate(226.633702 203.556563) scale(0.1 -0.1)">
       <defs>
        <path id="DejaVuSans-31" d="M 794 531 
L 1825 531 
L 1825 4091 
L 703 3866 
L 703 4441 
L 1819 4666 
L 2450 4666 
L 2450 531 
L 3481 531 
L 3481 0 
L 794 0 
L 794 531 
z
" transform="scale(0.015625)"/>
       </defs>
       <use xlink:href="#DejaVuSans-31"/>
       <use xlink:href="#DejaVuSans-30" transform="translate(63.623047 0)"/>
      </g>
     </g>
    </g>
    <g id="xtick_3">
     <g id="line2d_3">
      <g>
       <use xlink:href="#mbf3d224379" x="308.05525" y="188.958125" style="stroke: #000000; stroke-width: 0.8"/>
      </g>
     </g>
     <g id="text_3">
      <!-- 20 -->
      <g transform="translate(301.69275 203.556563) scale(0.1 -0.1)">
       <defs>
        <path id="DejaVuSans-32" d="M 1228 531 
L 3431 531 
L 3431 0 
L 469 0 
L 469 531 
Q 828 903 1448 1529 
Q 2069 2156 2228 2338 
Q 2531 2678 2651 2914 
Q 2772 3150 2772 3378 
Q 2772 3750 2511 3984 
Q 2250 4219 1831 4219 
Q 1534 4219 1204 4116 
Q 875 4013 500 3803 
L 500 4441 
Q 881 4594 1212 4672 
Q 1544 4750 1819 4750 
Q 2544 4750 2975 4387 
Q 3406 4025 3406 3419 
Q 3406 3131 3298 2873 
Q 3191 2616 2906 2266 
Q 2828 2175 2409 1742 
Q 1991 1309 1228 531 
z
" transform="scale(0.015625)"/>
       </defs>
       <use xlink:href="#DejaVuSans-32"/>
       <use xlink:href="#DejaVuSans-30" transform="translate(63.623047 0)"/>
      </g>
     </g>
    </g>
   </g>
   <g id="matplotlib.axis_2">
    <g id="ytick_1">
     <g id="line2d_4">
      <defs>
       <path id="md9c08a65c0" d="M 0 0 
L -3.5 0 
" style="stroke: #000000; stroke-width: 0.8"/>
      </defs>
      <g>
       <use xlink:href="#md9c08a65c0" x="150.43125" y="188.958125" style="stroke: #000000; stroke-width: 0.8"/>
      </g>
     </g>
     <g id="text_4">
      <!-- 0.0 -->
      <g transform="translate(127.528125 192.757344) scale(0.1 -0.1)">
       <defs>
        <path id="DejaVuSans-2e" d="M 684 794 
L 1344 794 
L 1344 0 
L 684 0 
L 684 794 
z
" transform="scale(0.015625)"/>
       </defs>
       <use xlink:href="#DejaVuSans-30"/>
       <use xlink:href="#DejaVuSans-2e" transform="translate(63.623047 0)"/>
       <use xlink:href="#DejaVuSans-30" transform="translate(95.410156 0)"/>
      </g>
     </g>
    </g>
    <g id="ytick_2">
     <g id="line2d_5">
      <g>
       <use xlink:href="#md9c08a65c0" x="150.43125" y="147.298125" style="stroke: #000000; stroke-width: 0.8"/>
      </g>
     </g>
     <g id="text_5">
      <!-- 0.5 -->
      <g transform="translate(127.528125 151.097344) scale(0.1 -0.1)">
       <defs>
        <path id="DejaVuSans-35" d="M 691 4666 
L 3169 4666 
L 3169 4134 
L 1269 4134 
L 1269 2991 
Q 1406 3038 1543 3061 
Q 1681 3084 1819 3084 
Q 2600 3084 3056 2656 
Q 3513 2228 3513 1497 
Q 3513 744 3044 326 
Q 2575 -91 1722 -91 
Q 1428 -91 1123 -41 
Q 819 9 494 109 
L 494 744 
Q 775 591 1075 516 
Q 1375 441 1709 441 
Q 2250 441 2565 725 
Q 2881 1009 2881 1497 
Q 2881 1984 2565 2268 
Q 2250 2553 1709 2553 
Q 1456 2553 1204 2497 
Q 953 2441 691 2322 
L 691 4666 
z
" transform="scale(0.015625)"/>
       </defs>
       <use xlink:href="#DejaVuSans-30"/>
       <use xlink:href="#DejaVuSans-2e" transform="translate(63.623047 0)"/>
       <use xlink:href="#DejaVuSans-35" transform="translate(95.410156 0)"/>
      </g>
     </g>
    </g>
    <g id="ytick_3">
     <g id="line2d_6">
      <g>
       <use xlink:href="#md9c08a65c0" x="150.43125" y="105.638125" style="stroke: #000000; stroke-width: 0.8"/>
      </g>
     </g>
     <g id="text_6">
      <!-- 1.0 -->
      <g transform="translate(127.528125 109.437344) scale(0.1 -0.1)">
       <use xlink:href="#DejaVuSans-31"/>
       <use xlink:href="#DejaVuSans-2e" transform="translate(63.623047 0)"/>
       <use xlink:href="#DejaVuSans-30" transform="translate(95.410156 0)"/>
      </g>
     </g>
    </g>
    <g id="ytick_4">
     <g id="line2d_7">
      <g>
       <use xlink:href="#md9c08a65c0" x="150.43125" y="63.978125" style="stroke: #000000; stroke-width: 0.8"/>
      </g>
     </g>
     <g id="text_7">
      <!-- 1.5 -->
      <g transform="translate(127.528125 67.777344) scale(0.1 -0.1)">
       <use xlink:href="#DejaVuSans-31"/>
       <use xlink:href="#DejaVuSans-2e" transform="translate(63.623047 0)"/>
       <use xlink:href="#DejaVuSans-35" transform="translate(95.410156 0)"/>
      </g>
     </g>
    </g>
    <g id="text_8">
     <!-- $\tau_\mathrm{avg}$ -->
     <g transform="translate(120.428125 115.238125) rotate(-90) scale(0.1 -0.1)">
      <defs>
       <path id="DejaVuSans-Oblique-3c4" d="M 2103 638 
Q 2188 488 2525 488 
L 2800 488 
L 2706 0 
L 2363 0 
Q 1800 0 1600 300 
Q 1403 606 1534 1269 
L 1856 2925 
L 541 2925 
L 653 3500 
L 3881 3500 
L 3769 2925 
L 2444 2925 
L 2113 1234 
Q 2025 781 2103 638 
z
" transform="scale(0.015625)"/>
       <path id="DejaVuSans-61" d="M 2194 1759 
Q 1497 1759 1228 1600 
Q 959 1441 959 1056 
Q 959 750 1161 570 
Q 1363 391 1709 391 
Q 2188 391 2477 730 
Q 2766 1069 2766 1631 
L 2766 1759 
L 2194 1759 
z
M 3341 1997 
L 3341 0 
L 2766 0 
L 2766 531 
Q 2569 213 2275 61 
Q 1981 -91 1556 -91 
Q 1019 -91 701 211 
Q 384 513 384 1019 
Q 384 1609 779 1909 
Q 1175 2209 1959 2209 
L 2766 2209 
L 2766 2266 
Q 2766 2663 2505 2880 
Q 2244 3097 1772 3097 
Q 1472 3097 1187 3025 
Q 903 2953 641 2809 
L 641 3341 
Q 956 3463 1253 3523 
Q 1550 3584 1831 3584 
Q 2591 3584 2966 3190 
Q 3341 2797 3341 1997 
z
" transform="scale(0.015625)"/>
       <path id="DejaVuSans-76" d="M 191 3500 
L 800 3500 
L 1894 563 
L 2988 3500 
L 3597 3500 
L 2284 0 
L 1503 0 
L 191 3500 
z
" transform="scale(0.015625)"/>
       <path id="DejaVuSans-67" d="M 2906 1791 
Q 2906 2416 2648 2759 
Q 2391 3103 1925 3103 
Q 1463 3103 1205 2759 
Q 947 2416 947 1791 
Q 947 1169 1205 825 
Q 1463 481 1925 481 
Q 2391 481 2648 825 
Q 2906 1169 2906 1791 
z
M 3481 434 
Q 3481 -459 3084 -895 
Q 2688 -1331 1869 -1331 
Q 1566 -1331 1297 -1286 
Q 1028 -1241 775 -1147 
L 775 -588 
Q 1028 -725 1275 -790 
Q 1522 -856 1778 -856 
Q 2344 -856 2625 -561 
Q 2906 -266 2906 331 
L 2906 616 
Q 2728 306 2450 153 
Q 2172 0 1784 0 
Q 1141 0 747 490 
Q 353 981 353 1791 
Q 353 2603 747 3093 
Q 1141 3584 1784 3584 
Q 2172 3584 2450 3431 
Q 2728 3278 2906 2969 
L 2906 3500 
L 3481 3500 
L 3481 434 
z
" transform="scale(0.015625)"/>
      </defs>
      <use xlink:href="#DejaVuSans-Oblique-3c4" transform="translate(0 0.3125)"/>
      <use xlink:href="#DejaVuSans-61" transform="translate(60.205078 -16.09375) scale(0.7)"/>
      <use xlink:href="#DejaVuSans-76" transform="translate(103.100586 -16.09375) scale(0.7)"/>
      <use xlink:href="#DejaVuSans-67" transform="translate(144.526367 -16.09375) scale(0.7)"/>
     </g>
    </g>
   </g>
   <g id="line2d_8">
    <path d="M 157.937155 65.632543 
L 158.387509 87.561702 
L 158.875393 100.954927 
L 159.400806 109.796657 
L 160.001279 116.274496 
L 160.63928 120.840402 
L 161.352341 124.34502 
L 162.102932 126.968726 
L 162.966111 129.19317 
L 163.979408 131.177192 
L 165.217882 133.090239 
L 166.756593 135.045523 
L 168.670599 137.115759 
L 170.847311 139.14759 
L 173.136612 140.983576 
L 175.500972 142.59488 
L 177.97792 144.015065 
L 180.717576 145.325056 
L 183.832526 146.560819 
L 187.585479 147.800146 
L 192.426787 149.152263 
L 195.466679 149.918409 
L 196.442446 137.638212 
L 197.193037 130.708673 
L 197.943627 125.825609 
L 198.619159 122.805671 
L 199.29469 120.750782 
L 199.970221 119.399356 
L 200.645753 118.554221 
L 201.321284 118.070698 
L 202.071875 117.830893 
L 202.897524 117.812584 
L 203.948351 118.02328 
L 205.449532 118.569138 
L 208.602012 120.01565 
L 213.405791 122.154557 
L 217.609098 123.772648 
L 222.11264 125.266633 
L 227.141597 126.698785 
L 232.846084 128.089154 
L 239.45128 129.465623 
L 247.257421 130.859253 
L 256.714861 132.31463 
L 268.499132 133.893625 
L 270.525726 134.146094 
L 270.938551 142.173715 
L 271.388905 146.844391 
L 271.876789 149.783702 
L 272.439732 151.841785 
L 273.040204 153.218803 
L 273.715736 154.222981 
L 274.503856 154.990241 
L 275.442094 155.59027 
L 276.680568 156.107505 
L 278.481985 156.598458 
L 281.596936 157.18464 
L 288.052014 158.137863 
L 299.198282 159.5404 
L 308.05525 160.573402 
L 308.05525 160.573402 
" clip-path="url(#p6d5a681096)" style="fill: none; stroke: #77ac30; stroke-width: 3; stroke-linecap: square"/>
   </g>
   <g id="patch_7">
    <path d="M 150.43125 188.958125 
L 150.43125 22.318125 
" style="fill: none; stroke: #000000; stroke-width: 0.8; stroke-linejoin: miter; stroke-linecap: square"/>
   </g>
   <g id="patch_8">
    <path d="M 308.05525 188.958125 
L 308.05525 22.318125 
" style="fill: none; stroke: #000000; stroke-width: 0.8; stroke-linejoin: miter; stroke-linecap: square"/>
   </g>
   <g id="patch_9">
    <path d="M 150.43125 188.958125 
L 308.05525 188.958125 
" style="fill: none; stroke: #000000; stroke-width: 0.8; stroke-linejoin: miter; stroke-linecap: square"/>
   </g>
   <g id="patch_10">
    <path d="M 150.43125 22.318125 
L 308.05525 22.318125 
" style="fill: none; stroke: #000000; stroke-width: 0.8; stroke-linejoin: miter; stroke-linecap: square"/>
   </g>
   <g id="text_9">
    <!-- A -->
    <g transform="translate(139.568135 18.1561) scale(0.12 -0.12)">
     <defs>
      <path id="DejaVuSans-Bold-41" d="M 3419 850 
L 1538 850 
L 1241 0 
L 31 0 
L 1759 4666 
L 3194 4666 
L 4922 0 
L 3713 0 
L 3419 850 
z
M 1838 1716 
L 3116 1716 
L 2478 3572 
L 1838 1716 
z
" transform="scale(0.015625)"/>
     </defs>
     <use xlink:href="#DejaVuSans-Bold-41"/>
    </g>
   </g>
   <g id="text_10">
    <!-- WT -->
    <g transform="translate(218.532313 16.318125) scale(0.12 -0.12)">
     <defs>
      <path id="DejaVuSans-BoldOblique-57" d="M 684 4666 
L 1797 4666 
L 1941 1275 
L 3406 4666 
L 4550 4666 
L 4703 1275 
L 6119 4666 
L 7316 4666 
L 5306 0 
L 3944 0 
L 3788 3547 
L 2278 0 
L 884 0 
L 684 4666 
z
" transform="scale(0.015625)"/>
      <path id="DejaVuSans-BoldOblique-54" d="M 488 4666 
L 4788 4666 
L 4609 3756 
L 3059 3756 
L 2328 0 
L 1125 0 
L 1856 3756 
L 306 3756 
L 488 4666 
z
" transform="scale(0.015625)"/>
     </defs>
     <use xlink:href="#DejaVuSans-BoldOblique-57"/>
     <use xlink:href="#DejaVuSans-BoldOblique-54" transform="translate(110.302734 0)"/>
    </g>
   </g>
  </g>
  <g id="axes_2">
   <g id="patch_11">
    <path d="M 363.73125 188.958125 
L 521.35525 188.958125 
L 521.35525 22.318125 
L 363.73125 22.318125 
z
" style="fill: #ffffff"/>
   </g>
   <g id="patch_12">
    <path d="M 363.73125 188.958125 
L 371.237155 188.958125 
L 371.237155 180.626125 
L 363.73125 180.626125 
z
" clip-path="url(#p496a2d4b98)" style="stroke: #000000; stroke-linejoin: miter"/>
   </g>
   <g id="patch_13">
    <path d="M 371.237155 188.958125 
L 521.35525 188.958125 
L 521.35525 180.626125 
L 371.237155 180.626125 
z
" clip-path="url(#p496a2d4b98)" style="fill: #ffffff; stroke: #000000; stroke-linejoin: miter"/>
   </g>
   <g id="matplotlib.axis_3">
    <g id="xtick_4">
     <g id="line2d_9">
      <g>
       <use xlink:href="#mbf3d224379" x="371.237155" y="188.958125" style="stroke: #000000; stroke-width: 0.8"/>
      </g>
     </g>
     <g id="text_11">
      <!-- 0 -->
      <g transform="translate(368.055905 203.556563) scale(0.1 -0.1)">
       <use xlink:href="#DejaVuSans-30"/>
      </g>
     </g>
    </g>
    <g id="xtick_5">
     <g id="line2d_10">
      <g>
       <use xlink:href="#mbf3d224379" x="446.296202" y="188.958125" style="stroke: #000000; stroke-width: 0.8"/>
      </g>
     </g>
     <g id="text_12">
      <!-- 10 -->
      <g transform="translate(439.933702 203.556563) scale(0.1 -0.1)">
       <use xlink:href="#DejaVuSans-31"/>
       <use xlink:href="#DejaVuSans-30" transform="translate(63.623047 0)"/>
      </g>
     </g>
    </g>
    <g id="xtick_6">
     <g id="line2d_11">
      <g>
       <use xlink:href="#mbf3d224379" x="521.35525" y="188.958125" style="stroke: #000000; stroke-width: 0.8"/>
      </g>
     </g>
     <g id="text_13">
      <!-- 20 -->
      <g transform="translate(514.99275 203.556563) scale(0.1 -0.1)">
       <use xlink:href="#DejaVuSans-32"/>
       <use xlink:href="#DejaVuSans-30" transform="translate(63.623047 0)"/>
      </g>
     </g>
    </g>
   </g>
   <g id="matplotlib.axis_4">
    <g id="ytick_5">
     <g id="line2d_12">
      <g>
       <use xlink:href="#md9c08a65c0" x="363.73125" y="188.958125" style="stroke: #000000; stroke-width: 0.8"/>
      </g>
     </g>
     <g id="text_14">
      <!-- 0.0 -->
      <g transform="translate(340.828125 192.757344) scale(0.1 -0.1)">
       <use xlink:href="#DejaVuSans-30"/>
       <use xlink:href="#DejaVuSans-2e" transform="translate(63.623047 0)"/>
       <use xlink:href="#DejaVuSans-30" transform="translate(95.410156 0)"/>
      </g>
     </g>
    </g>
    <g id="ytick_6">
     <g id="line2d_13">
      <g>
       <use xlink:href="#md9c08a65c0" x="363.73125" y="147.298125" style="stroke: #000000; stroke-width: 0.8"/>
      </g>
     </g>
     <g id="text_15">
      <!-- 0.5 -->
      <g transform="translate(340.828125 151.097344) scale(0.1 -0.1)">
       <use xlink:href="#DejaVuSans-30"/>
       <use xlink:href="#DejaVuSans-2e" transform="translate(63.623047 0)"/>
       <use xlink:href="#DejaVuSans-35" transform="translate(95.410156 0)"/>
      </g>
     </g>
    </g>
    <g id="ytick_7">
     <g id="line2d_14">
      <g>
       <use xlink:href="#md9c08a65c0" x="363.73125" y="105.638125" style="stroke: #000000; stroke-width: 0.8"/>
      </g>
     </g>
     <g id="text_16">
      <!-- 1.0 -->
      <g transform="translate(340.828125 109.437344) scale(0.1 -0.1)">
       <use xlink:href="#DejaVuSans-31"/>
       <use xlink:href="#DejaVuSans-2e" transform="translate(63.623047 0)"/>
       <use xlink:href="#DejaVuSans-30" transform="translate(95.410156 0)"/>
      </g>
     </g>
    </g>
    <g id="ytick_8">
     <g id="line2d_15">
      <g>
       <use xlink:href="#md9c08a65c0" x="363.73125" y="63.978125" style="stroke: #000000; stroke-width: 0.8"/>
      </g>
     </g>
     <g id="text_17">
      <!-- 1.5 -->
      <g transform="translate(340.828125 67.777344) scale(0.1 -0.1)">
       <use xlink:href="#DejaVuSans-31"/>
       <use xlink:href="#DejaVuSans-2e" transform="translate(63.623047 0)"/>
       <use xlink:href="#DejaVuSans-35" transform="translate(95.410156 0)"/>
      </g>
     </g>
    </g>
    <g id="text_18">
     <!-- $\tau_\mathrm{avg}$ -->
     <g transform="translate(333.728125 115.238125) rotate(-90) scale(0.1 -0.1)">
      <use xlink:href="#DejaVuSans-Oblique-3c4" transform="translate(0 0.3125)"/>
      <use xlink:href="#DejaVuSans-61" transform="translate(60.205078 -16.09375) scale(0.7)"/>
      <use xlink:href="#DejaVuSans-76" transform="translate(103.100586 -16.09375) scale(0.7)"/>
      <use xlink:href="#DejaVuSans-67" transform="translate(144.526367 -16.09375) scale(0.7)"/>
     </g>
    </g>
   </g>
   <g id="line2d_16">
    <path d="M 371.237155 65.632543 
L 371.687509 87.561702 
L 372.137863 100.14817 
L 372.738336 110.291391 
L 373.338808 116.596137 
L 373.93928 120.840402 
L 374.689871 124.497516 
L 375.440461 127.080056 
L 376.34117 129.359053 
L 377.391997 131.369716 
L 378.592941 133.194323 
L 380.24424 135.263168 
L 382.195776 137.340279 
L 384.447547 139.405065 
L 386.699319 141.176239 
L 389.101208 142.780702 
L 391.653216 144.209332 
L 394.50546 145.534407 
L 397.65794 146.748351 
L 401.56101 148.002252 
L 406.665025 149.393791 
L 414.471166 151.265199 
L 427.081086 154.041894 
L 437.889589 156.21822 
L 446.596439 157.750095 
L 454.852934 158.975643 
L 463.259547 159.996268 
L 472.416751 160.879113 
L 482.7749 161.649218 
L 495.234701 162.343452 
L 510.997101 162.986122 
L 521.35525 163.317915 
L 521.35525 163.317915 
" clip-path="url(#p496a2d4b98)" style="fill: none; stroke: #77ac30; stroke-width: 3; stroke-linecap: square"/>
   </g>
   <g id="patch_14">
    <path d="M 363.73125 188.958125 
L 363.73125 22.318125 
" style="fill: none; stroke: #000000; stroke-width: 0.8; stroke-linejoin: miter; stroke-linecap: square"/>
   </g>
   <g id="patch_15">
    <path d="M 521.35525 188.958125 
L 521.35525 22.318125 
" style="fill: none; stroke: #000000; stroke-width: 0.8; stroke-linejoin: miter; stroke-linecap: square"/>
   </g>
   <g id="patch_16">
    <path d="M 363.73125 188.958125 
L 521.35525 188.958125 
" style="fill: none; stroke: #000000; stroke-width: 0.8; stroke-linejoin: miter; stroke-linecap: square"/>
   </g>
   <g id="patch_17">
    <path d="M 363.73125 22.318125 
L 521.35525 22.318125 
" style="fill: none; stroke: #000000; stroke-width: 0.8; stroke-linejoin: miter; stroke-linecap: square"/>
   </g>
   <g id="text_19">
    <!-- B -->
    <g transform="translate(353.00876 18.1561) scale(0.12 -0.12)">
     <defs>
      <path id="DejaVuSans-Bold-42" d="M 2456 2859 
Q 2741 2859 2887 2984 
Q 3034 3109 3034 3353 
Q 3034 3594 2887 3720 
Q 2741 3847 2456 3847 
L 1791 3847 
L 1791 2859 
L 2456 2859 
z
M 2497 819 
Q 2859 819 3042 972 
Q 3225 1125 3225 1434 
Q 3225 1738 3044 1889 
Q 2863 2041 2497 2041 
L 1791 2041 
L 1791 819 
L 2497 819 
z
M 3616 2497 
Q 4003 2384 4215 2081 
Q 4428 1778 4428 1338 
Q 4428 663 3972 331 
Q 3516 0 2584 0 
L 588 0 
L 588 4666 
L 2394 4666 
Q 3366 4666 3802 4372 
Q 4238 4078 4238 3431 
Q 4238 3091 4078 2852 
Q 3919 2613 3616 2497 
z
" transform="scale(0.015625)"/>
     </defs>
     <use xlink:href="#DejaVuSans-Bold-42"/>
    </g>
   </g>
   <g id="text_20">
    <!-- WT_base -->
    <g transform="translate(412.847938 16.318125) scale(0.12 -0.12)">
     <defs>
      <path id="DejaVuSans-BoldOblique-5f" d="M 3263 -916 
L 3263 -1509 
L -63 -1509 
L -63 -916 
L 3263 -916 
z
" transform="scale(0.015625)"/>
      <path id="DejaVuSans-BoldOblique-62" d="M 2597 2772 
Q 2166 2772 1892 2373 
Q 1619 1975 1619 1338 
Q 1619 1050 1773 886 
Q 1928 722 2203 722 
Q 2625 722 2900 1114 
Q 3175 1506 3175 2119 
Q 3175 2438 3026 2605 
Q 2878 2772 2597 2772 
z
M 1422 506 
L 1319 0 
L 197 0 
L 1141 4863 
L 2266 4863 
L 1900 2988 
Q 2156 3294 2437 3439 
Q 2719 3584 3053 3584 
Q 3644 3584 3987 3209 
Q 4331 2834 4331 2188 
Q 4331 1784 4211 1403 
Q 4091 1022 3866 709 
Q 3581 316 3223 112 
Q 2866 -91 2456 -91 
Q 2097 -91 1845 54 
Q 1594 200 1422 506 
z
" transform="scale(0.015625)"/>
      <path id="DejaVuSans-BoldOblique-61" d="M 2106 1575 
Q 1688 1575 1473 1445 
Q 1259 1316 1259 1063 
Q 1259 872 1386 762 
Q 1513 653 1734 653 
Q 2078 653 2309 861 
Q 2541 1069 2619 1447 
L 2644 1575 
L 2106 1575 
z
M 3853 1997 
L 3463 0 
L 2344 0 
L 2438 519 
Q 2163 206 1856 57 
Q 1550 -91 1191 -91 
Q 694 -91 401 167 
Q 109 425 109 863 
Q 109 1531 626 1886 
Q 1144 2241 2119 2241 
L 2778 2241 
L 2791 2328 
Q 2800 2372 2801 2390 
Q 2803 2409 2803 2425 
Q 2803 2631 2608 2736 
Q 2413 2841 2028 2841 
Q 1681 2841 1356 2769 
Q 1031 2697 728 2553 
L 897 3406 
Q 1247 3494 1614 3539 
Q 1981 3584 2375 3584 
Q 3153 3584 3531 3317 
Q 3909 3050 3909 2503 
Q 3909 2397 3895 2270 
Q 3881 2144 3853 1997 
z
" transform="scale(0.015625)"/>
      <path id="DejaVuSans-BoldOblique-73" d="M 3584 3391 
L 3419 2522 
Q 3091 2678 2766 2759 
Q 2441 2841 2150 2841 
Q 1819 2841 1639 2755 
Q 1459 2669 1459 2509 
Q 1459 2416 1559 2359 
Q 1659 2303 1953 2241 
L 2156 2203 
Q 2834 2059 3106 1832 
Q 3378 1606 3378 1203 
Q 3378 594 2900 251 
Q 2422 -91 1563 -91 
Q 1203 -91 828 -34 
Q 453 22 63 134 
L 231 1013 
Q 534 834 879 743 
Q 1225 653 1588 653 
Q 1941 653 2119 737 
Q 2297 822 2297 984 
Q 2297 1097 2197 1159 
Q 2097 1222 1784 1288 
L 1581 1325 
Q 981 1450 725 1694 
Q 469 1938 469 2369 
Q 469 2953 911 3268 
Q 1353 3584 2175 3584 
Q 2534 3584 2882 3536 
Q 3231 3488 3584 3391 
z
" transform="scale(0.015625)"/>
      <path id="DejaVuSans-BoldOblique-65" d="M 4025 1619 
L 3988 1441 
L 1369 1441 
Q 1369 1422 1366 1386 
Q 1363 1350 1363 1331 
Q 1363 991 1567 822 
Q 1772 653 2181 653 
Q 2534 653 2926 759 
Q 3319 866 3750 1075 
L 3578 206 
Q 3169 56 2764 -17 
Q 2359 -91 1941 -91 
Q 1122 -91 676 287 
Q 231 666 231 1356 
Q 231 1756 373 2132 
Q 516 2509 788 2822 
Q 1109 3197 1557 3390 
Q 2006 3584 2553 3584 
Q 3263 3584 3680 3206 
Q 4097 2828 4097 2188 
Q 4097 2063 4080 1923 
Q 4063 1784 4025 1619 
z
M 2969 2131 
Q 2978 2172 2983 2214 
Q 2988 2256 2988 2297 
Q 2988 2547 2838 2694 
Q 2688 2841 2431 2841 
Q 2103 2841 1873 2661 
Q 1644 2481 1522 2131 
L 2969 2131 
z
" transform="scale(0.015625)"/>
     </defs>
     <use xlink:href="#DejaVuSans-BoldOblique-57"/>
     <use xlink:href="#DejaVuSans-BoldOblique-54" transform="translate(110.302734 0)"/>
     <use xlink:href="#DejaVuSans-BoldOblique-5f" transform="translate(178.515625 0)"/>
     <use xlink:href="#DejaVuSans-BoldOblique-62" transform="translate(228.515625 0)"/>
     <use xlink:href="#DejaVuSans-BoldOblique-61" transform="translate(300.097656 0)"/>
     <use xlink:href="#DejaVuSans-BoldOblique-73" transform="translate(367.578125 0)"/>
     <use xlink:href="#DejaVuSans-BoldOblique-65" transform="translate(427.099609 0)"/>
    </g>
   </g>
  </g>
  <g id="axes_3">
   <g id="patch_18">
    <path d="M 577.03125 188.958125 
L 734.65525 188.958125 
L 734.65525 22.318125 
L 577.03125 22.318125 
z
" style="fill: #ffffff"/>
   </g>
   <g id="patch_19">
    <path d="M 577.03125 188.958125 
L 584.537155 188.958125 
L 584.537155 180.626125 
L 577.03125 180.626125 
z
" clip-path="url(#pb8b3a38dca)" style="stroke: #000000; stroke-linejoin: miter"/>
   </g>
   <g id="patch_20">
    <path d="M 584.537155 188.958125 
L 607.054869 188.958125 
L 607.054869 180.626125 
L 584.537155 180.626125 
z
" clip-path="url(#pb8b3a38dca)" style="fill: #ffffff; stroke: #000000; stroke-linejoin: miter"/>
   </g>
   <g id="patch_21">
    <path d="M 607.054869 188.958125 
L 614.560774 188.958125 
L 614.560774 180.626125 
L 607.054869 180.626125 
z
" clip-path="url(#pb8b3a38dca)" style="stroke: #000000; stroke-linejoin: miter"/>
   </g>
   <g id="patch_22">
    <path d="M 614.560774 188.958125 
L 622.066679 188.958125 
L 622.066679 180.626125 
L 614.560774 180.626125 
z
" clip-path="url(#pb8b3a38dca)" style="fill: #ffffff; stroke: #000000; stroke-linejoin: miter"/>
   </g>
   <g id="patch_23">
    <path d="M 622.066679 188.958125 
L 644.584393 188.958125 
L 644.584393 180.626125 
L 622.066679 180.626125 
z
" clip-path="url(#pb8b3a38dca)" style="stroke: #000000; stroke-linejoin: miter"/>
   </g>
   <g id="patch_24">
    <path d="M 644.584393 188.958125 
L 712.137536 188.958125 
L 712.137536 180.626125 
L 644.584393 180.626125 
z
" clip-path="url(#pb8b3a38dca)" style="fill: #ffffff; stroke: #000000; stroke-linejoin: miter"/>
   </g>
   <g id="patch_25">
    <path d="M 712.137536 188.958125 
L 734.65525 188.958125 
L 734.65525 180.626125 
L 712.137536 180.626125 
z
" clip-path="url(#pb8b3a38dca)" style="stroke: #000000; stroke-linejoin: miter"/>
   </g>
   <g id="matplotlib.axis_5">
    <g id="xtick_7">
     <g id="line2d_17">
      <g>
       <use xlink:href="#mbf3d224379" x="584.537155" y="188.958125" style="stroke: #000000; stroke-width: 0.8"/>
      </g>
     </g>
     <g id="text_21">
      <!-- 0 -->
      <g transform="translate(581.355905 203.556563) scale(0.1 -0.1)">
       <use xlink:href="#DejaVuSans-30"/>
      </g>
     </g>
    </g>
    <g id="xtick_8">
     <g id="line2d_18">
      <g>
       <use xlink:href="#mbf3d224379" x="659.596202" y="188.958125" style="stroke: #000000; stroke-width: 0.8"/>
      </g>
     </g>
     <g id="text_22">
      <!-- 10 -->
      <g transform="translate(653.233702 203.556563) scale(0.1 -0.1)">
       <use xlink:href="#DejaVuSans-31"/>
       <use xlink:href="#DejaVuSans-30" transform="translate(63.623047 0)"/>
      </g>
     </g>
    </g>
    <g id="xtick_9">
     <g id="line2d_19">
      <g>
       <use xlink:href="#mbf3d224379" x="734.65525" y="188.958125" style="stroke: #000000; stroke-width: 0.8"/>
      </g>
     </g>
     <g id="text_23">
      <!-- 20 -->
      <g transform="translate(728.29275 203.556563) scale(0.1 -0.1)">
       <use xlink:href="#DejaVuSans-32"/>
       <use xlink:href="#DejaVuSans-30" transform="translate(63.623047 0)"/>
      </g>
     </g>
    </g>
   </g>
   <g id="matplotlib.axis_6">
    <g id="ytick_9">
     <g id="line2d_20">
      <g>
       <use xlink:href="#md9c08a65c0" x="577.03125" y="188.958125" style="stroke: #000000; stroke-width: 0.8"/>
      </g>
     </g>
     <g id="text_24">
      <!-- 0.0 -->
      <g transform="translate(554.128125 192.757344) scale(0.1 -0.1)">
       <use xlink:href="#DejaVuSans-30"/>
       <use xlink:href="#DejaVuSans-2e" transform="translate(63.623047 0)"/>
       <use xlink:href="#DejaVuSans-30" transform="translate(95.410156 0)"/>
      </g>
     </g>
    </g>
    <g id="ytick_10">
     <g id="line2d_21">
      <g>
       <use xlink:href="#md9c08a65c0" x="577.03125" y="147.298125" style="stroke: #000000; stroke-width: 0.8"/>
      </g>
     </g>
     <g id="text_25">
      <!-- 0.5 -->
      <g transform="translate(554.128125 151.097344) scale(0.1 -0.1)">
       <use xlink:href="#DejaVuSans-30"/>
       <use xlink:href="#DejaVuSans-2e" transform="translate(63.623047 0)"/>
       <use xlink:href="#DejaVuSans-35" transform="translate(95.410156 0)"/>
      </g>
     </g>
    </g>
    <g id="ytick_11">
     <g id="line2d_22">
      <g>
       <use xlink:href="#md9c08a65c0" x="577.03125" y="105.638125" style="stroke: #000000; stroke-width: 0.8"/>
      </g>
     </g>
     <g id="text_26">
      <!-- 1.0 -->
      <g transform="translate(554.128125 109.437344) scale(0.1 -0.1)">
       <use xlink:href="#DejaVuSans-31"/>
       <use xlink:href="#DejaVuSans-2e" transform="translate(63.623047 0)"/>
       <use xlink:href="#DejaVuSans-30" transform="translate(95.410156 0)"/>
      </g>
     </g>
    </g>
    <g id="ytick_12">
     <g id="line2d_23">
      <g>
       <use xlink:href="#md9c08a65c0" x="577.03125" y="63.978125" style="stroke: #000000; stroke-width: 0.8"/>
      </g>
     </g>
     <g id="text_27">
      <!-- 1.5 -->
      <g transform="translate(554.128125 67.777344) scale(0.1 -0.1)">
       <use xlink:href="#DejaVuSans-31"/>
       <use xlink:href="#DejaVuSans-2e" transform="translate(63.623047 0)"/>
       <use xlink:href="#DejaVuSans-35" transform="translate(95.410156 0)"/>
      </g>
     </g>
    </g>
    <g id="text_28">
     <!-- $\tau_\mathrm{avg}$ -->
     <g transform="translate(547.028125 115.238125) rotate(-90) scale(0.1 -0.1)">
      <use xlink:href="#DejaVuSans-Oblique-3c4" transform="translate(0 0.3125)"/>
      <use xlink:href="#DejaVuSans-61" transform="translate(60.205078 -16.09375) scale(0.7)"/>
      <use xlink:href="#DejaVuSans-76" transform="translate(103.100586 -16.09375) scale(0.7)"/>
      <use xlink:href="#DejaVuSans-67" transform="translate(144.526367 -16.09375) scale(0.7)"/>
     </g>
    </g>
   </g>
   <g id="line2d_24">
    <path d="M 584.537155 65.632543 
L 584.964991 86.74906 
L 585.460381 100.635725 
L 586.000806 109.796657 
L 586.586267 116.143598 
L 587.216763 120.706855 
L 587.914812 124.189843 
L 588.680414 126.901162 
L 589.536087 129.125786 
L 590.526867 131.085766 
L 591.742823 132.985044 
L 593.274028 134.948563 
L 595.188034 137.032537 
L 597.372252 139.0824 
L 599.646541 140.916698 
L 602.010901 142.538349 
L 604.48785 143.967676 
L 607.054869 145.209582 
L 608.113202 130.36864 
L 608.923839 121.948212 
L 609.666924 116.40699 
L 610.372479 112.710597 
L 611.055516 110.24732 
L 611.716036 108.648806 
L 612.354038 107.649001 
L 612.984534 107.049954 
L 613.637548 106.72873 
L 614.350608 106.627851 
L 614.560774 106.635978 
L 614.921057 122.247939 
L 615.333882 131.263359 
L 615.799248 136.867445 
L 616.30965 140.488263 
L 616.872592 142.962794 
L 617.488077 144.704029 
L 618.163608 145.973058 
L 618.92921 146.948 
L 619.829919 147.733305 
L 620.948299 148.404553 
L 622.066679 148.891454 
L 623.057458 136.39132 
L 623.82306 129.339731 
L 624.543627 124.622452 
L 625.241676 121.444742 
L 625.917208 119.34039 
L 626.592739 117.932841 
L 627.245753 117.053057 
L 627.921284 116.501596 
L 628.641851 116.199658 
L 629.452489 116.103562 
L 630.465786 116.217811 
L 631.861884 116.616938 
L 634.27128 117.574455 
L 641.679608 120.600333 
L 644.584393 121.641914 
L 644.989712 133.666961 
L 645.395031 139.850591 
L 645.867903 143.986343 
L 646.408328 146.78751 
L 647.016306 148.714017 
L 647.624284 149.952081 
L 648.367369 150.950579 
L 649.178007 151.673182 
L 650.191304 152.277778 
L 651.542367 152.812461 
L 653.568961 153.353109 
L 657.41949 154.109615 
L 667.822674 155.870135 
L 683.765216 158.352337 
L 695.181697 159.919259 
L 705.179562 161.067724 
L 712.137536 161.733781 
L 712.903138 156.840914 
L 713.601187 153.728335 
L 714.276719 151.673663 
L 714.95225 150.285271 
L 715.650299 149.327365 
L 716.415901 148.647856 
L 717.271575 148.186727 
L 718.307389 147.889249 
L 719.68097 147.742964 
L 721.775117 147.769423 
L 727.382028 148.153727 
L 734.65525 148.552849 
L 734.65525 148.552849 
" clip-path="url(#pb8b3a38dca)" style="fill: none; stroke: #77ac30; stroke-width: 3; stroke-linecap: square"/>
   </g>
   <g id="patch_26">
    <path d="M 577.03125 188.958125 
L 577.03125 22.318125 
" style="fill: none; stroke: #000000; stroke-width: 0.8; stroke-linejoin: miter; stroke-linecap: square"/>
   </g>
   <g id="patch_27">
    <path d="M 734.65525 188.958125 
L 734.65525 22.318125 
" style="fill: none; stroke: #000000; stroke-width: 0.8; stroke-linejoin: miter; stroke-linecap: square"/>
   </g>
   <g id="patch_28">
    <path d="M 577.03125 188.958125 
L 734.65525 188.958125 
" style="fill: none; stroke: #000000; stroke-width: 0.8; stroke-linejoin: miter; stroke-linecap: square"/>
   </g>
   <g id="patch_29">
    <path d="M 577.03125 22.318125 
L 734.65525 22.318125 
" style="fill: none; stroke: #000000; stroke-width: 0.8; stroke-linejoin: miter; stroke-linecap: square"/>
   </g>
   <g id="text_29">
    <!-- C -->
    <g transform="translate(566.648135 18.1561) scale(0.12 -0.12)">
     <defs>
      <path id="DejaVuSans-Bold-43" d="M 4288 256 
Q 3956 84 3597 -3 
Q 3238 -91 2847 -91 
Q 1681 -91 1000 561 
Q 319 1213 319 2328 
Q 319 3447 1000 4098 
Q 1681 4750 2847 4750 
Q 3238 4750 3597 4662 
Q 3956 4575 4288 4403 
L 4288 3438 
Q 3953 3666 3628 3772 
Q 3303 3878 2944 3878 
Q 2300 3878 1931 3465 
Q 1563 3053 1563 2328 
Q 1563 1606 1931 1193 
Q 2300 781 2944 781 
Q 3303 781 3628 887 
Q 3953 994 4288 1222 
L 4288 256 
z
" transform="scale(0.015625)"/>
     </defs>
     <use xlink:href="#DejaVuSans-Bold-43"/>
    </g>
   </g>
   <g id="text_30">
    <!-- WT_mix -->
    <g transform="translate(629.95325 16.318125) scale(0.12 -0.12)">
     <defs>
      <path id="DejaVuSans-BoldOblique-6d" d="M 4013 2919 
Q 4272 3241 4601 3412 
Q 4931 3584 5288 3584 
Q 5756 3584 6026 3326 
Q 6297 3069 6297 2619 
Q 6297 2525 6283 2404 
Q 6269 2284 6241 2131 
L 5825 0 
L 4697 0 
L 5050 1825 
L 5059 1872 
Q 5141 2259 5141 2369 
Q 5141 2541 5042 2641 
Q 4944 2741 4775 2741 
Q 4453 2741 4229 2477 
Q 4006 2213 3909 1722 
L 3572 0 
L 2444 0 
L 2803 1825 
Q 2850 2059 2869 2179 
Q 2888 2300 2888 2369 
Q 2888 2544 2791 2642 
Q 2694 2741 2522 2741 
Q 2213 2741 1980 2467 
Q 1747 2194 1656 1722 
L 1319 0 
L 197 0 
L 878 3500 
L 2003 3500 
L 1900 2988 
Q 2163 3284 2459 3434 
Q 2756 3584 3078 3584 
Q 3441 3584 3700 3398 
Q 3959 3213 4013 2919 
z
" transform="scale(0.015625)"/>
      <path id="DejaVuSans-BoldOblique-69" d="M 878 3500 
L 2003 3500 
L 1319 0 
L 197 0 
L 878 3500 
z
M 1141 4863 
L 2266 4863 
L 2088 3950 
L 959 3950 
L 1141 4863 
z
" transform="scale(0.015625)"/>
      <path id="DejaVuSans-BoldOblique-78" d="M 1416 1791 
L 488 3500 
L 1650 3500 
L 2169 2463 
L 3078 3500 
L 4294 3500 
L 2700 1797 
L 3675 0 
L 2509 0 
L 1959 1106 
L 953 0 
L -263 0 
L 1416 1791 
z
" transform="scale(0.015625)"/>
     </defs>
     <use xlink:href="#DejaVuSans-BoldOblique-57"/>
     <use xlink:href="#DejaVuSans-BoldOblique-54" transform="translate(110.302734 0)"/>
     <use xlink:href="#DejaVuSans-BoldOblique-5f" transform="translate(178.515625 0)"/>
     <use xlink:href="#DejaVuSans-BoldOblique-6d" transform="translate(228.515625 0)"/>
     <use xlink:href="#DejaVuSans-BoldOblique-69" transform="translate(332.714844 0)"/>
     <use xlink:href="#DejaVuSans-BoldOblique-78" transform="translate(366.992188 0)"/>
    </g>
   </g>
  </g>
  <g id="axes_4">
   <g id="patch_30">
    <path d="M 43.78125 399.558125 
L 201.40525 399.558125 
L 201.40525 232.918125 
L 43.78125 232.918125 
z
" style="fill: #ffffff"/>
   </g>
   <g id="patch_31">
    <path d="M 43.78125 399.558125 
L 51.287155 399.558125 
L 51.287155 391.226125 
L 43.78125 391.226125 
z
" clip-path="url(#pa05486165e)" style="stroke: #000000; stroke-linejoin: miter"/>
   </g>
   <g id="patch_32">
    <path d="M 51.287155 399.558125 
L 88.816679 399.558125 
L 88.816679 391.226125 
L 51.287155 391.226125 
z
" clip-path="url(#pa05486165e)" style="fill: #ffffff; stroke: #000000; stroke-linejoin: miter"/>
   </g>
   <g id="patch_33">
    <path d="M 88.816679 399.558125 
L 163.875726 399.558125 
L 163.875726 391.226125 
L 88.816679 391.226125 
z
" clip-path="url(#pa05486165e)" style="stroke: #000000; stroke-linejoin: miter"/>
   </g>
   <g id="patch_34">
    <path d="M 163.875726 399.558125 
L 201.40525 399.558125 
L 201.40525 391.226125 
L 163.875726 391.226125 
z
" clip-path="url(#pa05486165e)" style="fill: #ffffff; stroke: #000000; stroke-linejoin: miter"/>
   </g>
   <g id="matplotlib.axis_7">
    <g id="xtick_10">
     <g id="line2d_25">
      <g>
       <use xlink:href="#mbf3d224379" x="51.287155" y="399.558125" style="stroke: #000000; stroke-width: 0.8"/>
      </g>
     </g>
     <g id="text_31">
      <!-- 0 -->
      <g transform="translate(48.105905 414.156563) scale(0.1 -0.1)">
       <use xlink:href="#DejaVuSans-30"/>
      </g>
     </g>
    </g>
    <g id="xtick_11">
     <g id="line2d_26">
      <g>
       <use xlink:href="#mbf3d224379" x="126.346202" y="399.558125" style="stroke: #000000; stroke-width: 0.8"/>
      </g>
     </g>
     <g id="text_32">
      <!-- 10 -->
      <g transform="translate(119.983702 414.156563) scale(0.1 -0.1)">
       <use xlink:href="#DejaVuSans-31"/>
       <use xlink:href="#DejaVuSans-30" transform="translate(63.623047 0)"/>
      </g>
     </g>
    </g>
    <g id="xtick_12">
     <g id="line2d_27">
      <g>
       <use xlink:href="#mbf3d224379" x="201.40525" y="399.558125" style="stroke: #000000; stroke-width: 0.8"/>
      </g>
     </g>
     <g id="text_33">
      <!-- 20 -->
      <g transform="translate(195.04275 414.156563) scale(0.1 -0.1)">
       <use xlink:href="#DejaVuSans-32"/>
       <use xlink:href="#DejaVuSans-30" transform="translate(63.623047 0)"/>
      </g>
     </g>
    </g>
   </g>
   <g id="matplotlib.axis_8">
    <g id="ytick_13">
     <g id="line2d_28">
      <g>
       <use xlink:href="#md9c08a65c0" x="43.78125" y="399.558125" style="stroke: #000000; stroke-width: 0.8"/>
      </g>
     </g>
     <g id="text_34">
      <!-- 0.0 -->
      <g transform="translate(20.878125 403.357344) scale(0.1 -0.1)">
       <use xlink:href="#DejaVuSans-30"/>
       <use xlink:href="#DejaVuSans-2e" transform="translate(63.623047 0)"/>
       <use xlink:href="#DejaVuSans-30" transform="translate(95.410156 0)"/>
      </g>
     </g>
    </g>
    <g id="ytick_14">
     <g id="line2d_29">
      <g>
       <use xlink:href="#md9c08a65c0" x="43.78125" y="357.898125" style="stroke: #000000; stroke-width: 0.8"/>
      </g>
     </g>
     <g id="text_35">
      <!-- 0.5 -->
      <g transform="translate(20.878125 361.697344) scale(0.1 -0.1)">
       <use xlink:href="#DejaVuSans-30"/>
       <use xlink:href="#DejaVuSans-2e" transform="translate(63.623047 0)"/>
       <use xlink:href="#DejaVuSans-35" transform="translate(95.410156 0)"/>
      </g>
     </g>
    </g>
    <g id="ytick_15">
     <g id="line2d_30">
      <g>
       <use xlink:href="#md9c08a65c0" x="43.78125" y="316.238125" style="stroke: #000000; stroke-width: 0.8"/>
      </g>
     </g>
     <g id="text_36">
      <!-- 1.0 -->
      <g transform="translate(20.878125 320.037344) scale(0.1 -0.1)">
       <use xlink:href="#DejaVuSans-31"/>
       <use xlink:href="#DejaVuSans-2e" transform="translate(63.623047 0)"/>
       <use xlink:href="#DejaVuSans-30" transform="translate(95.410156 0)"/>
      </g>
     </g>
    </g>
    <g id="ytick_16">
     <g id="line2d_31">
      <g>
       <use xlink:href="#md9c08a65c0" x="43.78125" y="274.578125" style="stroke: #000000; stroke-width: 0.8"/>
      </g>
     </g>
     <g id="text_37">
      <!-- 1.5 -->
      <g transform="translate(20.878125 278.377344) scale(0.1 -0.1)">
       <use xlink:href="#DejaVuSans-31"/>
       <use xlink:href="#DejaVuSans-2e" transform="translate(63.623047 0)"/>
       <use xlink:href="#DejaVuSans-35" transform="translate(95.410156 0)"/>
      </g>
     </g>
    </g>
    <g id="text_38">
     <!-- $\tau_\mathrm{avg}$ -->
     <g transform="translate(13.778125 325.838125) rotate(-90) scale(0.1 -0.1)">
      <use xlink:href="#DejaVuSans-Oblique-3c4" transform="translate(0 0.3125)"/>
      <use xlink:href="#DejaVuSans-61" transform="translate(60.205078 -16.09375) scale(0.7)"/>
      <use xlink:href="#DejaVuSans-76" transform="translate(103.100586 -16.09375) scale(0.7)"/>
      <use xlink:href="#DejaVuSans-67" transform="translate(144.526367 -16.09375) scale(0.7)"/>
     </g>
    </g>
   </g>
   <g id="line2d_32">
    <path d="M 51.287155 299.805266 
L 51.887627 307.437323 
L 52.525629 312.908442 
L 53.23869 317.19113 
L 54.02681 320.605817 
L 54.927519 323.511339 
L 55.940816 326.036548 
L 57.17929 328.512081 
L 58.680471 331.007911 
L 60.556947 333.688168 
L 62.771189 336.458608 
L 65.173079 339.110563 
L 67.687557 341.559588 
L 70.314623 343.808728 
L 73.054279 345.863158 
L 75.981581 347.779207 
L 79.134061 349.574106 
L 82.586778 351.279568 
L 86.414789 352.916661 
L 88.816679 353.833394 
L 89.417151 350.13087 
L 90.017623 347.727868 
L 90.618096 346.212893 
L 91.218568 345.275474 
L 91.81904 344.709143 
L 92.494572 344.35494 
L 93.320221 344.17467 
L 94.371048 344.179478 
L 95.947288 344.437145 
L 98.724473 345.163421 
L 110.058389 348.282428 
L 117.564294 350.053982 
L 125.895848 351.788195 
L 135.278229 353.508818 
L 145.786496 355.204379 
L 157.570766 356.875366 
L 163.875726 357.686846 
L 164.36361 359.855585 
L 164.889023 361.24917 
L 165.489496 362.22849 
L 166.202557 362.952832 
L 167.065736 363.507769 
L 168.26668 364.001077 
L 170.105627 364.492917 
L 173.595873 365.15666 
L 181.889898 366.468597 
L 190.709336 367.650188 
L 200.391953 368.71424 
L 201.40525 368.814295 
L 201.40525 368.814295 
" clip-path="url(#pa05486165e)" style="fill: none; stroke: #77ac30; stroke-width: 3; stroke-linecap: square"/>
   </g>
   <g id="patch_35">
    <path d="M 43.78125 399.558125 
L 43.78125 232.918125 
" style="fill: none; stroke: #000000; stroke-width: 0.8; stroke-linejoin: miter; stroke-linecap: square"/>
   </g>
   <g id="patch_36">
    <path d="M 201.40525 399.558125 
L 201.40525 232.918125 
" style="fill: none; stroke: #000000; stroke-width: 0.8; stroke-linejoin: miter; stroke-linecap: square"/>
   </g>
   <g id="patch_37">
    <path d="M 43.78125 399.558125 
L 201.40525 399.558125 
" style="fill: none; stroke: #000000; stroke-width: 0.8; stroke-linejoin: miter; stroke-linecap: square"/>
   </g>
   <g id="patch_38">
    <path d="M 43.78125 232.918125 
L 201.40525 232.918125 
" style="fill: none; stroke: #000000; stroke-width: 0.8; stroke-linejoin: miter; stroke-linecap: square"/>
   </g>
   <g id="text_39">
    <!-- D -->
    <g transform="translate(32.243135 228.7561) scale(0.12 -0.12)">
     <defs>
      <path id="DejaVuSans-Bold-44" d="M 1791 3756 
L 1791 909 
L 2222 909 
Q 2959 909 3348 1275 
Q 3738 1641 3738 2338 
Q 3738 3031 3350 3393 
Q 2963 3756 2222 3756 
L 1791 3756 
z
M 588 4666 
L 1856 4666 
Q 2919 4666 3439 4514 
Q 3959 4363 4331 4000 
Q 4659 3684 4818 3271 
Q 4978 2859 4978 2338 
Q 4978 1809 4818 1395 
Q 4659 981 4331 666 
Q 3956 303 3431 151 
Q 2906 0 1856 0 
L 588 0 
L 588 4666 
z
" transform="scale(0.015625)"/>
     </defs>
     <use xlink:href="#DejaVuSans-Bold-44"/>
    </g>
   </g>
   <g id="text_40">
    <!-- zep2lut2 -->
    <g transform="translate(93.191375 226.918125) scale(0.12 -0.12)">
     <defs>
      <path id="DejaVuSans-BoldOblique-7a" d="M 697 3500 
L 3750 3500 
L 3597 2719 
L 1416 800 
L 3225 800 
L 3072 0 
L -56 0 
L 91 781 
L 2278 2700 
L 544 2700 
L 697 3500 
z
" transform="scale(0.015625)"/>
      <path id="DejaVuSans-BoldOblique-70" d="M 1422 506 
L 1063 -1331 
L -63 -1331 
L 878 3500 
L 2003 3500 
L 1900 2988 
Q 2156 3294 2437 3439 
Q 2719 3584 3053 3584 
Q 3644 3584 3987 3209 
Q 4331 2834 4331 2188 
Q 4331 1784 4211 1403 
Q 4091 1022 3866 709 
Q 3581 316 3223 112 
Q 2866 -91 2456 -91 
Q 2097 -91 1845 54 
Q 1594 200 1422 506 
z
M 2597 2772 
Q 2166 2772 1892 2373 
Q 1619 1975 1619 1338 
Q 1619 1050 1773 886 
Q 1928 722 2203 722 
Q 2625 722 2900 1114 
Q 3175 1506 3175 2119 
Q 3175 2438 3026 2605 
Q 2878 2772 2597 2772 
z
" transform="scale(0.015625)"/>
      <path id="DejaVuSans-BoldOblique-32" d="M 1581 884 
L 3609 884 
L 3438 0 
L 50 0 
L 225 891 
L 2209 2388 
Q 2534 2638 2704 2894 
Q 2875 3150 2875 3391 
Q 2875 3647 2700 3787 
Q 2525 3928 2209 3928 
Q 1913 3928 1547 3811 
Q 1181 3694 722 3450 
L 922 4441 
Q 1347 4597 1756 4673 
Q 2166 4750 2566 4750 
Q 3278 4750 3687 4442 
Q 4097 4134 4097 3603 
Q 4097 3147 3847 2772 
Q 3597 2397 2747 1759 
L 1581 884 
z
" transform="scale(0.015625)"/>
      <path id="DejaVuSans-BoldOblique-6c" d="M 1141 4863 
L 2266 4863 
L 1319 0 
L 197 0 
L 1141 4863 
z
" transform="scale(0.015625)"/>
      <path id="DejaVuSans-BoldOblique-75" d="M 434 1363 
L 844 3500 
L 1966 3500 
L 1613 1678 
Q 1575 1500 1556 1375 
Q 1538 1250 1538 1178 
Q 1538 981 1647 872 
Q 1756 763 1959 763 
Q 2306 763 2556 1031 
Q 2806 1300 2900 1778 
L 3238 3500 
L 4359 3500 
L 3681 0 
L 2553 0 
L 2656 513 
Q 2369 209 2053 59 
Q 1738 -91 1388 -91 
Q 909 -91 646 162 
Q 384 416 384 878 
Q 384 988 396 1109 
Q 409 1231 434 1363 
z
" transform="scale(0.015625)"/>
      <path id="DejaVuSans-BoldOblique-74" d="M 2303 4494 
L 2113 3500 
L 3256 3500 
L 3097 2700 
L 1953 2700 
L 1666 1219 
Q 1653 1169 1648 1134 
Q 1644 1100 1644 1069 
Q 1644 925 1739 862 
Q 1834 800 2059 800 
L 2638 800 
L 2478 0 
L 1538 0 
Q 1031 0 765 212 
Q 500 425 500 825 
Q 500 913 509 1013 
Q 519 1113 538 1216 
L 825 2700 
L 275 2700 
L 428 3500 
L 984 3500 
L 1178 4494 
L 2303 4494 
z
" transform="scale(0.015625)"/>
     </defs>
     <use xlink:href="#DejaVuSans-BoldOblique-7a"/>
     <use xlink:href="#DejaVuSans-BoldOblique-65" transform="translate(58.203125 0)"/>
     <use xlink:href="#DejaVuSans-BoldOblique-70" transform="translate(126.025391 0)"/>
     <use xlink:href="#DejaVuSans-BoldOblique-32" transform="translate(197.607422 0)"/>
     <use xlink:href="#DejaVuSans-BoldOblique-6c" transform="translate(267.1875 0)"/>
     <use xlink:href="#DejaVuSans-BoldOblique-75" transform="translate(301.464844 0)"/>
     <use xlink:href="#DejaVuSans-BoldOblique-74" transform="translate(372.65625 0)"/>
     <use xlink:href="#DejaVuSans-BoldOblique-32" transform="translate(420.458984 0)"/>
    </g>
   </g>
  </g>
  <g id="axes_5">
   <g id="patch_39">
    <path d="M 257.08125 399.558125 
L 414.70525 399.558125 
L 414.70525 232.918125 
L 257.08125 232.918125 
z
" style="fill: #ffffff"/>
   </g>
   <g id="patch_40">
    <path d="M 257.08125 399.558125 
L 264.587155 399.558125 
L 264.587155 391.226125 
L 257.08125 391.226125 
z
" clip-path="url(#pda78867f38)" style="stroke: #000000; stroke-linejoin: miter"/>
   </g>
   <g id="patch_41">
    <path d="M 264.587155 399.558125 
L 302.116679 399.558125 
L 302.116679 391.226125 
L 264.587155 391.226125 
z
" clip-path="url(#pda78867f38)" style="fill: #ffffff; stroke: #000000; stroke-linejoin: miter"/>
   </g>
   <g id="patch_42">
    <path d="M 302.116679 399.558125 
L 377.175726 399.558125 
L 377.175726 391.226125 
L 302.116679 391.226125 
z
" clip-path="url(#pda78867f38)" style="stroke: #000000; stroke-linejoin: miter"/>
   </g>
   <g id="patch_43">
    <path d="M 377.175726 399.558125 
L 414.70525 399.558125 
L 414.70525 391.226125 
L 377.175726 391.226125 
z
" clip-path="url(#pda78867f38)" style="fill: #ffffff; stroke: #000000; stroke-linejoin: miter"/>
   </g>
   <g id="matplotlib.axis_9">
    <g id="xtick_13">
     <g id="line2d_33">
      <g>
       <use xlink:href="#mbf3d224379" x="264.587155" y="399.558125" style="stroke: #000000; stroke-width: 0.8"/>
      </g>
     </g>
     <g id="text_41">
      <!-- 0 -->
      <g transform="translate(261.405905 414.156563) scale(0.1 -0.1)">
       <use xlink:href="#DejaVuSans-30"/>
      </g>
     </g>
    </g>
    <g id="xtick_14">
     <g id="line2d_34">
      <g>
       <use xlink:href="#mbf3d224379" x="339.646202" y="399.558125" style="stroke: #000000; stroke-width: 0.8"/>
      </g>
     </g>
     <g id="text_42">
      <!-- 10 -->
      <g transform="translate(333.283702 414.156563) scale(0.1 -0.1)">
       <use xlink:href="#DejaVuSans-31"/>
       <use xlink:href="#DejaVuSans-30" transform="translate(63.623047 0)"/>
      </g>
     </g>
    </g>
    <g id="xtick_15">
     <g id="line2d_35">
      <g>
       <use xlink:href="#mbf3d224379" x="414.70525" y="399.558125" style="stroke: #000000; stroke-width: 0.8"/>
      </g>
     </g>
     <g id="text_43">
      <!-- 20 -->
      <g transform="translate(408.34275 414.156563) scale(0.1 -0.1)">
       <use xlink:href="#DejaVuSans-32"/>
       <use xlink:href="#DejaVuSans-30" transform="translate(63.623047 0)"/>
      </g>
     </g>
    </g>
   </g>
   <g id="matplotlib.axis_10">
    <g id="ytick_17">
     <g id="line2d_36">
      <g>
       <use xlink:href="#md9c08a65c0" x="257.08125" y="399.558125" style="stroke: #000000; stroke-width: 0.8"/>
      </g>
     </g>
     <g id="text_44">
      <!-- 0.0 -->
      <g transform="translate(234.178125 403.357344) scale(0.1 -0.1)">
       <use xlink:href="#DejaVuSans-30"/>
       <use xlink:href="#DejaVuSans-2e" transform="translate(63.623047 0)"/>
       <use xlink:href="#DejaVuSans-30" transform="translate(95.410156 0)"/>
      </g>
     </g>
    </g>
    <g id="ytick_18">
     <g id="line2d_37">
      <g>
       <use xlink:href="#md9c08a65c0" x="257.08125" y="357.898125" style="stroke: #000000; stroke-width: 0.8"/>
      </g>
     </g>
     <g id="text_45">
      <!-- 0.5 -->
      <g transform="translate(234.178125 361.697344) scale(0.1 -0.1)">
       <use xlink:href="#DejaVuSans-30"/>
       <use xlink:href="#DejaVuSans-2e" transform="translate(63.623047 0)"/>
       <use xlink:href="#DejaVuSans-35" transform="translate(95.410156 0)"/>
      </g>
     </g>
    </g>
    <g id="ytick_19">
     <g id="line2d_38">
      <g>
       <use xlink:href="#md9c08a65c0" x="257.08125" y="316.238125" style="stroke: #000000; stroke-width: 0.8"/>
      </g>
     </g>
     <g id="text_46">
      <!-- 1.0 -->
      <g transform="translate(234.178125 320.037344) scale(0.1 -0.1)">
       <use xlink:href="#DejaVuSans-31"/>
       <use xlink:href="#DejaVuSans-2e" transform="translate(63.623047 0)"/>
       <use xlink:href="#DejaVuSans-30" transform="translate(95.410156 0)"/>
      </g>
     </g>
    </g>
    <g id="ytick_20">
     <g id="line2d_39">
      <g>
       <use xlink:href="#md9c08a65c0" x="257.08125" y="274.578125" style="stroke: #000000; stroke-width: 0.8"/>
      </g>
     </g>
     <g id="text_47">
      <!-- 1.5 -->
      <g transform="translate(234.178125 278.377344) scale(0.1 -0.1)">
       <use xlink:href="#DejaVuSans-31"/>
       <use xlink:href="#DejaVuSans-2e" transform="translate(63.623047 0)"/>
       <use xlink:href="#DejaVuSans-35" transform="translate(95.410156 0)"/>
      </g>
     </g>
    </g>
    <g id="text_48">
     <!-- $\tau_\mathrm{avg}$ -->
     <g transform="translate(227.078125 325.838125) rotate(-90) scale(0.1 -0.1)">
      <use xlink:href="#DejaVuSans-Oblique-3c4" transform="translate(0 0.3125)"/>
      <use xlink:href="#DejaVuSans-61" transform="translate(60.205078 -16.09375) scale(0.7)"/>
      <use xlink:href="#DejaVuSans-76" transform="translate(103.100586 -16.09375) scale(0.7)"/>
      <use xlink:href="#DejaVuSans-67" transform="translate(144.526367 -16.09375) scale(0.7)"/>
     </g>
    </g>
   </g>
   <g id="line2d_40">
    <path d="M 264.587155 299.805228 
L 265.187627 307.30887 
L 265.863159 313.040707 
L 266.57622 317.267078 
L 267.36434 320.635317 
L 268.227519 323.371226 
L 269.203286 325.737241 
L 270.329172 327.892598 
L 271.680235 330.00064 
L 273.369063 332.209946 
L 275.433187 334.530026 
L 277.835077 336.89225 
L 280.537202 339.238978 
L 283.502035 341.519549 
L 286.729574 343.719414 
L 290.21982 345.826783 
L 294.010301 347.852949 
L 298.138549 349.804349 
L 302.116679 351.476706 
L 302.867269 349.888378 
L 303.61786 348.778249 
L 304.36845 348.033966 
L 305.1941 347.524818 
L 306.094808 347.228041 
L 307.220694 347.103077 
L 308.721875 347.180647 
L 311.048705 347.549819 
L 317.428724 348.881101 
L 327.26146 350.831005 
L 337.619608 352.652064 
L 349.103642 354.440724 
L 361.788621 356.187563 
L 375.899722 357.901952 
L 377.213256 358.131615 
L 377.926317 359.459286 
L 378.714437 360.468154 
L 379.615145 361.258341 
L 380.703501 361.906912 
L 382.129623 362.478807 
L 384.193747 363.043184 
L 387.759052 363.756047 
L 394.852132 364.918482 
L 404.609808 366.293722 
L 414.70525 367.517341 
L 414.70525 367.517341 
" clip-path="url(#pda78867f38)" style="fill: none; stroke: #77ac30; stroke-width: 3; stroke-linecap: square"/>
   </g>
   <g id="patch_44">
    <path d="M 257.08125 399.558125 
L 257.08125 232.918125 
" style="fill: none; stroke: #000000; stroke-width: 0.8; stroke-linejoin: miter; stroke-linecap: square"/>
   </g>
   <g id="patch_45">
    <path d="M 414.70525 399.558125 
L 414.70525 232.918125 
" style="fill: none; stroke: #000000; stroke-width: 0.8; stroke-linejoin: miter; stroke-linecap: square"/>
   </g>
   <g id="patch_46">
    <path d="M 257.08125 399.558125 
L 414.70525 399.558125 
" style="fill: none; stroke: #000000; stroke-width: 0.8; stroke-linejoin: miter; stroke-linecap: square"/>
   </g>
   <g id="patch_47">
    <path d="M 257.08125 232.918125 
L 414.70525 232.918125 
" style="fill: none; stroke: #000000; stroke-width: 0.8; stroke-linejoin: miter; stroke-linecap: square"/>
   </g>
   <g id="text_49">
    <!-- E -->
    <g transform="translate(247.30751 228.7561) scale(0.12 -0.12)">
     <defs>
      <path id="DejaVuSans-Bold-45" d="M 588 4666 
L 3834 4666 
L 3834 3756 
L 1791 3756 
L 1791 2888 
L 3713 2888 
L 3713 1978 
L 1791 1978 
L 1791 909 
L 3903 909 
L 3903 0 
L 588 0 
L 588 4666 
z
" transform="scale(0.015625)"/>
     </defs>
     <use xlink:href="#DejaVuSans-Bold-45"/>
    </g>
   </g>
   <g id="text_50">
    <!-- npq1lut2 -->
    <g transform="translate(305.487313 226.918125) scale(0.12 -0.12)">
     <defs>
      <path id="DejaVuSans-BoldOblique-6e" d="M 4128 2131 
L 3713 0 
L 2591 0 
L 2944 1825 
Q 2981 2003 3001 2126 
Q 3022 2250 3022 2322 
Q 3022 2522 2911 2631 
Q 2800 2741 2597 2741 
Q 2250 2741 2001 2470 
Q 1753 2200 1656 1722 
L 1319 0 
L 197 0 
L 878 3500 
L 2003 3500 
L 1900 2988 
Q 2209 3291 2521 3437 
Q 2834 3584 3175 3584 
Q 3659 3584 3921 3331 
Q 4184 3078 4184 2619 
Q 4184 2519 4170 2397 
Q 4156 2275 4128 2131 
z
" transform="scale(0.015625)"/>
      <path id="DejaVuSans-BoldOblique-71" d="M 3144 2988 
L 3238 3500 
L 4366 3500 
L 3425 -1331 
L 2297 -1331 
L 2656 506 
Q 2406 200 2125 54 
Q 1844 -91 1509 -91 
Q 919 -91 575 284 
Q 231 659 231 1306 
Q 231 1709 351 2090 
Q 472 2472 697 2784 
Q 981 3178 1339 3381 
Q 1697 3584 2106 3584 
Q 2466 3584 2717 3439 
Q 2969 3294 3144 2988 
z
M 1966 722 
Q 2397 722 2667 1119 
Q 2938 1516 2938 2156 
Q 2938 2447 2786 2609 
Q 2634 2772 2363 2772 
Q 1938 2772 1663 2380 
Q 1388 1988 1388 1375 
Q 1388 1056 1536 889 
Q 1684 722 1966 722 
z
" transform="scale(0.015625)"/>
      <path id="DejaVuSans-BoldOblique-31" d="M 441 831 
L 1503 831 
L 2088 3847 
L 953 3622 
L 1113 4441 
L 2241 4666 
L 3384 4666 
L 2644 831 
L 3700 831 
L 3541 0 
L 275 0 
L 441 831 
z
" transform="scale(0.015625)"/>
     </defs>
     <use xlink:href="#DejaVuSans-BoldOblique-6e"/>
     <use xlink:href="#DejaVuSans-BoldOblique-70" transform="translate(71.191406 0)"/>
     <use xlink:href="#DejaVuSans-BoldOblique-71" transform="translate(142.773438 0)"/>
     <use xlink:href="#DejaVuSans-BoldOblique-31" transform="translate(214.355469 0)"/>
     <use xlink:href="#DejaVuSans-BoldOblique-6c" transform="translate(283.935547 0)"/>
     <use xlink:href="#DejaVuSans-BoldOblique-75" transform="translate(318.212891 0)"/>
     <use xlink:href="#DejaVuSans-BoldOblique-74" transform="translate(389.404297 0)"/>
     <use xlink:href="#DejaVuSans-BoldOblique-32" transform="translate(437.207031 0)"/>
    </g>
   </g>
  </g>
  <g id="axes_6">
   <g id="patch_48">
    <path d="M 470.38125 399.558125 
L 628.00525 399.558125 
L 628.00525 232.918125 
L 470.38125 232.918125 
z
" style="fill: #ffffff"/>
   </g>
   <g id="patch_49">
    <path d="M 470.38125 399.558125 
L 477.887155 399.558125 
L 477.887155 391.226125 
L 470.38125 391.226125 
z
" clip-path="url(#p98d468ec3e)" style="stroke: #000000; stroke-linejoin: miter"/>
   </g>
   <g id="patch_50">
    <path d="M 477.887155 399.558125 
L 515.416679 399.558125 
L 515.416679 391.226125 
L 477.887155 391.226125 
z
" clip-path="url(#p98d468ec3e)" style="fill: #ffffff; stroke: #000000; stroke-linejoin: miter"/>
   </g>
   <g id="patch_51">
    <path d="M 515.416679 399.558125 
L 590.475726 399.558125 
L 590.475726 391.226125 
L 515.416679 391.226125 
z
" clip-path="url(#p98d468ec3e)" style="stroke: #000000; stroke-linejoin: miter"/>
   </g>
   <g id="patch_52">
    <path d="M 590.475726 399.558125 
L 628.00525 399.558125 
L 628.00525 391.226125 
L 590.475726 391.226125 
z
" clip-path="url(#p98d468ec3e)" style="fill: #ffffff; stroke: #000000; stroke-linejoin: miter"/>
   </g>
   <g id="matplotlib.axis_11">
    <g id="xtick_16">
     <g id="line2d_41">
      <g>
       <use xlink:href="#mbf3d224379" x="477.887155" y="399.558125" style="stroke: #000000; stroke-width: 0.8"/>
      </g>
     </g>
     <g id="text_51">
      <!-- 0 -->
      <g transform="translate(474.705905 414.156563) scale(0.1 -0.1)">
       <use xlink:href="#DejaVuSans-30"/>
      </g>
     </g>
    </g>
    <g id="xtick_17">
     <g id="line2d_42">
      <g>
       <use xlink:href="#mbf3d224379" x="552.946202" y="399.558125" style="stroke: #000000; stroke-width: 0.8"/>
      </g>
     </g>
     <g id="text_52">
      <!-- 10 -->
      <g transform="translate(546.583702 414.156563) scale(0.1 -0.1)">
       <use xlink:href="#DejaVuSans-31"/>
       <use xlink:href="#DejaVuSans-30" transform="translate(63.623047 0)"/>
      </g>
     </g>
    </g>
    <g id="xtick_18">
     <g id="line2d_43">
      <g>
       <use xlink:href="#mbf3d224379" x="628.00525" y="399.558125" style="stroke: #000000; stroke-width: 0.8"/>
      </g>
     </g>
     <g id="text_53">
      <!-- 20 -->
      <g transform="translate(621.64275 414.156563) scale(0.1 -0.1)">
       <use xlink:href="#DejaVuSans-32"/>
       <use xlink:href="#DejaVuSans-30" transform="translate(63.623047 0)"/>
      </g>
     </g>
    </g>
   </g>
   <g id="matplotlib.axis_12">
    <g id="ytick_21">
     <g id="line2d_44">
      <g>
       <use xlink:href="#md9c08a65c0" x="470.38125" y="399.558125" style="stroke: #000000; stroke-width: 0.8"/>
      </g>
     </g>
     <g id="text_54">
      <!-- 0.0 -->
      <g transform="translate(447.478125 403.357344) scale(0.1 -0.1)">
       <use xlink:href="#DejaVuSans-30"/>
       <use xlink:href="#DejaVuSans-2e" transform="translate(63.623047 0)"/>
       <use xlink:href="#DejaVuSans-30" transform="translate(95.410156 0)"/>
      </g>
     </g>
    </g>
    <g id="ytick_22">
     <g id="line2d_45">
      <g>
       <use xlink:href="#md9c08a65c0" x="470.38125" y="357.898125" style="stroke: #000000; stroke-width: 0.8"/>
      </g>
     </g>
     <g id="text_55">
      <!-- 0.5 -->
      <g transform="translate(447.478125 361.697344) scale(0.1 -0.1)">
       <use xlink:href="#DejaVuSans-30"/>
       <use xlink:href="#DejaVuSans-2e" transform="translate(63.623047 0)"/>
       <use xlink:href="#DejaVuSans-35" transform="translate(95.410156 0)"/>
      </g>
     </g>
    </g>
    <g id="ytick_23">
     <g id="line2d_46">
      <g>
       <use xlink:href="#md9c08a65c0" x="470.38125" y="316.238125" style="stroke: #000000; stroke-width: 0.8"/>
      </g>
     </g>
     <g id="text_56">
      <!-- 1.0 -->
      <g transform="translate(447.478125 320.037344) scale(0.1 -0.1)">
       <use xlink:href="#DejaVuSans-31"/>
       <use xlink:href="#DejaVuSans-2e" transform="translate(63.623047 0)"/>
       <use xlink:href="#DejaVuSans-30" transform="translate(95.410156 0)"/>
      </g>
     </g>
    </g>
    <g id="ytick_24">
     <g id="line2d_47">
      <g>
       <use xlink:href="#md9c08a65c0" x="470.38125" y="274.578125" style="stroke: #000000; stroke-width: 0.8"/>
      </g>
     </g>
     <g id="text_57">
      <!-- 1.5 -->
      <g transform="translate(447.478125 278.377344) scale(0.1 -0.1)">
       <use xlink:href="#DejaVuSans-31"/>
       <use xlink:href="#DejaVuSans-2e" transform="translate(63.623047 0)"/>
       <use xlink:href="#DejaVuSans-35" transform="translate(95.410156 0)"/>
      </g>
     </g>
    </g>
    <g id="text_58">
     <!-- $\tau_\mathrm{avg}$ -->
     <g transform="translate(440.378125 325.838125) rotate(-90) scale(0.1 -0.1)">
      <use xlink:href="#DejaVuSans-Oblique-3c4" transform="translate(0 0.3125)"/>
      <use xlink:href="#DejaVuSans-61" transform="translate(60.205078 -16.09375) scale(0.7)"/>
      <use xlink:href="#DejaVuSans-76" transform="translate(103.100586 -16.09375) scale(0.7)"/>
      <use xlink:href="#DejaVuSans-67" transform="translate(144.526367 -16.09375) scale(0.7)"/>
     </g>
    </g>
   </g>
   <g id="line2d_48">
    <path d="M 477.887155 299.805259 
L 479.575983 304.380628 
L 481.3774 308.613187 
L 483.291406 312.544129 
L 485.35553 316.281234 
L 487.607301 319.903279 
L 490.08425 323.467869 
L 492.786376 326.969043 
L 495.751208 330.444366 
L 498.941218 333.837756 
L 502.318875 337.106242 
L 505.88418 340.248582 
L 509.637132 343.261263 
L 513.577732 346.139757 
L 516.167269 347.807098 
L 519.619985 349.553273 
L 523.22282 351.121842 
L 527.050831 352.545316 
L 531.329197 353.893427 
L 536.057917 355.146734 
L 541.462168 356.3445 
L 547.692069 357.492698 
L 555.047856 358.616183 
L 563.904823 359.736509 
L 574.863444 360.888724 
L 588.674309 362.10656 
L 593.252911 362.588836 
L 603.460941 363.959188 
L 612.655675 365.43953 
L 628.00525 368.091441 
L 628.00525 368.091441 
" clip-path="url(#p98d468ec3e)" style="fill: none; stroke: #77ac30; stroke-width: 3; stroke-linecap: square"/>
   </g>
   <g id="patch_53">
    <path d="M 470.38125 399.558125 
L 470.38125 232.918125 
" style="fill: none; stroke: #000000; stroke-width: 0.8; stroke-linejoin: miter; stroke-linecap: square"/>
   </g>
   <g id="patch_54">
    <path d="M 628.00525 399.558125 
L 628.00525 232.918125 
" style="fill: none; stroke: #000000; stroke-width: 0.8; stroke-linejoin: miter; stroke-linecap: square"/>
   </g>
   <g id="patch_55">
    <path d="M 470.38125 399.558125 
L 628.00525 399.558125 
" style="fill: none; stroke: #000000; stroke-width: 0.8; stroke-linejoin: miter; stroke-linecap: square"/>
   </g>
   <g id="patch_56">
    <path d="M 470.38125 232.918125 
L 628.00525 232.918125 
" style="fill: none; stroke: #000000; stroke-width: 0.8; stroke-linejoin: miter; stroke-linecap: square"/>
   </g>
   <g id="text_59">
    <!-- F -->
    <g transform="translate(460.60751 228.7561) scale(0.12 -0.12)">
     <defs>
      <path id="DejaVuSans-Bold-46" d="M 588 4666 
L 3834 4666 
L 3834 3756 
L 1791 3756 
L 1791 2888 
L 3713 2888 
L 3713 1978 
L 1791 1978 
L 1791 0 
L 588 0 
L 588 4666 
z
" transform="scale(0.015625)"/>
     </defs>
     <use xlink:href="#DejaVuSans-Bold-46"/>
    </g>
   </g>
   <g id="text_60">
    <!-- npq4lut2 -->
    <g transform="translate(518.787312 226.918125) scale(0.12 -0.12)">
     <defs>
      <path id="DejaVuSans-BoldOblique-34" d="M 2638 3641 
L 978 1722 
L 2259 1722 
L 2638 3641 
z
M 2606 4666 
L 3975 4666 
L 3397 1722 
L 4063 1722 
L 3897 850 
L 3231 850 
L 3066 0 
L 1925 0 
L 2094 850 
L -6 850 
L 197 1881 
L 2606 4666 
z
" transform="scale(0.015625)"/>
     </defs>
     <use xlink:href="#DejaVuSans-BoldOblique-6e"/>
     <use xlink:href="#DejaVuSans-BoldOblique-70" transform="translate(71.191406 0)"/>
     <use xlink:href="#DejaVuSans-BoldOblique-71" transform="translate(142.773438 0)"/>
     <use xlink:href="#DejaVuSans-BoldOblique-34" transform="translate(214.355469 0)"/>
     <use xlink:href="#DejaVuSans-BoldOblique-6c" transform="translate(283.935547 0)"/>
     <use xlink:href="#DejaVuSans-BoldOblique-75" transform="translate(318.212891 0)"/>
     <use xlink:href="#DejaVuSans-BoldOblique-74" transform="translate(389.404297 0)"/>
     <use xlink:href="#DejaVuSans-BoldOblique-32" transform="translate(437.207031 0)"/>
    </g>
   </g>
  </g>
  <g id="axes_7">
   <g id="patch_57">
    <path d="M 683.68125 399.558125 
L 841.30525 399.558125 
L 841.30525 232.918125 
L 683.68125 232.918125 
z
" style="fill: #ffffff"/>
   </g>
   <g id="patch_58">
    <path d="M 683.68125 399.558125 
L 691.187155 399.558125 
L 691.187155 391.226125 
L 683.68125 391.226125 
z
" clip-path="url(#p9207a469b0)" style="stroke: #000000; stroke-linejoin: miter"/>
   </g>
   <g id="patch_59">
    <path d="M 691.187155 399.558125 
L 728.716679 399.558125 
L 728.716679 391.226125 
L 691.187155 391.226125 
z
" clip-path="url(#p9207a469b0)" style="fill: #ffffff; stroke: #000000; stroke-linejoin: miter"/>
   </g>
   <g id="patch_60">
    <path d="M 728.716679 399.558125 
L 803.775726 399.558125 
L 803.775726 391.226125 
L 728.716679 391.226125 
z
" clip-path="url(#p9207a469b0)" style="stroke: #000000; stroke-linejoin: miter"/>
   </g>
   <g id="patch_61">
    <path d="M 803.775726 399.558125 
L 841.30525 399.558125 
L 841.30525 391.226125 
L 803.775726 391.226125 
z
" clip-path="url(#p9207a469b0)" style="fill: #ffffff; stroke: #000000; stroke-linejoin: miter"/>
   </g>
   <g id="matplotlib.axis_13">
    <g id="xtick_19">
     <g id="line2d_49">
      <g>
       <use xlink:href="#mbf3d224379" x="691.187155" y="399.558125" style="stroke: #000000; stroke-width: 0.8"/>
      </g>
     </g>
     <g id="text_61">
      <!-- 0 -->
      <g transform="translate(688.005905 414.156563) scale(0.1 -0.1)">
       <use xlink:href="#DejaVuSans-30"/>
      </g>
     </g>
    </g>
    <g id="xtick_20">
     <g id="line2d_50">
      <g>
       <use xlink:href="#mbf3d224379" x="766.246202" y="399.558125" style="stroke: #000000; stroke-width: 0.8"/>
      </g>
     </g>
     <g id="text_62">
      <!-- 10 -->
      <g transform="translate(759.883702 414.156563) scale(0.1 -0.1)">
       <use xlink:href="#DejaVuSans-31"/>
       <use xlink:href="#DejaVuSans-30" transform="translate(63.623047 0)"/>
      </g>
     </g>
    </g>
    <g id="xtick_21">
     <g id="line2d_51">
      <g>
       <use xlink:href="#mbf3d224379" x="841.30525" y="399.558125" style="stroke: #000000; stroke-width: 0.8"/>
      </g>
     </g>
     <g id="text_63">
      <!-- 20 -->
      <g transform="translate(834.94275 414.156563) scale(0.1 -0.1)">
       <use xlink:href="#DejaVuSans-32"/>
       <use xlink:href="#DejaVuSans-30" transform="translate(63.623047 0)"/>
      </g>
     </g>
    </g>
   </g>
   <g id="matplotlib.axis_14">
    <g id="ytick_25">
     <g id="line2d_52">
      <g>
       <use xlink:href="#md9c08a65c0" x="683.68125" y="399.558125" style="stroke: #000000; stroke-width: 0.8"/>
      </g>
     </g>
     <g id="text_64">
      <!-- 0.0 -->
      <g transform="translate(660.778125 403.357344) scale(0.1 -0.1)">
       <use xlink:href="#DejaVuSans-30"/>
       <use xlink:href="#DejaVuSans-2e" transform="translate(63.623047 0)"/>
       <use xlink:href="#DejaVuSans-30" transform="translate(95.410156 0)"/>
      </g>
     </g>
    </g>
    <g id="ytick_26">
     <g id="line2d_53">
      <g>
       <use xlink:href="#md9c08a65c0" x="683.68125" y="357.898125" style="stroke: #000000; stroke-width: 0.8"/>
      </g>
     </g>
     <g id="text_65">
      <!-- 0.5 -->
      <g transform="translate(660.778125 361.697344) scale(0.1 -0.1)">
       <use xlink:href="#DejaVuSans-30"/>
       <use xlink:href="#DejaVuSans-2e" transform="translate(63.623047 0)"/>
       <use xlink:href="#DejaVuSans-35" transform="translate(95.410156 0)"/>
      </g>
     </g>
    </g>
    <g id="ytick_27">
     <g id="line2d_54">
      <g>
       <use xlink:href="#md9c08a65c0" x="683.68125" y="316.238125" style="stroke: #000000; stroke-width: 0.8"/>
      </g>
     </g>
     <g id="text_66">
      <!-- 1.0 -->
      <g transform="translate(660.778125 320.037344) scale(0.1 -0.1)">
       <use xlink:href="#DejaVuSans-31"/>
       <use xlink:href="#DejaVuSans-2e" transform="translate(63.623047 0)"/>
       <use xlink:href="#DejaVuSans-30" transform="translate(95.410156 0)"/>
      </g>
     </g>
    </g>
    <g id="ytick_28">
     <g id="line2d_55">
      <g>
       <use xlink:href="#md9c08a65c0" x="683.68125" y="274.578125" style="stroke: #000000; stroke-width: 0.8"/>
      </g>
     </g>
     <g id="text_67">
      <!-- 1.5 -->
      <g transform="translate(660.778125 278.377344) scale(0.1 -0.1)">
       <use xlink:href="#DejaVuSans-31"/>
       <use xlink:href="#DejaVuSans-2e" transform="translate(63.623047 0)"/>
       <use xlink:href="#DejaVuSans-35" transform="translate(95.410156 0)"/>
      </g>
     </g>
    </g>
    <g id="text_68">
     <!-- $\tau_\mathrm{avg}$ -->
     <g transform="translate(653.678125 325.838125) rotate(-90) scale(0.1 -0.1)">
      <use xlink:href="#DejaVuSans-Oblique-3c4" transform="translate(0 0.3125)"/>
      <use xlink:href="#DejaVuSans-61" transform="translate(60.205078 -16.09375) scale(0.7)"/>
      <use xlink:href="#DejaVuSans-76" transform="translate(103.100586 -16.09375) scale(0.7)"/>
      <use xlink:href="#DejaVuSans-67" transform="translate(144.526367 -16.09375) scale(0.7)"/>
     </g>
    </g>
   </g>
   <g id="line2d_56">
    <path d="M 691.187155 299.805261 
L 692.875983 304.378755 
L 694.639871 308.519554 
L 696.516347 312.360132 
L 698.505412 315.924043 
L 700.607065 319.234216 
L 702.821307 322.312418 
L 705.185667 325.2225 
L 707.700145 327.96881 
L 710.402271 330.592307 
L 713.292044 333.089703 
L 716.406995 335.488436 
L 719.784652 337.806546 
L 723.425016 340.03348 
L 727.365616 342.182399 
L 729.39221 343.108269 
L 735.171757 345.056597 
L 741.476717 346.946302 
L 748.457208 348.801602 
L 756.113231 350.602562 
L 764.594903 352.365884 
L 774.052343 354.099919 
L 784.56061 355.795633 
L 796.269821 357.455411 
L 808.429387 359.181048 
L 819.575656 360.852966 
L 832.035458 362.492718 
L 841.30525 363.583467 
L 841.30525 363.583467 
" clip-path="url(#p9207a469b0)" style="fill: none; stroke: #77ac30; stroke-width: 3; stroke-linecap: square"/>
   </g>
   <g id="patch_62">
    <path d="M 683.68125 399.558125 
L 683.68125 232.918125 
" style="fill: none; stroke: #000000; stroke-width: 0.8; stroke-linejoin: miter; stroke-linecap: square"/>
   </g>
   <g id="patch_63">
    <path d="M 841.30525 399.558125 
L 841.30525 232.918125 
" style="fill: none; stroke: #000000; stroke-width: 0.8; stroke-linejoin: miter; stroke-linecap: square"/>
   </g>
   <g id="patch_64">
    <path d="M 683.68125 399.558125 
L 841.30525 399.558125 
" style="fill: none; stroke: #000000; stroke-width: 0.8; stroke-linejoin: miter; stroke-linecap: square"/>
   </g>
   <g id="patch_65">
    <path d="M 683.68125 232.918125 
L 841.30525 232.918125 
" style="fill: none; stroke: #000000; stroke-width: 0.8; stroke-linejoin: miter; stroke-linecap: square"/>
   </g>
   <g id="text_69">
    <!-- G -->
    <g transform="translate(672.255635 228.7561) scale(0.12 -0.12)">
     <defs>
      <path id="DejaVuSans-Bold-47" d="M 4781 347 
Q 4331 128 3847 18 
Q 3363 -91 2847 -91 
Q 1681 -91 1000 561 
Q 319 1213 319 2328 
Q 319 3456 1012 4103 
Q 1706 4750 2913 4750 
Q 3378 4750 3804 4662 
Q 4231 4575 4609 4403 
L 4609 3438 
Q 4219 3659 3833 3768 
Q 3447 3878 3059 3878 
Q 2341 3878 1952 3476 
Q 1563 3075 1563 2328 
Q 1563 1588 1938 1184 
Q 2313 781 3003 781 
Q 3191 781 3352 804 
Q 3513 828 3641 878 
L 3641 1784 
L 2906 1784 
L 2906 2591 
L 4781 2591 
L 4781 347 
z
" transform="scale(0.015625)"/>
     </defs>
     <use xlink:href="#DejaVuSans-Bold-47"/>
    </g>
   </g>
   <g id="text_70">
    <!-- npq4zep2 -->
    <g transform="translate(729.426687 226.918125) scale(0.12 -0.12)">
     <use xlink:href="#DejaVuSans-BoldOblique-6e"/>
     <use xlink:href="#DejaVuSans-BoldOblique-70" transform="translate(71.191406 0)"/>
     <use xlink:href="#DejaVuSans-BoldOblique-71" transform="translate(142.773438 0)"/>
     <use xlink:href="#DejaVuSans-BoldOblique-34" transform="translate(214.355469 0)"/>
     <use xlink:href="#DejaVuSans-BoldOblique-7a" transform="translate(283.935547 0)"/>
     <use xlink:href="#DejaVuSans-BoldOblique-65" transform="translate(342.138672 0)"/>
     <use xlink:href="#DejaVuSans-BoldOblique-70" transform="translate(409.960938 0)"/>
     <use xlink:href="#DejaVuSans-BoldOblique-32" transform="translate(481.542969 0)"/>
    </g>
   </g>
  </g>
 </g>
 <defs>
  <clipPath id="p6d5a681096">
   <rect x="150.43125" y="22.318125" width="157.624" height="166.64"/>
  </clipPath>
  <clipPath id="p496a2d4b98">
   <rect x="363.73125" y="22.318125" width="157.624" height="166.64"/>
  </clipPath>
  <clipPath id="pb8b3a38dca">
   <rect x="577.03125" y="22.318125" width="157.624" height="166.64"/>
  </clipPath>
  <clipPath id="pa05486165e">
   <rect x="43.78125" y="232.918125" width="157.624" height="166.64"/>
  </clipPath>
  <clipPath id="pda78867f38">
   <rect x="257.08125" y="232.918125" width="157.624" height="166.64"/>
  </clipPath>
  <clipPath id="p98d468ec3e">
   <rect x="470.38125" y="232.918125" width="157.624" height="166.64"/>
  </clipPath>
  <clipPath id="p9207a469b0">
   <rect x="683.68125" y="232.918125" width="157.624" height="166.64"/>
  </clipPath>
 </defs>
</svg>
